<?xml version="1.0" standalone="no"?>
<!DOCTYPE svg PUBLIC "-//W3C//DTD SVG 1.1//EN" "http://www.w3.org/Graphics/SVG/1.1/DTD/svg11.dtd" >
<svg>
<metadata>
Created by FontForge 20110222 at Sat Sep 13 17:59:59 2014
 By Orthosie Webhosting
 2001 Nerfect Type Laboratories &#38; Britton Walters
</metadata>
<defs>
<font id="Conspiracy-Regular" horiz-adv-x="341" >
  <font-face 
    font-family="Conspiracy 2"
    font-weight="400"
    font-stretch="normal"
    units-per-em="1000"
    panose-1="0 0 0 0 0 0 0 0 0 0"
    ascent="750"
    descent="-250"
    x-height="507"
    cap-height="786"
    bbox="1 -322 1500 885"
    underline-thickness="20"
    underline-position="-113"
    unicode-range="U+000D-221E"
  />
<missing-glyph 
 />
    <glyph glyph-name=".notdef" 
 />
    <glyph glyph-name=".null" horiz-adv-x="0" 
 />
    <glyph glyph-name=".null" horiz-adv-x="0" 
 />
    <glyph glyph-name="nonmarkingreturn" unicode="&#xd;" horiz-adv-x="250" 
 />
    <glyph glyph-name="space" unicode=" " 
 />
    <glyph glyph-name="exclam" unicode="!" horiz-adv-x="289" 
d="M188 251q0 5 -7 18t-15.5 29.5t-15 34.5t-6.5 33v366l48 31q9 -4 20 -14t21.5 -22.5t19 -26t12.5 -23.5v-412zM321 74q0 -22 -12 -39.5t-29 -30t-37 -19t-37 -6.5q-23 0 -46 6.5t-41 19t-29.5 30t-11.5 39.5q0 27 18 43t39.5 24.5t41 11t22.5 2.5q31 0 54 -8.5t38 -21
t22.5 -26.5t7.5 -25z" />
    <glyph glyph-name="quotedbl" unicode="&#x22;" horiz-adv-x="387" 
d="M409 558q-8 -7 -18 -21t-30 -14q-10 0 -16.5 2t-12 9t-10 20.5t-9.5 37.5l-10 181q-2 8 7 25t17 33h80q8 -16 15.5 -29.5t7.5 -33.5zM161 524h-48l-44 206v89q7 4 23 6t34 2t34.5 -2t24.5 -6v-260z" />
    <glyph glyph-name="numbersign" unicode="#" horiz-adv-x="517" 
d="M574 485q-15 -33 -32.5 -41.5t-32.5 -12.5t-25 -14t-10 -45q0 -23 7.5 -30.5t20 -11.5t29.5 -8.5t36 -21.5v-45q-76 5 -113.5 -38.5t-41.5 -119.5q-1 -21 -7.5 -42.5t-16 -42t-21 -38.5t-22.5 -33l-45 15v80l49 168q0 14 -5.5 21t-15.5 17h-94l-74 -299q-4 -1 -9 -3
q-4 -1 -8.5 -3.5t-9.5 -7.5q-5 0 -13 4.5t-16.5 11.5t-16.5 13.5t-13 11.5l63 245q-6 14 -24.5 23t-36.5 18v58q13 1 30 5.5t32 13.5t25.5 23t10.5 35q0 17 -6.5 25.5t-18 12.5t-27 3.5t-33.5 -2.5q0 5 -2 13t-4.5 16.5t-4.5 17t-2 12.5q43 -6 71.5 7.5t47 40t30.5 62.5
t21.5 74t19 75t24.5 66h45l-36 -255q0 -9 6 -21.5t15 -22.5h70l112 312q9 0 29.5 -6.5t35.5 -6.5v-93l-55 -168q3 -10 11.5 -18.5t18.5 -16.5t19 -16t13 -17zM386 426q-5 0 -9 2.5t-9 5t-12 5t-19 2.5q-19 0 -35 -9t-26 -24t-13.5 -35.5t1.5 -43.5h81q10 9 21 13.5t20 14.5
v69z" />
    <glyph glyph-name="dollar" unicode="$" horiz-adv-x="480" 
d="M533 304q0 -48 -14.5 -81t-42.5 -57.5t-69.5 -43t-95.5 -37.5v-86q4 0 1 -3t-10 -6.5t-16 -6.5t-18 -3v127h-161q-10 7 -24 24.5t-14 39.5v95l42 14q4 -5 19 -19.5t34 -31t39 -32t33 -21.5q9 8 20.5 16t45.5 16v168q-57 26 -101 40.5t-73.5 32t-44.5 44.5t-15 78
q0 47 9 73.5t25 42.5t37 25.5t44.5 22t49 33.5t49.5 59q18 -12 27.5 -28.5t19.5 -30.5t25 -21.5t44 -1.5q16 4 37.5 5.5t38.5 -7.5q8 -26 8 -61.5t-8 -61.5q-5 -1 -9 -2q-5 -2 -9.5 -4.5t-8.5 -7.5q-18 11 -25 23t-13.5 22.5t-18 17.5t-37.5 7q-11 0 -14 -1.5t-4.5 -3.5
t-5.5 -3.5t-17 -1.5v-160q0 -17 16.5 -29.5t41 -24t53 -24t53 -29t41 -39.5t16.5 -56zM254 660q-9 9 -21.5 12t-20.5 3q-29 -23 -51.5 -45.5t-22.5 -41.5q0 -11 8 -27.5t20.5 -32.5t28 -27t30.5 -11q11 0 17 2t8 5q4 3 4 7v156zM440 275q0 20 -8.5 35t-22 26.5t-29.5 20.5
t-31 15v-184h28q17 2 29 14t19.5 27t11 28.5t3.5 17.5z" />
    <glyph glyph-name="percent" unicode="%" horiz-adv-x="572" 
d="M635 211q0 -16 -10 -45t-26 -57t-36.5 -48.5t-41.5 -20.5h-155q-11 0 -24.5 9.5t-28 23.5t-30 31t-30.5 32v96l66 115q-2 3 -5 5q-6 4 -14 4l-173 -53l-10 8q-5 3 -10 5t-10 2q-2 23 16.5 39.5t48 30t65 26.5t66.5 30q1 5 0 12q-1 6 -3 13t-7 16l-91 -11q-16 14 -35 34
t-35.5 40.5t-28 39.5t-11.5 31q0 49 16.5 84t43.5 57t62.5 32.5t74.5 10.5q22 0 42 -3t42 -12.5t46 -28.5t54 -52v-123q0 -12 -6.5 -23.5t-16.5 -23t-21.5 -22.5t-21.5 -22l224 9l-210 -128q10 -10 26 -7.5t46 2.5q33 3 61 -15.5t48.5 -45t31.5 -54.5t11 -43zM398 652
q0 15 -14.5 28.5t-33 23t-37 15t-27.5 5.5q-15 0 -31.5 -5.5t-32 -14t-28 -18t-19.5 -17.5v-74q5 -4 10.5 -11.5t12 -14t16 -11.5t21.5 -5h89q14 0 27 13t23.5 30t17 33.5t6.5 22.5zM542 198q0 7 -3.5 23.5t-14 33t-30 27.5t-51.5 8q-22 -2 -42 -9.5t-35.5 -18.5t-24.5 -26
t-9 -32q0 -12 5.5 -26t14 -26t19 -21t19.5 -12h92q12 0 23 7.5t19 19.5t13 26t5 26z" />
    <glyph glyph-name="ampersand" unicode="&#x26;" horiz-adv-x="530" 
d="M589 30q-10 -10 -30 -12.5t-39 -3.5q-9 0 -18 5.5t-18.5 13t-19.5 13.5t-22 6q-7 0 -32 -10t-54.5 -22t-57.5 -22t-42 -10q-54 0 -90.5 15t-59 39.5t-32.5 57t-10 68.5q0 53 12.5 83t31.5 52.5t41.5 44.5t42.5 58l-51 179q12 40 28.5 66t37 41t44.5 21t50 6q36 0 62 -8
t46 -25t35.5 -44t29.5 -65l-141 -191l97 -141l74 114h57q4 -6 8 -11q3 -5 5.5 -10.5t2.5 -10.5l-64 -167q-1 -9 5 -19.5t17 -22t25.5 -23t28.5 -20.5v-45zM372 584q0 27 -18 42.5t-40 15.5q-24 0 -42 -11.5t-28 -31.5v-81q10 -10 18.5 -20t32.5 -10q11 0 24.5 8t25 21.5
t19.5 31t8 35.5zM252 321q-10 -4 -24.5 -13.5t-28 -21t-23 -24.5t-9.5 -25v-117q20 -19 42 -37t54 -18q44 0 78 19t44 39z" />
    <glyph glyph-name="quotesingle" unicode="'" horiz-adv-x="188" 
d="M198 626q0 -11 -2 -29.5t-6 -38.5t-11 -39t-18 -30h-50l-35 260q2 23 8 37t15.5 22t20.5 10.5t22 2.5q21 0 34.5 -11t20.5 -24.5t9.5 -26.5t2.5 -16z" />
    <glyph glyph-name="parenleft" unicode="(" horiz-adv-x="266" 
d="M200 488v-210l94 -258v-52q-4 -1 -9 -3q-4 -1 -8.5 -3.5t-9.5 -7.5q-20 1 -41 28t-41.5 67t-38.5 88.5t-32 94t-22 82t-8 53.5v183l155 273h42q0 -9 7 -19.5t7 -15.5z" />
    <glyph glyph-name="parenright" unicode=")" horiz-adv-x="287" 
d="M162 -77h-58q-4 6 -8 11q-3 5 -5.5 10.5t-2.5 10.5l112 410v113l-125 336l30 30q23 -2 47.5 -24.5t48 -56t45 -74.5t38 -80.5t26 -73.5t9.5 -54v-182z" />
    <glyph glyph-name="asterisk" unicode="*" horiz-adv-x="522" 
d="M580 673q-4 -27 -29.5 -41.5t-56 -24.5t-59 -19t-37.5 -24l102 -117q2 -6 -1 -15.5t-9 -19t-14 -18t-16 -12.5l-130 113l-118 -112h-40q0 9 -6 25t-6 21l90 118q-9 24 -31.5 35t-50.5 18.5t-57.5 16.5t-53.5 30q7 18 20 32t31 21l166 -47v168l25 25h61v-183q11 -9 16 -9
h9l109 46h60z" />
    <glyph glyph-name="plus" unicode="+" horiz-adv-x="410" 
d="M455 342q0 -4 -3.5 -11t-10 -14t-14.5 -12t-17 -5h-120v-154l-34 -11q-11 11 -26 30.5t-16 50.5q-1 14 4.5 26t5.5 16l-26 42h-136v63l118 8q8 3 17 7.5t14 12.5q4 14 4 36v40v59l32 12q9 2 23 -8t21 -24v-136l152 6z" />
    <glyph glyph-name="comma" unicode="," horiz-adv-x="203" 
d="M83 -174q-1 0 -2 3q-1 2 -1.5 6.5t-0.5 13.5l1 193v49q21 7 26.5 14t12.5 14h86q7 -7 14 -20t7 -17z" />
    <glyph glyph-name="hyphen" unicode="-" horiz-adv-x="424" 
d="M471 372q-11 -13 -29 -23t-36 -10h-326l10 67h358z" />
    <glyph glyph-name="period" unicode="." horiz-adv-x="208" 
d="M231 7q0 -17 -12.5 -26t-26.5 -23h-87q-8 7 -20.5 19.5l-19.5 19.5v69q17 17 40.5 28.5t42.5 11.5q15 0 38.5 -10t44.5 -30v-59z" />
    <glyph glyph-name="slash" unicode="/" horiz-adv-x="414" 
d="M132 -58h-39q-8 8 -11 18.5t-3 15.5l353 864l28 -33z" />
    <glyph glyph-name="zero" unicode="0" horiz-adv-x="522" 
d="M579 313q3 -33 -0.5 -76.5t-14 -88.5t-29.5 -89t-48.5 -78t-70 -55t-94.5 -21q-50 0 -90 21.5t-70.5 55t-52 76t-34.5 84t-18.5 78.5t-3.5 60l13 185q11 64 34.5 114t56.5 84.5t73.5 52.5t85.5 18q59 0 105 -27t77.5 -65t48.5 -79.5t19 -71.5zM474 466q0 22 -17.5 54
t-43 62t-54 51.5t-50.5 21.5q-28 0 -52.5 -24t-43 -54.5t-29.5 -59.5t-13 -39l-7 -158q6 -90 22 -161q8 -43 16.5 -67.5t20 -45.5t27.5 -34.5t35 -13.5h93q21 28 39 56.5t30.5 54.5t19.5 46.5t7 31.5v279z" />
    <glyph glyph-name="one" unicode="1" horiz-adv-x="363" 
d="M403 16q0 -13 -5 -23.5t-13 -19t-16 -15.5t-14 -12h-80v702q-2 3 -5 6q-3 2 -6.5 3.5t-9.5 1.5l-128 -71h-48q-11 11 -14.5 26t-3.5 20l262 182q5 0 14 -3t18.5 -8t18.5 -10.5t15 -11.5z" />
    <glyph glyph-name="two" unicode="2" horiz-adv-x="591" 
d="M657 617q0 -44 -23.5 -95.5t-60.5 -104.5t-82.5 -106t-90.5 -100.5t-84 -87t-62 -66.5q3 -3 7 -6l8.5 -8.5t10.5 -11.5h218q26 0 40.5 7t22 15.5t10.5 16t4.5 7.5t4.5 -10t11 -36l43 78q11 -11 17 -35.5t6 -46.5q-1 -6 -8.5 -20.5t-18 -29.5t-23 -26t-25 -10t-23.5 18.5
t-18 58.5l-449 -71q0 11 -3 25t-14 25l463 607q-13 64 -33.5 95t-43.5 42.5t-47.5 10.5t-47.5 -1q-22 0 -41 -1.5t-39.5 -11.5t-46.5 -31t-64 -59h-54q0 12 -8 25t-8 41t17.5 49t45 36.5t60.5 26.5t64 17.5t55 9.5t34 3q41 0 89.5 -16.5t90 -47t69 -75t27.5 -100.5z" />
    <glyph glyph-name="three" unicode="3" horiz-adv-x="544" 
d="M604 199q0 -67 -24.5 -117t-65 -82.5t-93 -48.5t-109.5 -16q-30 0 -57.5 2.5t-56 12t-61.5 27.5t-74 48v51q6 0 9 2.5t7.5 5.5t12 5.5t20.5 2.5q9 0 19.5 -9t31.5 -19.5t56 -19.5t93 -9q47 0 83 15t60 39t36.5 54.5t12.5 62.5q0 20 -10.5 47t-28.5 51.5t-43 42t-55 17.5
h-88q-1 6 -3 12t-5.5 12t-8.5 11q13 17 48 33.5t72 36t65.5 44t28.5 58.5q0 5 -8.5 29t-23 51t-34.5 48.5t-43 21.5h-83l-145 -57l-48 33q6 26 36 49t69 39.5t80.5 26t70.5 9.5q48 0 90 -18t73 -48t48.5 -70.5t17.5 -85.5q0 -18 -2.5 -39.5t-11.5 -44t-26 -46t-46 -44.5
q2 -13 14.5 -27.5t29.5 -31t34.5 -36t29.5 -42.5q8 -15 7 -38.5t-1 -50.5z" />
    <glyph glyph-name="four" unicode="4" horiz-adv-x="570" 
d="M633 254q-7 -21 -19 -33.5t-26.5 -21.5t-30.5 -16.5t-33 -19.5v-80q26 -24 48.5 -35.5t45.5 -20.5q0 -11 -10 -26.5t-21 -26.5l-161 -15q-26 0 -55.5 11t-50.5 22q6 11 14 23.5t20 22.5t28.5 16t38.5 3v92l-27 24h-270q-13 8 -25 32.5t-23 46.5l361 591h87v-493
q0 -19 7 -32t21 -23t34.5 -19t46.5 -22zM417 628h-37l-160 -338h197v338z" />
    <glyph glyph-name="five" unicode="5" horiz-adv-x="501" 
d="M557 266q0 -49 -23.5 -96.5t-63 -83.5t-90.5 -57.5t-106 -19.5l-228 80q-1 5 2.5 13.5t9.5 16t14 13t18 5.5l173 -38q90 -4 141 43.5t51 129.5q0 27 -5.5 54.5t-23 51t-49 41.5t-83.5 26l-211 -37v352q7 18 28.5 30t43.5 12h336v-83h-333v-199q196 10 297.5 -51
t101.5 -203z" />
    <glyph glyph-name="six" unicode="6" horiz-adv-x="575" 
d="M639 246q0 -46 -16.5 -98.5t-48.5 -97.5t-78.5 -74.5t-106.5 -29.5q-42 0 -93.5 16.5t-98 53.5t-79 95.5t-36.5 141.5q-1 15 -3.5 25.5l-5 21t-4.5 21t-2 25.5q0 41 10 92.5t31 105t52.5 105t73.5 92t95.5 65t118.5 24.5h161v-66q-11 -11 -37.5 -14.5t-69.5 -3.5
q-20 7 -51 0t-65 -24.5t-68 -42.5t-61 -55t-44 -62.5t-17 -63.5v-43l23 -24q19 10 42.5 20.5t47.5 18.5t46.5 13.5t40.5 5.5q61 0 106.5 -23t76 -59t45.5 -79t15 -82zM524 224q0 29 -4 60.5t-19 58t-43 43.5t-76 17q-35 0 -68.5 -12t-59.5 -34.5t-42 -54t-16 -70.5
q0 -30 16.5 -65t42 -65t57 -50t62.5 -20q38 0 66 19.5t46.5 48t28 62.5t9.5 62z" />
    <glyph glyph-name="seven" unicode="7" horiz-adv-x="605" 
d="M375 -62h-66q-11 11 -15 25t-4 19l250 704q-11 28 -21 37.5t-38 7.5l-243 -15q-10 2 -23 -3.5t-26 -14t-23 -19.5t-13 -21q-20 10 -33.5 23.5t-21 26t-10.5 22t-3 10.5v91h553q6 -5 12.5 -13.5t11.5 -19t8 -21t2 -18.5z" />
    <glyph glyph-name="eight" unicode="8" horiz-adv-x="606" 
d="M673 223q0 -45 -20 -93t-56.5 -87.5t-88 -65t-113.5 -25.5q-17 0 -48 5t-66.5 16t-72.5 28t-67 40t-49 53t-19 67v72l114 212l-85 150q11 17 12.5 36.5t1.5 41.5q-7 41 20 74.5t68.5 56.5t85.5 35.5t69 12.5q50 0 98.5 -15.5t86.5 -45t62 -72t24 -96.5q0 -11 -7.5 -32
t-19.5 -46t-27.5 -51t-31.5 -48q24 -11 47.5 -39.5t41.5 -62t29 -67t11 -54.5zM516 630q3 39 -11.5 65.5t-37.5 42t-49 22t-45 6.5q-3 0 -28 -5t-53.5 -16t-52 -29t-23.5 -44v-101q9 -15 23 -28.5t29.5 -24.5t30 -17t24.5 -6q11 0 18.5 -2t15 -5t16.5 -5.5t22 -2.5
q26 0 47.5 18.5t37.5 43.5t25.5 50t10.5 38zM559 209q0 36 -13 69.5t-37.5 59.5t-59 41.5t-76.5 15.5q-17 0 -48.5 -10t-62 -27.5t-53 -39.5t-22.5 -46v-111q0 -21 28 -43t62.5 -40t65.5 -29t37 -11q24 0 55 12t58.5 34.5t46.5 54t19 70.5z" />
    <glyph glyph-name="nine" unicode="9" horiz-adv-x="574" 
d="M638 432q0 -22 -7.5 -63t-23.5 -90t-41.5 -101t-62 -94.5t-84 -71t-107.5 -31.5q-37 -2 -64 -1t-49 3.5t-42.5 6t-44.5 7.5q0 10 4.5 21.5t13.5 21.5t20.5 17t24.5 7h93q48 0 92.5 29t78.5 73.5t54.5 96t20.5 96.5q-2 3 -5 6q-7 5 -15 5l-167 -70q-54 5 -98.5 26.5
t-77 55.5t-50.5 79t-18 96q0 48 15.5 96.5t47 87.5t80 63t114.5 24q45 0 88 -11.5t80.5 -43t67 -86.5t48.5 -143q0 -26 2 -41.5t5 -27t5 -21t2 -22.5zM499 628q0 21 -23.5 42t-53 37.5t-55 27t-28.5 10.5q-49 -3 -78 -22.5t-44 -47.5t-19 -59.5t-4 -58.5q0 -38 5.5 -67.5
t21 -50t42.5 -31t70 -10.5q2 0 28 6.5t57 19t56 32t25 44.5v128z" />
    <glyph glyph-name="colon" unicode=":" horiz-adv-x="285" 
d="M317 426q0 -16 -4.5 -33t-17.5 -31t-35.5 -23t-57.5 -9q-29 0 -57.5 16t-55.5 35v78q18 20 34 31t31 15.5t28.5 5t25.5 0.5q60 0 84.5 -19.5t24.5 -65.5zM317 65q0 -23 -15 -41t-36 -30.5t-42.5 -19t-33.5 -6.5q-24 0 -42.5 12t-32 27.5t-20.5 32t-7 25.5q0 15 10 32
t26.5 31t37 23.5t41.5 9.5q32 -1 54 -10t35.5 -23t19 -30.5t5.5 -32.5z" />
    <glyph glyph-name="semicolon" unicode=";" horiz-adv-x="267" 
d="M297 362q0 -8 -5 -23.5t-13.5 -30.5t-20 -26t-25.5 -11h-76q-17 0 -32 16t-32 33v71q9 19 23 29.5t28.5 15t28 5t22.5 0.5q28 0 47.5 -7t31.5 -18t17.5 -25.5t5.5 -28.5zM112 -217q-4 0 -11 4.5t-13.5 12t-11.5 16t-5 17.5v104l81 185h108l26 -39z" />
    <glyph glyph-name="less" unicode="&#x3c;" horiz-adv-x="379" 
d="M185 382l236 -222v-46q-6 -4 -13 -7q-5 -4 -11 -6t-11 -2l-307 283l323 282q10 -10 14.5 -23.5t4.5 -18.5z" />
    <glyph glyph-name="equal" unicode="=" horiz-adv-x="433" 
d="M481 403q-8 -7 -16.5 -10.5t-16.5 -11.5h-348l-23 30q8 11 13 26t13 15l372 -7zM481 241q-8 -7 -17.5 -14.5t-28.5 -7.5h-324l-33 23q0 4 4 10.5t9 13.5t10.5 13.5t9.5 10.5l364 -6z" />
    <glyph glyph-name="greater" unicode="&#x3e;" horiz-adv-x="386" 
d="M148 100h-45q-4 6 -8 13q-3 5 -5.5 11t-2.5 11l236 234l-249 248l8 12q3 5 5 11t2 11h60l280 -269z" />
    <glyph glyph-name="question" unicode="?" horiz-adv-x="535" 
d="M594 528q0 -9 -8.5 -37t-22.5 -60t-31.5 -59.5t-35.5 -35.5q-10 -4 -23 -7t-27.5 -6.5t-29.5 -8.5t-27 -13q-16 -11 -27.5 -26.5t-21.5 -29.5t-20 -24t-23 -10q-26 0 -34.5 10t-18.5 21v87q48 23 92 39.5t77 35t53 42.5t20 62q0 39 -24 64.5t-54.5 41.5t-59 22.5
t-38.5 6.5q-24 0 -52.5 -10t-54.5 -25t-45.5 -34t-25.5 -37h-63l-14 117l247 70q36 4 86.5 -8.5t96 -38.5t77.5 -64t32 -85zM418 10q-5 -4 -13 -11.5t-16 -15.5l-16 -16l-13 -13h-109q-12 0 -21.5 5t-16.5 12t-12.5 15t-10.5 13v100q20 12 50.5 21.5t56.5 9.5
q11 0 26.5 -3.5t32.5 -9t33 -13.5t29 -17v-77z" />
    <glyph glyph-name="at" unicode="@" horiz-adv-x="561" 
d="M623 172q-44 16 -72.5 22t-46.5 6t-28.5 -4.5t-19.5 -10t-19.5 -10t-28.5 -4.5q-33 0 -66.5 16.5t-61.5 43t-45.5 60.5t-17.5 70q0 10 9.5 45t27.5 73.5t44 68.5t59 30h101q5 5 9 7t7 5.5t4.5 9.5t1.5 18q0 30 -14.5 54t-34.5 41.5t-41 26.5t-35 9q-42 0 -72.5 -20.5
t-51.5 -52t-34 -70t-20 -75t-9.5 -66.5t-2.5 -44q0 -30 3 -70.5t11.5 -85t23 -88t37.5 -79t54.5 -59t74.5 -26.5q18 -1 38.5 2t41.5 7t42 5.5t40 -3.5q3 -20 -9.5 -35t-34 -26t-49 -18t-55.5 -11q-51 -7 -93.5 13.5t-76 57.5t-58.5 86t-41 99t-23 95.5t-5 75.5l13 172
q14 65 37.5 119t55.5 93t71.5 61t85.5 22q44 0 86.5 -19t76 -49.5t54 -69t20.5 -77.5v-290zM479 484q-15 0 -26 2.5t-20.5 5t-18 5t-19.5 2.5q-16 0 -31.5 -17t-27.5 -39t-19.5 -43.5t-7.5 -31.5t8.5 -28t23.5 -35t34 -29.5t40 -12.5q25 0 40 9.5t24 20.5v191z" />
    <glyph glyph-name="A" unicode="A" horiz-adv-x="773" 
d="M716 -6v21t-11 21q-20 -11 -43 -14.5t-45 -14.5l-36 38q23 11 54 24.5t64 33.5q-10 35 -23 71t-46 69h-332q-17 -29 -29 -46.5t-19.5 -27.5t-11 -14.5t-3.5 -6.5v-71l124 -29q0 -11 -10.5 -27.5t-21.5 -27.5l-165 -16q-25 0 -49 16.5t-32 36.5l177 193q0 5 -5 12.5
t-12 15t-14.5 14.5t-12.5 12l162 386q1 13 -8.5 28t-31.5 38h-113v74h296l340 -743v-66h-143zM640 325q-20 12 -35.5 39t-29.5 60.5t-27.5 69.5t-29.5 67t-35.5 52t-45.5 25l-90 -304l276 -46q0 6 2.5 12.5t6.5 11.5q3 7 8 13zM242 61q-11 0 -29 -4t-29 -15q15 -7 23.5 -8
t14 2.5t9.5 10t11 14.5z" />
    <glyph glyph-name="B" unicode="B" horiz-adv-x="823" 
d="M914 137q0 -28 -29.5 -63t-70 -66t-84 -51.5t-72.5 -20.5h-152l15 54l-25 26q-11 -13 -38 -16t-52 9l187 23q24 9 46 11.5t44.5 8.5t46.5 21.5t53 51.5v126q0 28 -28.5 50t-66.5 41t-76 37t-58 38q11 12 38 30.5t55.5 41.5t50 50t20.5 58q-1 38 -11.5 64.5t-22 51.5
t-20 53t-7.5 69q5 -4 36 -20.5t65.5 -43t62.5 -62t28 -78.5q0 -15 -9.5 -45t-24 -61.5t-32 -58t-33.5 -34.5q18 -18 46 -42t54.5 -49t45 -47.5t18.5 -37.5v-119zM368 755q-22 -20 -33 -50t-11 -56v-136q-5 -6 -16 -6.5t-25 2t-29 8t-28 11.5v166q0 23 -16.5 36.5t-40 22.5
t-48 17t-41.5 20v60l280 -25q0 6 4 1t17 1l113 -25q13 13 19 25t18 24l21 -96h-184zM504 443q-27 -29 -49.5 -43.5t-41 -22.5t-33 -13t-24 -14.5t-14.5 -27t-5 -50.5v-240l-27 101q-28 9 -43 35t-24 61.5t-15.5 76.5t-17.5 80l40 56l42 -33l63 34h149zM224 -46
q-10 -6 -27 -9.5t-35 -3.5t-36 3t-30 9q-1 8 2.5 19t11 22.5t18.5 21.5t23 16l73 -20v-58zM297 800h-28v-60h28v60z" />
    <glyph glyph-name="C" unicode="C" horiz-adv-x="716" 
d="M731 521q-11 10 -21 27t-20 35.5t-19.5 37.5t-20.5 32q-14 18 -36.5 33.5t-46 27t-45 18t-35.5 6.5q-36 0 -81.5 -20t-87.5 -54.5t-74 -81t-40 -98.5q0 -6 2.5 -12.5t4 -19t0.5 -32.5t-7 -53q-5 -30 4.5 -65t29.5 -69.5t47.5 -67t58.5 -57t62 -39t58 -13.5l331 115v-66
q-24 -31 -66.5 -56.5t-89 -42.5t-90 -26.5t-69.5 -9.5q-101 0 -175 42t-122 106.5t-71 140.5t-23 145q0 36 7.5 80.5t26 90t49 89t76.5 78.5t109 57.5t145 25.5l153 -29q8 0 15.5 4.5t15.5 10t18 10t22 4.5q14 0 24.5 -5.5t19.5 -13t15.5 -16t10.5 -13.5v-239z" />
    <glyph glyph-name="D" unicode="D" horiz-adv-x="717" 
d="M797 277q0 -33 -16.5 -67t-43.5 -65.5t-61 -59t-70.5 -48t-71.5 -31.5t-63 -10l-396 16q-1 10 5.5 22t17.5 24.5t24 25t23 23.5v518q0 14 -13.5 32t-30 37.5t-30 38t-13.5 31.5l18 43h379q25 0 60.5 -10t73.5 -28t75 -43t66.5 -54.5t48 -62.5t18.5 -68v-264zM696 424
q-18 102 -49 161t-74 89t-96 38.5t-115 8.5q-12 0 -27.5 -1t-31 -3t-28.5 -6t-20 -9v-618h156q38 0 82 14t83.5 42t68.5 69.5t36 96.5z" />
    <glyph glyph-name="E" unicode="E" horiz-adv-x="671" 
d="M745 105q-1 -14 -8 -31t-19 -30.5t-28 -21.5t-34 -5l-572 16q7 36 24 45t35.5 11.5t36 8.5t24.5 35v443q0 50 -28 78.5t-91 26.5q0 5 -2 14t-5 18t-5 18t-2 14l552 29q23 1 43.5 -6t36 -19t23.5 -29t5 -35q0 -51 1.5 -73.5t12.5 -32.5l-31 -61h-47q-10 10 -14.5 21.5
t-15.5 22.5v95l-24 24h-315v-195l38 -37h102l54 93h42v-209q-5 -11 -17 -16.5t-23 -15.5q-13 17 -22 33.5t-18.5 30t-21.5 22t-32 8.5q-16 0 -32.5 -5.5t-31 -13t-25 -16t-13.5 -14.5v-249h303q17 12 25.5 33t13.5 45t7.5 49.5t5.5 47.5q5 0 13.5 2t17.5 5t17.5 5t13.5 2
q11 -23 22 -69.5t8 -111.5z" />
    <glyph glyph-name="F" unicode="F" horiz-adv-x="624" 
d="M613 509l-38 153h-275l-27 -35v-163q4 -10 10.5 -10.5t16.5 -10.5h97l51 89q5 0 13 -2.5t17 -7t17 -9t13 -9.5v-107l-27 -93q-9 -1 -19.5 5t-21 15.5t-19 21.5t-12.5 22h-137v-223q13 -11 27.5 -23t36.5 -12q24 0 49.5 3.5t45.5 -6.5v-45q-10 -9 -21 -13.5t-21 -11.5
h-320v59q23 11 51 18t56 7v506q-15 14 -29 22t-27.5 12.5t-26.5 7.5t-24 8v66h590l34 -48v-186h-80z" />
    <glyph glyph-name="G" unicode="G" horiz-adv-x="712" 
d="M791 347q2 -12 -9 -33t-34 -32v-206q-10 -18 -42 -33t-71.5 -26t-78 -18.5t-61.5 -10.5l-98 14q-87 12 -147 52t-96.5 95t-52.5 118.5t-16 122.5q0 87 28.5 160.5t81 127t126 84t162.5 30.5h264v-218q-8 -1 -16 -3t-15 -5.5t-12 -8.5q-15 12 -39.5 37.5t-54.5 51.5
t-63 45.5t-66 18.5q-44 -1 -90.5 -20t-86.5 -50t-69 -72.5t-38 -87.5q0 -5 2 -11.5t3 -21t0.5 -39t-5.5 -66.5q21 -77 48 -126.5t62.5 -78.5t78.5 -40.5t95 -11.5q20 0 49.5 2t57 12.5t47.5 31.5t20 60v51q-11 11 -25.5 26t-25.5 26h-112q-11 11 -20.5 26.5t-9.5 26.5h329z
" />
    <glyph glyph-name="H" unicode="H" horiz-adv-x="638" 
d="M709 685q-9 -8 -20 -15l-22 -14t-19.5 -14.5t-13.5 -16.5v-484q16 -17 35 -22.5t39 -13.5v-46q-23 -13 -56.5 -19t-68.5 -6t-68 7.5t-56 21.5q12 20 27.5 30t29 24t22.5 38t9 71q0 12 -1 36t-7 48t-17.5 42t-32.5 18h-197l-40 -34v-183q11 -19 37.5 -35t49.5 -26v-55
h-226l-29 26q10 19 31.5 33t44.5 33v507l-87 37v52l266 8v-48q-13 -5 -23.5 -9.5t-20.5 -10.5t-20 -15.5t-22 -25.5v-112q0 -10 0.5 -17.5t3 -15t8 -15.5t15.5 -20h255v193q-20 19 -44.5 29t-42.5 20v47l247 7q0 -3 2 -10t5 -15.5t5 -16.5t2 -13z" />
    <glyph glyph-name="I" unicode="I" horiz-adv-x="556" 
d="M614 725q-17 -9 -46.5 -14.5t-61 -11t-60 -11.5t-43.5 -16v-535h210q-1 -8 4 -30t-5 -49h-508q0 8 -5 26t5 53h209v510q0 25 -17.5 43t-42.5 18q-11 0 -18.5 -2t-15 -4.5t-16 -4.5t-22.5 -2q-11 0 -25.5 3.5t-29.5 9.5t-28 14.5t-22 17.5q7 18 29 32t45 14h449z" />
    <glyph glyph-name="J" unicode="J" horiz-adv-x="647" 
d="M620 635q-17 -18 -24.5 -30.5t-9.5 -21t-1 -13t1 -6.5v-388q0 -61 -29 -101.5t-71 -64.5t-90 -34t-86 -10q-8 0 -29 2.5t-47.5 7t-54.5 12.5t-51.5 18.5t-38.5 25t-15 32.5v222h59l29 -29v-94q0 -37 22.5 -60.5t51.5 -36.5t56.5 -18t36.5 -5q15 0 41 9.5t51.5 26.5
t44 39.5t18.5 48.5v469h-230v70h455q4 -2 6.5 -10t3.5 -18.5t-1 -22t-7 -20.5h-91z" />
    <glyph glyph-name="K" unicode="K" horiz-adv-x="680" 
d="M756 37q-4 -9 -14.5 -15.5t-25 -12.5t-31.5 -11t-32 -9l-290 352q-13 -5 -28 -10.5t-28 -12t-22 -15.5t-9 -22v-187l101 -40v-60h-278l-32 29q22 19 43.5 28t39 21t28.5 34t11 67v494h-120v67l308 8v-47q-9 -5 -22 -8.5t-26.5 -7.5t-27 -9.5t-25.5 -14.5v-185l16 -35
l221 223l-54 54l32 32l224 7v-56l-296 -254z" />
    <glyph glyph-name="L" unicode="L" horiz-adv-x="700" 
d="M778 60q-14 -20 -38 -34t-45 -13l-617 18q12 25 28.5 36.5t35 19.5t39.5 17t43 30v536l-32 26h-82l-46 31l16 57h367l45 -24v-62h-166v-564l39 -38h231q23 0 33.5 7.5t27.5 18.5q7 26 11.5 54.5t9 59t11 62t16.5 62.5h49l24 -32v-268z" />
    <glyph glyph-name="M" unicode="M" horiz-adv-x="778" 
d="M864 52q0 -11 -11 -26.5t-22 -23.5h-251q7 28 18.5 41.5t24.5 20.5t26.5 11t23.5 11t16 21t4 42l-28 471q-1 11 -5 25t-15 25l-169 -456h-51l-192 413v-533q21 -20 52.5 -25t63.5 -16v-51l-254 -12q0 4 -2.5 6.5t-5.5 6.5t-5.5 11t-2.5 20q0 12 11 19.5t24 17t24 24
t12 40.5l15 442q1 18 -8 45t-21.5 53t-24.5 46.5t-18 25.5q4 9 15.5 19t27 18t32.5 12.5t33 2.5q45 -6 74.5 -29t50 -56t33.5 -74.5t25 -83.5t25.5 -83t33.5 -74l168 399h192q6 -5 9.5 -7.5t5.5 -5.5t3 -9.5t1 -19.5q0 -12 -11.5 -21.5t-25.5 -19t-25 -20t-10 -25.5l42 -561
z" />
    <glyph glyph-name="N" unicode="N" horiz-adv-x="677" 
d="M746 669v-640q-35 0 -59.5 -7t-29.5 -7l-396 593q-12 -20 -16.5 -39t-3.5 -42l13 -396q13 -20 27.5 -26.5t30.5 -7.5t32 -0.5t31 -4.5q0 -10 6.5 -26.5t6.5 -36.5h-294v49q10 5 24 15t27 23t21.5 26.5t7.5 26.5l-14 310q-4 23 -5 61.5t-8.5 76t-25 64t-54.5 25.5l29 60
h142l381 -523v423q-25 20 -57 25t-62 15v56l247 -7z" />
    <glyph glyph-name="O" unicode="O" horiz-adv-x="704" 
d="M782 276q0 -53 -34.5 -107.5t-87 -99t-114.5 -73.5t-118 -30q-69 -2 -130.5 28.5t-110 80t-81.5 111t-46 122.5q5 5 8 11t3 17.5t-3 30.5t-8 50q14 104 48 174.5t82 113.5t109 61.5t129 18.5q44 0 105 -23t116.5 -64t94 -98t38.5 -126v-198zM671 375q0 54 -9 111.5
t-36.5 105.5t-79.5 79t-139 31q-69 0 -114.5 -33.5t-72.5 -81.5t-38 -102t-11 -96q0 -49 13 -108.5t43 -110.5t79.5 -85.5t121.5 -35.5q54 0 92.5 17t65.5 45t43.5 64t26 72t12.5 70t3 58z" />
    <glyph glyph-name="P" unicode="P" horiz-adv-x="689" 
d="M765 558q0 -37 -17.5 -82t-45.5 -84t-64 -65t-74 -26h-242v-209l191 -43q2 -7 -2 -17.5t-10.5 -21t-16 -19.5t-19.5 -13h-343l-34 37q25 24 49.5 35t43.5 21.5t30 26.5t10 49l-15 470q-1 44 -16 67t-35 37.5t-42 25.5t-39 32l34 36h383q66 0 117 -20.5t86 -56t53 -82
t18 -98.5zM662 543q1 59 -28 95t-69.5 55.5t-83.5 26t-71 6.5h-100v-302q5 -11 16 -20t24 -16t27.5 -10.5t27.5 -3.5q21 0 63 8.5t85 28t75.5 52t33.5 80.5z" />
    <glyph glyph-name="Q" unicode="Q" horiz-adv-x="647" 
d="M719 455q0 -51 -4.5 -94t-18 -81t-39.5 -72.5t-69 -68.5q-18 -14 -42 -20l-48 -12t-44.5 -17t-30.5 -36l155 -22q19 1 35.5 7.5t31.5 9t30 -4t31 -31.5q-9 -17 -28 -28.5t-40 -18t-38.5 -9t-22.5 -2.5l-186 38q-14 0 -33 -6.5t-41.5 -8.5t-47.5 4t-50 31l77 76
q-68 37 -112.5 82.5t-71 93.5t-37 95.5t-10.5 88.5q0 70 18 138t57.5 121t103 86t154.5 33q101 0 163.5 -37.5t97.5 -93.5t47.5 -121t12.5 -120zM616 539q-7 52 -27.5 93.5t-50.5 70.5t-66 44.5t-74 15.5q-61 0 -104.5 -28t-71.5 -70t-41.5 -91.5t-13.5 -92.5
q0 -26 5.5 -60.5t17 -71.5t30 -73.5t45 -65t61.5 -46t79 -17.5q49 0 92 31.5t73.5 76.5t47 95t11.5 87z" />
    <glyph glyph-name="R" unicode="R" horiz-adv-x="818" 
d="M891 -47l-100 -8l-397 391q-11 -11 -28.5 -12t-34.5 -1v-267q29 -11 63 -18.5t69 -30.5q-6 -9 -21.5 -20.5t-32 -21t-30.5 -16.5t-18 -8h-272v86q29 -2 62 2t59 26v640q-13 11 -28.5 17t-31.5 10l-32 8t-30 10v71h489q56 0 98.5 -21t70.5 -54.5t42 -76t14 -84.5
q0 -48 -11 -79t-34 -56.5t-57.5 -50.5t-82.5 -61l292 -321zM694 575q0 21 -16.5 46.5t-40 47.5t-49 36.5t-42.5 14.5h-223v-289l117 -18q30 2 73.5 11t83.5 27.5t68.5 48.5t28.5 75z" />
    <glyph glyph-name="S" unicode="S" horiz-adv-x="654" 
d="M727 176q0 -37 -23.5 -77.5t-58.5 -74.5t-75.5 -56t-75.5 -22h-421v266q5 0 9.5 2.5t10 6t14.5 6t23 2.5q8 0 16 -14.5t20.5 -36t30.5 -46.5t45.5 -46.5t65.5 -36t90 -14.5q34 0 71 9t67.5 27t50.5 46t20 67q0 52 -22 81t-57.5 45t-81 22.5t-93 12.5t-93 17t-81 35
t-57.5 65.5t-22 109.5q0 75 29 121.5t75 73t101.5 35.5t109.5 9h207q13 0 24 -8.5t19 -21.5t12.5 -27t4.5 -25q0 -22 2.5 -36.5t5 -25t5 -20t2.5 -23.5q0 -28 -12 -47.5t-40 -19.5q-5 0 -27.5 25.5t-56.5 56.5t-76.5 56.5t-86.5 25.5q-40 0 -75.5 -11t-62 -30.5t-41.5 -47
t-15 -60.5q0 -62 29.5 -89.5t76.5 -39t104.5 -15.5t114 -19t105.5 -49.5t78 -107.5q0 -11 2.5 -19l5 -16t5 -17.5t2.5 -23.5z" />
    <glyph glyph-name="T" unicode="T" horiz-adv-x="735" 
d="M735 460q-13 30 -15.5 62t-5.5 65.5t-13 67t-38 66.5h-158v-641h167v-91h-416l-16 61q33 8 74 21.5t86 35.5v600h-214v-246l-104 -15v279q0 24 17.5 40t41.5 25t49.5 12.5t42.5 3.5h539q10 -19 18.5 -45.5t14.5 -53t9 -50t3 -37.5v-160h-82z" />
    <glyph glyph-name="U" unicode="U" horiz-adv-x="809" 
d="M899 787q-33 -25 -49.5 -36t-23.5 -20.5t-7 -23.5v-44v-480q0 -50 -18.5 -88.5t-48.5 -67.5t-66.5 -49t-73 -32t-68 -17.5t-50.5 -5.5t-50.5 5.5t-68 17t-73 29.5t-66.5 44t-49 59.5t-19 76.5v550l-94 64q0 11 12.5 27.5t24.5 21.5h293q2 -34 -10 -51t-29.5 -24t-37 -7
t-33.5 -1v-584q0 -28 28 -52.5t62.5 -42.5t65.5 -28t36 -10q30 0 68.5 13.5t73 38.5t58 59t23.5 74v502q-35 26 -70 42.5t-58 39.5q5 11 17 21t27 17.5t31 12t28 5.5l195 -17q1 -7 4 -13q2 -7 6 -13.5t10 -12.5z" />
    <glyph glyph-name="V" unicode="V" horiz-adv-x="761" 
d="M478 -5l-396 728q1 25 18 38t39.5 19t45.5 6.5t36 0.5q12 0 29.5 -1.5t37 -5t38.5 -10t33 -16.5q-12 -20 -25.5 -33t-26.5 -21t-24.5 -14t-20.5 -12l215 -498l188 492q-8 15 -20.5 23.5t-27.5 14.5t-31 12.5t-31 16.5q0 11 10.5 25.5t20.5 21.5h259v-73z" />
    <glyph glyph-name="W" unicode="W" horiz-adv-x="791" 
d="M879 749q-32 -12 -46.5 -30t-19 -39t-4 -44t-2.5 -45l-59 -486l-48 -137q-39 11 -64.5 56.5t-47 108t-43 132.5t-53.5 129l-175 -426q-20 9 -37.5 35t-31 54t-21.5 51.5t-8 29.5v71l-145 591h275l16 -65q-12 -3 -29 -5.5t-34 -9t-31 -19t-22 -36.5l67 -433l160 397
l193 -382q6 5 10 6.5t6.5 4t3.5 8t1 19.5v117l44 284q-20 26 -53 39t-78 24v51h276v-51z" />
    <glyph glyph-name="X" unicode="X" horiz-adv-x="795" 
d="M606 -50l-16 77q22 -2 43.5 7.5t32.5 25.5l-180 235l-164 -241q12 -12 32.5 -22t43.5 -22v-66h-274q-11 6 -15.5 20.5t-4.5 20.5l312 419l-312 349q0 6 3.5 16t8.5 20t11.5 19.5t12.5 13.5h208l36 -34l-46 -79l164 -211q37 46 66.5 98.5t60.5 100.5q3 11 -2.5 25.5
t-14 31t-15.5 34t-7 33.5h259q1 -5 4 -11q2 -5 6 -10.5t10 -11.5l-313 -384l327 -380v-74h-277z" />
    <glyph glyph-name="Y" unicode="Y" horiz-adv-x="646" 
d="M443 296v-114q5 -6 10 -14t12.5 -16t17 -13.5t21.5 -5.5h93l17 -17q0 -5 -3 -13.5t-7.5 -17.5t-9.5 -17t-10 -13h-347l-30 31q0 10 10 23.5t20 23.5h129v190l-290 407v58h233q4 -20 2 -34t-6.5 -25.5t-10 -21t-9.5 -20.5l126 -224l124 218q-6 21 -24 31.5t-41 30.5
q0 10 10 24t20 22h218v-59z" />
    <glyph glyph-name="Z" unicode="Z" horiz-adv-x="524" 
d="M582 38l-43 -43h-439q-11 11 -21.5 32t-8.5 36l368 572q0 10 -6 15.5t-16 15.5h-239v-168l-49 -29q-10 7 -19.5 13.5t-16 16.5t-9.5 26t0 42l-13 93q5 35 29.5 59t57.5 24h372v-99l-341 -539q0 -10 5 -20.5t30 -10.5h220q12 0 20 4t15.5 9.5t16 12t23.5 11.5v167q0 4 6 7
t16 3.5t21 -1t21 -6.5v-243z" />
    <glyph glyph-name="bracketleft" unicode="[" horiz-adv-x="261" 
d="M286 30q-1 -7 0.5 -16.5t2.5 -20t1 -21.5t-5 -20h-178q-17 7 -29.5 27.5t-12.5 41.5v805h208q0 -9 6.5 -25.5t6.5 -45.5h-102l-34 -23v-702h136z" />
    <glyph glyph-name="backslash" unicode="\" horiz-adv-x="414" 
d="M79 807l28 33l353 -864q0 -5 -3 -15.5t-11 -18.5h-39z" />
    <glyph glyph-name="bracketright" unicode="]" horiz-adv-x="279" 
d="M310 52q1 -40 -15 -61t-38.5 -29t-45.5 -8.5t-36 -0.5q-10 0 -24 2t-27.5 6t-26 9t-20.5 11v44q20 0 34 1t37 1q20 0 33.5 7.5t24.5 24.5v687q-14 10 -22.5 11.5t-17.5 11.5h-89q0 10 -6 30t-6 32h206l27 -69v-99z" />
    <glyph glyph-name="underscore" unicode="_" horiz-adv-x="596" 
d="M653 56q-1 -3 0 -10t2 -15.5t0.5 -17.5t-4.5 -16q-51 1 -120 1.5t-147 0.5t-159 -0.5t-156 -1.5l-22 17v42h606z" />
    <glyph glyph-name="a" unicode="a" horiz-adv-x="657" 
d="M730 -7q-30 -11 -66 -10.5t-67 11.5q6 23 -0.5 43.5t-18 36t-22.5 25.5t-14 13l-66 -24q5 5 16 16.5t22.5 27t20 33.5t7.5 34q-2 54 -22.5 78t-44.5 24q-13 0 -17.5 -4t-7 -9.5t-7 -9.5t-17.5 -4h-81l-77 27l-77 -163q5 -21 23.5 -40.5t42.5 -34t48.5 -23.5t40.5 -9
q11 0 24.5 6t28.5 14t30.5 16.5t30.5 13.5q-10 -10 -19.5 -24t-19.5 -28t-21.5 -28t-26.5 -24l-29 27l-108 -27q-4 4 -5.5 13t-4.5 18.5t-9 16t-19 6.5t-19 -2.5t-9.5 -6t-5.5 -8.5t-7 -10l-74 114q8 31 20 63t30 60.5t43.5 51.5t60.5 35l269 13q5 5 9 8.5t7 8t5 11.5t2 20
q0 25 -16 45.5t-39 34t-48.5 19t-44.5 2.5l-228 -39v64l179 43h168q20 0 44 -16.5t44.5 -38t34 -42.5t13.5 -30v-362q20 2 45.5 -2t48.5 -12v-62zM562 12l-34 17l7 20l36 -18z" />
    <glyph glyph-name="b" unicode="b" horiz-adv-x="696" 
d="M773 269q0 -9 -3.5 -33.5t-11.5 -56t-21 -66t-32.5 -63.5t-45.5 -47.5t-60 -18.5q-13 0 -14 4.5t0 9.5t0 9.5t-14 4.5q-15 0 -30 -5.5t-36.5 -10t-54 -4t-82.5 12.5l-88 21q-4 -2 -12 -8t-19 -11.5t-25.5 -8.5t-31.5 2q1 4 0 8q0 4 -2 8.5t-7 9.5q-11 -11 -10.5 -21.5
t0.5 -29.5h-98v65q24 1 40.5 10.5t27 23t15 28.5t4.5 28l-14 529q3 11 -5 25.5t-20.5 28.5t-26 24.5t-22.5 13.5v64l60 17q47 -10 70 -34t32 -51t8.5 -51t-0.5 -36v-122q10 0 16.5 -6t11.5 -6l216 69q83 -15 138 -43.5t87.5 -70t46 -95t13.5 -117.5zM676 318
q-29 98 -87.5 139t-135.5 41q-31 0 -67.5 -14.5t-67.5 -40.5t-52 -61.5t-21 -77.5q0 -38 11.5 -81.5t37.5 -81t68.5 -62.5t104.5 -25q27 0 58.5 7.5t60 25.5t49.5 49t27 77z" />
    <glyph glyph-name="c" unicode="c" horiz-adv-x="665" 
d="M739 113q-35 -48 -77.5 -80t-86 -51t-84.5 -26.5t-73 -7.5q-58 0 -118 19t-108.5 56.5t-79 94t-30.5 130.5q0 88 25 154.5t71 110.5t112.5 64t148.5 14l207 -14q33 -2 46.5 -10.5t18.5 -25t6 -41t8 -59.5l-32 -91h-51q-9 25 -34 52t-57.5 50t-66 38t-59.5 15
q-60 0 -103.5 -17t-71.5 -47t-41 -72t-13 -92q0 -104 53.5 -164t174.5 -65l281 100z" />
    <glyph glyph-name="d" unicode="d" horiz-adv-x="733" 
d="M692 -58q-9 -2 -22 5t-26 15.5t-25 16t-20 7.5l-197 -73q-90 16 -152.5 44t-101 69.5t-55.5 96t-17 123.5q0 61 17.5 120t54 106t94.5 76.5t139 31.5l207 -59q7 -1 12 2q5 2 8.5 8t3.5 20v165q-8 14 -26.5 20.5t-40.5 18.5h-178l31 84h212q12 0 28.5 -4t32 -10.5t29 -15
t20.5 -17.5v-738q14 -11 27 -19t25 -18t23 -23t19 -34zM612 290q0 25 -16.5 60t-44.5 66.5t-65 54t-77 22.5q-97 0 -153 -61t-79 -179q11 -22 11.5 -33t-10.5 -22q0 -8 14.5 -37.5t37 -62t49.5 -58t52 -25.5h98q21 0 48.5 19t53 44.5t44.5 50.5t22 37q0 27 2.5 44.5t5 31
t5 24.5t2.5 24z" />
    <glyph glyph-name="e" unicode="e" horiz-adv-x="647" 
d="M719 308q0 -23 -13 -42.5t-32 -31.5h-484q0 -7 -1.5 -8.5t-4 -3t-4 -6t-1.5 -17.5q0 -39 31.5 -68t72 -48t79 -27t52.5 -5l287 67q11 -10 14 -24.5t3 -19.5l-248 -118q-20 3 -35 1.5t-38 -1.5q-71 0 -130.5 27t-103 71t-68 99.5t-24.5 113.5q0 79 26.5 133.5t71.5 88
t103.5 48t122.5 14.5q46 0 102.5 -19t105.5 -52t82.5 -77t33.5 -95zM596 323q3 42 -25.5 70t-67 45t-76 24.5t-52.5 7.5q-32 0 -64.5 -8.5t-59.5 -26.5t-46 -45.5t-24 -66.5h415z" />
    <glyph glyph-name="f" unicode="f" horiz-adv-x="554" 
d="M615 662q-16 -15 -36.5 -17.5t-41.5 1t-40.5 8.5t-34.5 5q-22 0 -51 -6t-55 -19t-43.5 -33.5t-17.5 -50.5q0 -11 2 -18t6 -13.5t10.5 -14t16.5 -19.5h232q0 -15 -9 -37t-19 -31h-228v-387h229q9 -10 9.5 -33t-9.5 -42h-443q0 5 -1.5 14t-2.5 19t-0.5 21t5.5 21h78
q11 9 23.5 18t17.5 28v280q0 22 -18.5 35t-42.5 21t-45.5 12t-27.5 8q2 24 15 33.5t31.5 14.5t41.5 11t46 23v111q0 38 30.5 59.5t70 32.5t77.5 14t54 3h156z" />
    <glyph glyph-name="g" unicode="g" horiz-adv-x="675" 
d="M750 501q-34 -14 -53 -27.5t-28 -34t-10.5 -53t-1.5 -83.5v-233q0 -41 -2 -90t-21 -94t-62 -80.5t-124 -51.5l-222 16q-1 9 4 20.5t13 21.5t19.5 16.5t24.5 6.5h158q37 0 62 24t40 54.5t21.5 59t6.5 38.5q0 13 -2 23.5t-4 18.5q-3 9 -6 16q-11 10 -16.5 9.5t-10.5 -0.5
l-176 -54q-63 6 -115.5 30t-90 61t-58 85t-20.5 101q0 38 16 85.5t49 90t84 72t121 29.5l182 -40l94 26h113zM562 315q0 34 -15 67t-42.5 58.5t-66 41t-85.5 15.5q-40 0 -71.5 -21t-53 -49.5t-33 -58t-11.5 -46.5q0 -44 11 -81t33.5 -64t56.5 -42.5t81 -15.5q37 0 72 10.5
t62.5 33.5t44.5 60.5t17 91.5z" />
    <glyph glyph-name="h" unicode="h" horiz-adv-x="692" 
d="M769 43q-1 -23 -17.5 -36t-39 -19t-44.5 -7.5t-34 -1.5q-23 0 -56.5 6t-64.5 26q5 15 16.5 29.5t22.5 28.5t19.5 27.5t8.5 26.5v267q0 23 -23 48t-53 55h-91q-13 0 -29.5 -8.5t-35 -23t-39 -33.5t-40.5 -39v-242q0 -6 7.5 -20.5t19.5 -30.5t26.5 -31t27.5 -21
q0 -5 -3 -14t-7.5 -18.5t-9.5 -18t-10 -12.5h-224v63q11 6 24.5 15t25.5 21t20.5 26t8.5 30v576l-108 56q4 9 14.5 17.5t24 15.5t28.5 11.5t28 4.5q46 0 68.5 -16t31 -39.5t8 -50t-0.5 -48.5v-120l23 -23l172 67q40 4 78 -13t67.5 -44.5t47.5 -60.5t18 -62v-274
q0 -11 9 -22.5t22.5 -23t30.5 -23t32 -21.5z" />
    <glyph glyph-name="i" unicode="i" horiz-adv-x="528" 
d="M267 602v119q3 5 10 10t14.5 9.5t14 7t9.5 2.5l40 -28v-120h-88zM560 -17h-456v63h150q19 22 26.5 49t7.5 51v234q0 15 -6.5 25.5t-16 18t-20.5 11t-20 3.5q-12 0 -15.5 -2t-6 -4.5t-6 -4.5t-15.5 -2q-22 0 -37 11t-42 29v43h271v-424q10 -10 24 -18t24 -21h165z" />
    <glyph glyph-name="j" unicode="j" horiz-adv-x="378" 
d="M365 546q0 -20 -6.5 -31t-6.5 -28q-8 0 -18.5 -2.5t-18.5 -10.5l-50 37v71q8 8 16 17t28 9q9 0 19 -6t18.5 -15.5t13.5 -20.5t5 -20zM420 -110q0 -21 -20.5 -46.5t-48 -48t-54.5 -38t-39 -15.5h-191v64h146q17 0 39.5 12t42.5 31t34 42t14 46v415h-289q12 20 32.5 37.5
t40.5 17.5h257q8 -8 18 -25t18 -34v-458z" />
    <glyph glyph-name="k" unicode="k" horiz-adv-x="696" 
d="M773 22q-11 -10 -13.5 -24t-2.5 -30h-230q-13 15 -16.5 29t-3.5 27.5t1 26t-4 24.5q-6 15 -28 44.5t-49 58.5t-54 51t-45 22q-36 0 -48 -20.5t-12.5 -51t5 -67t4 -69t-15 -56t-51.5 -28.5l-131 18q8 16 19 27t24 20.5t27 19t27 22.5v621q0 25 -10 35.5t-26 15.5t-35.5 10
t-38.5 20v51h160q11 -5 19.5 -18.5t14.5 -30t9 -34.5t3 -32v-332q5 -5 5.5 -7.5t1 -3t5 0t17.5 0.5q41 0 65.5 27.5t42 63.5t31 70t32.5 47h185l32 -35l-277 -216q10 -16 12 -30t13 -22q28 -20 53.5 -45t52 -52t55 -55.5t61.5 -56.5q6 -4 18.5 -6.5t28.5 -5.5t33.5 -8
t33.5 -16z" />
    <glyph glyph-name="l" unicode="l" horiz-adv-x="564" 
d="M627 45q1 -7 -2 -17.5t-9 -21.5t-14.5 -20t-18.5 -12h-506v72h164q11 15 19 17.5t19 13.5v644h-202v88h206q20 0 38.5 -7t32.5 -18.5t22.5 -27t8.5 -32.5v-679h242z" />
    <glyph glyph-name="m" unicode="m" horiz-adv-x="712" 
d="M786 160q0 -14 -8.5 -17t-14.5 -10.5t-3.5 -26.5t24.5 -64v-57h-120v405q0 56 -24.5 79.5t-56.5 23.5q-4 0 -12.5 -1.5t-18 -7.5t-18 -18.5t-12.5 -34.5v-354q0 -11 0.5 -16.5t1 -8.5t0 -5t-2.5 -8v-54h-126v310v53.5t-7 65.5t-24 55.5t-51 23.5q-23 0 -49 -23t-46 -53
v-333l81 -55q-3 -12 -8.5 -23t-17.5 -19.5t-33.5 -14t-55.5 -6.5l-114 31q10 20 28.5 44.5t38.5 54.5v294q0 17 -7.5 34t-18 31.5t-22 26t-19.5 15.5q8 22 45 36.5t81 23.5t84 13t53 4q11 0 25 -8.5t29 -18.5t29 -18.5t25 -8.5q13 0 35 8.5t46 18.5t46 18.5t35 8.5
q12 0 28 -3.5t33.5 -9.5t33.5 -15t27 -20q2 -3 4 -7q2 -3 4.5 -7.5t5.5 -9.5q13 -52 30 -78.5t17 -30.5v-233z" />
    <glyph glyph-name="n" unicode="n" horiz-adv-x="682" 
d="M758 50q-1 -22 -17.5 -35t-39.5 -19.5t-47.5 -8.5t-40.5 -2q-11 0 -27 1t-34 4t-36 9.5t-34 16.5q0 11 7 20t17 18t22.5 18t22.5 19l13 303q0 7 -6 24t-20 35t-36.5 31.5t-55.5 13.5q-23 0 -56 -10t-64 -29t-54.5 -46t-26.5 -61l13 -261q11 -13 29.5 -20t38.5 -5
q0 -5 2 -14t5 -19t5 -19t2 -14h-274q0 21 25.5 46t56.5 46v342q0 11 -9 21t-22 19t-27 16l-24 12v49q20 11 39.5 14t42.5 3q26 0 56.5 -10.5t62.5 -31.5l193 70q13 -4 46 -17t67.5 -33t61 -47.5t26.5 -60.5v-332z" />
    <glyph glyph-name="o" unicode="o" horiz-adv-x="681" 
d="M757 272q0 -70 -32.5 -129t-82 -101.5t-108 -66t-110.5 -23.5q-26 0 -41 7t-36 7q-59 6 -111 36.5t-90.5 74t-61 95t-22.5 100.5q0 70 34.5 126.5t86.5 96t113 61t114 21.5q66 0 128 -23t111 -63.5t78.5 -96.5t29.5 -122zM646 265q0 42 -19 83.5t-50 73.5t-71 52t-82 20
q-34 0 -77.5 -13.5t-82 -41.5t-64.5 -69.5t-26 -97.5q0 -45 20 -87.5t53.5 -75.5t77.5 -53t92 -20q38 0 78.5 20.5t74 53t55 73.5t21.5 82z" />
    <glyph glyph-name="p" unicode="p" horiz-adv-x="747" 
d="M830 283q0 -42 -16.5 -96.5t-53 -105.5t-94 -91t-140.5 -55l-218 76q-7 6 -12 6q-5 1 -8.5 -3.5t-3.5 -18.5v-186q6 -6 10 -13t9.5 -13.5t14 -11t22.5 -4.5h109q2 -8 1 -34t-18 -55h-294q-6 6 -9.5 8t-6 5.5t-3.5 10.5t-1 21q0 13 5.5 23t14 19.5t19 19.5t21.5 24v660
l-120 60q0 12 4 28.5t15 28.5h153q14 0 23.5 -7t16 -15.5t11 -15.5t10.5 -7l212 75q80 -6 141 -37t102 -77t62.5 -103t21.5 -116zM709 283q0 32 -6 71t-27.5 74t-64 58.5t-114.5 23.5q-45 0 -86 -14t-72.5 -41t-50.5 -66.5t-19 -90.5q0 -3 5.5 -23t16 -48.5t24.5 -61t32 -60
t39 -46t44 -18.5h118q41 0 71 28t50 67t30 80t10 67z" />
    <glyph glyph-name="q" unicode="q" horiz-adv-x="644" 
d="M716 487q-8 -18 -27.5 -32.5t-39.5 -24.5q-5 -5 -4 -8t4 -7t6 -10.5t3 -18.5l-1 -566v-53h-258l-29 25q0 10 9.5 23.5t19.5 22.5h146v182l-194 -40q-68 7 -122 30t-91 59t-56.5 84t-19.5 103q0 40 15 86.5t47.5 87.5t83.5 69.5t124 31.5l186 -51q5 0 9 6t9.5 13t13.5 13
t20 6h116zM549 217q0 12 -2 20.5t-4.5 17.5t-4.5 21t-2 31q3 21 -14.5 47t-44 48.5t-56.5 37.5t-51 15q-22 0 -37.5 -5.5t-33.5 -7.5q-39 -3 -64.5 -22.5t-41.5 -46.5t-22.5 -58.5t-6.5 -58.5q0 -31 8 -66t29 -65t57 -49.5t92 -18.5q21 0 54.5 11.5t66 32t55.5 50t23 66.5z
" />
    <glyph glyph-name="r" unicode="r" horiz-adv-x="600" 
d="M667 469q-30 -16 -46 -18t-25.5 1.5t-17.5 9.5t-21 6h-86q-10 0 -37 -17t-55 -39.5t-49.5 -44.5t-21.5 -32v-261l189 9q10 -10 28 -22.5t27 -21.5q-9 -10 -20.5 -22.5t-21.5 -22.5h-415l-29 30q0 10 9.5 23.5t19.5 25.5h90l22 20v341l-36 35l-91 14v58h185
q10 -3 15.5 -11t10.5 -18.5t10.5 -22t14.5 -21.5l216 102q13 1 31 -2t36.5 -8.5t36.5 -13.5t31 -17v-60z" />
    <glyph glyph-name="s" unicode="s" horiz-adv-x="569" 
d="M632 224q0 -54 -26 -89.5t-66 -57t-88 -32.5t-91 -17l-183 41q-5 0 -13 -4t-20 -8.5t-28 -8.5t-36 -4v169l30 32q33 -22 62.5 -46t59 -43.5t61 -32.5t68.5 -13q21 0 68.5 16.5t111.5 45.5v64q-18 8 -34.5 19l-31.5 21t-28.5 16.5t-26.5 6.5h-118q-13 0 -45 12.5t-68 30.5
t-67.5 37t-42.5 32v95q0 23 15.5 41.5t39 32.5t51.5 24.5t54 17.5t46.5 10.5t28.5 4.5l237 -43v-132h-33q-11 0 -25.5 12.5t-37 27.5t-55 27.5t-80.5 12.5q-14 0 -33 -1.5t-38.5 -7t-36.5 -15t-28 -24.5v-52q20 -10 38 -21.5t38 -13.5l163 -14q37 -7 74 -21t67 -34.5
t48.5 -49t18.5 -64.5z" />
    <glyph glyph-name="t" unicode="t" horiz-adv-x="615" 
d="M416 -92q-7 -2 -27 1t-45.5 11t-53 20.5t-50 29t-37.5 37.5t-15 45v373h-109q0 5 -2.5 13t-5 17t-5 17t-2.5 13q36 25 59.5 26.5t38 0.5t20 7t5.5 46v136q9 11 21.5 22.5t23.5 22.5l60 -45v-187h296q0 -10 7 -30t7 -59h-310v-350q0 -11 15 -27t35 -30t40 -23t31 -6
l270 53v-64z" />
    <glyph glyph-name="u" unicode="u" horiz-adv-x="696" 
d="M773 2q-12 1 -33.5 -2t-43.5 -14l-115 43l-205 -57q-15 -4 -50.5 5.5t-72 29t-64.5 46t-28 56.5v353q-9 9 -21.5 17t-26.5 16.5t-27.5 17.5t-24.5 19l9 48h189v-375q0 -37 10.5 -62.5t29 -41.5t43.5 -22.5t54 -6.5q14 0 46 9t64.5 25t57.5 39t25 50v280q-15 10 -32.5 19
t-35.5 18t-34 18.5t-27 19.5q3 10 8 18q5 7 13 12t22 5h185v-437q0 -13 9 -26.5t21.5 -26.5t27.5 -23.5t27 -17.5v-52z" />
    <glyph glyph-name="v" unicode="v" horiz-adv-x="702" 
d="M434 -60l-361 546q0 5 3 14t7.5 18t10.5 17.5t11 12.5h244v-64q-10 -5 -24 -7.5t-28.5 -5.5t-26.5 -8.5t-17 -15.5l188 -355l159 341q-11 20 -36 30.5t-45 21.5v61h261z" />
    <glyph glyph-name="w" unicode="w" horiz-adv-x="708" 
d="M595 -37h-48l-118 242l-121 -257l-236 533v57l213 7q5 -30 -0.5 -44t-15.5 -24.5t-23.5 -23t-25.5 -39.5l78 -250q27 7 41.5 24.5t21.5 40t10.5 48.5t9 51t16.5 46t34 33l120 -256l115 301l-107 40v52l134 12q23 0 48.5 -10t45.5 -21z" />
    <glyph glyph-name="x" unicode="x" horiz-adv-x="617" 
d="M685 8q-30 -3 -63.5 -7t-65.5 -5.5t-59 0.5t-45 10q-2 13 -1 20.5t5.5 13.5t12 13t19.5 19l-117 117l-105 -106q5 -9 11 -21t11 -23.5t9 -22t4 -18.5h-232l246 247l-234 261h208l-11 -81l94 -100q34 15 63 42t53 62l-36 36v42h208v-55l-221 -189z" />
    <glyph glyph-name="y" unicode="y" horiz-adv-x="676" 
d="M397 -159q29 -20 57 -33.5t48 -33.5q-2 -9 -7 -16t-12.5 -11.5t-19.5 -4.5h-327v74h146l102 201l-290 439q0 34 36.5 48t88.5 14q20 0 51 -5t60 -25q0 -10 -6 -18.5t-14.5 -17t-17.5 -18t-14 -21.5l152 -290l151 283q-5 9 -14.5 20t-20 23.5t-19 25.5t-11.5 26l124 30
q27 0 59 -9t52 -21v-45z" />
    <glyph glyph-name="z" unicode="z" horiz-adv-x="523" 
d="M581 108q2 -11 -10.5 -31t-31.5 -40h-443l-15 46l334 416h-211q-21 0 -31 -13.5t-16 -32t-11.5 -38.5t-18.5 -32q-9 3 -19.5 10.5t-19 17t-14.5 20.5t-6 22q0 12 2 20.5t4.5 18t4.5 22t2 31.5l30 29h415l42 -57l-334 -403h235q17 23 25 53t27 61l46 -15z" />
    <glyph glyph-name="nonbreakingspace" unicode="&#xa0;" 
 />
    <glyph glyph-name="exclamdown" unicode="&#xa1;" horiz-adv-x="1093" 
d="M1160 611q0 -6 -10.5 -13t-15.5 -7q-11 0 -14.5 4.5t-3.5 11.5q0 17 10.5 22.5t19.5 12.5l14 -7v-24zM486 539q0 -10 -4.5 -15.5t-10 -8t-10.5 -3t-6 -0.5q-5 0 -11.5 3.5t-7.5 14.5l32 51q8 1 13 -15t5 -27zM1207 664l-49 31h-15q-4 0 -14 -6.5t-20.5 -15t-19 -16.5
t-10.5 -11q-7 -11 -12.5 -25.5t-10.5 -28.5q0 -5 -1.5 -5.5t-1.5 -6.5q0 -11 8 -20.5t19.5 -16.5t23.5 -11t20 -4q17 0 28 8t19 18.5t16 22t20 17.5q2 -2 3 -3.5t1 -7.5q0 -19 -12 -33t-26 -24.5t-26 -17t-12 -10.5v-74h-31l-72 123q-38 -28 -78.5 -62.5t-82.5 -60.5
q-27 -16 -46 -37t-35 -45t-31.5 -50.5t-36.5 -54.5q-1 -1 -7 -8t-13 -15.5t-13 -16.5t-6 -11t4 -13t10 -21t12 -19.5t10 -9.5l109 57q7 -4 14 -13t11 -15l-504 -260l-80 54v12q11 0 20 4.5t19 8.5l29 -25l105 40l-24 48l-37 -22h-10l-132 -38l-17 -5l-29 -1q-2 0 -8 1t-12 3
t-11 4t-7 5l-43 -12l-30 -4l-35 52q4 5 12.5 9.5t14.5 4.5q5 0 14.5 -11t17.5 -21l14 9q-39 51 -39 91q1 29 26.5 57.5t55.5 54.5q2 2 3 14t5 23q3 8 8 18t9.5 19.5t7.5 17t3 10.5q0 10 -11.5 10t-22.5 2q-10 2 -28 8t-35 16t-30 24t-13 30q0 36 28 67t65.5 55t74 41.5
t52.5 27.5l8 -8l-116 -93q1 2 2 3q0 3 -4 3q-6 0 -7.5 -4.5t-2.5 -6.5q-10 1 -21.5 -7t-22 -20t-17.5 -25.5t-7 -24.5q0 -9 6 -18t14.5 -16.5t17.5 -12t14 -4.5q6 0 6 3.5v5.5l56 -22l20 7l81 -19l191 35q31 11 67 22t72 28t68 42t56 65q7 11 14 24.5t7 20.5q0 6 -1.5 9.5
t-1.5 11.5q-1 14 -14 25.5t-31 20t-36 12.5t-29 3l-74 -6q-6 -1 -10 2t-6 6l8 17q11 -10 24 -5t20 5l77 -3q18 -3 38 -12t37.5 -23t28.5 -32t10 -38q29 5 61 17t61 27q8 4 21 7.5t21 14.5q15 23 34 52.5t37.5 59t34 56t23.5 42.5h53v-93v-28q2 -3 9 -7.5t14.5 -9.5t14.5 -12
t9 -16zM336 594l-14 8q1 2 8 8t17 12t20.5 11t19.5 5h16l8 -8zM634 154l-176 -98v-11l23 -39l189 97z" />
    <glyph glyph-name="cent" unicode="&#xa2;" horiz-adv-x="617" 
d="M425 61v-80l-30 -31q-14 13 -21 26.5t-11 27.5t-7 28t-11 28q-62 39 -105.5 67t-73.5 50.5t-47.5 43t-26.5 45t-11.5 55.5t-2.5 75q0 35 -3.5 53t2.5 36.5t27 47t70 85.5q14 17 34.5 28t42.5 20.5t43.5 18t37.5 20.5q6 5 13 28t7 54q27 -17 50.5 -38t48 -39.5t53.5 -31
t67 -12.5q23 0 51.5 3.5t48.5 -6.5v-184q-11 0 -23.5 -7.5t-17.5 -7.5l-156 136h-50v-408h78l121 81h47q4 -6 8 -13q3 -6 5 -12t2 -11zM343 584h-56q-23 -5 -41.5 -32t-32 -60.5t-20.5 -66.5t-7 -49q0 -6 5.5 -35.5t20 -62.5t39 -59t63.5 -26q13 0 19 2.5t8 6.5q3 3 2 8v374
z" />
    <glyph glyph-name="sterling" unicode="&#xa3;" horiz-adv-x="294" 
d="M326 236q1 -5 -0.5 -15.5t-6.5 -22t-13.5 -21t-20.5 -11.5l-20 8l-11 -100q0 -16 2 -24.5t8.5 -16t17.5 -19t29 -34.5v-10h-96q-13 0 -16.5 11.5t-2.5 25t3.5 25l2.5 11.5l-7 210q-6 -5 -15 -19t-9 -20v-171q0 -8 4 -10.5t3 -4.5q-2 -6 -9 -23t-17.5 -35t-23 -32
t-26.5 -14q-6 0 -10.5 4t-10.5 9l30 167l4 62q1 11 -11 11q-8 0 -9.5 -1.5t-3.5 -1.5l-29 42v272q0 2 1.5 10.5t6 17.5t11.5 16t17 8l48 3l7 6l-64 120v95q0 11 10.5 27.5t25.5 32t32 26.5t30 10l51 -4q3 0 14.5 -7t24.5 -16.5t23.5 -20t10.5 -17.5v-109l-72 -129
q11 -12 23.5 -14.5t23.5 -5t18 -10t7 -30.5v-201zM275 795q0 12 -7 19.5t-17.5 12t-22.5 6t-21 1.5q-3 0 -18 -3.5t-31.5 -10.5t-29.5 -18t-13 -27v-73h43q8 0 22 -6.5t14 -18.5q0 -10 -6 -18t-14.5 -13t-17 -7.5t-14.5 -1.5q0 -3 1.5 -9t1.5 -11q2 -15 15 -33t30 -18
q4 0 11.5 2.5t15.5 6.5t14.5 9t9.5 9q7 11 13 18.5t10 13.5l10 10v13l-22 -3q-11 0 -25 8.5t-14 19.5q0 10 8.5 17t19 11.5t20.5 7t14 5.5v81zM175 544q8 -7 19.5 -9t18.5 9h-38zM301 249q-10 -5 -18.5 -9.5t-16.5 -2.5v-13q10 -9 9.5 -19t6.5 -16q3 0 8.5 2t10.5 2v56z
M296 477q0 15 -4.5 24.5t-12 14.5t-16.5 7.5t-16 4.5l-37 -23q0 -9 -0.5 -25t-0.5 -36v-41.5t1 -41.5q0 -4 -8 -15t-14 -14l-7 3v41v22v95q0 7 -8 19t-19 12h-53q-6 -5 -10 -14t-6 -17l-4 -110l9 -119l6 9t4 12l4 132q0 9 7 21.5t20 14.5l10 -10l-11 -343v-16l21 -43l2 184
l4 9.5t10.5 20t14.5 19.5t16 9q7 0 6 -1.5t2 -3.5l4 -3q9 -9 10.5 -12t-1 -4t-6 -1.5t-3.5 -3.5v-147l20 -62l24 398q3 2 7 6t6 4q11 -3 12 -13t2 -12l-11 -164q32 13 22 33zM82 241l-5 -25q6 -3 10.5 -8t6.5 -8q6 5 8 17.5t5 23.5h-25zM273 -13q-8 14 -21 23t-18 9
q-4 0 -10 -8t-7 -14q3 -2 6 -3.5t6 -6.5h44zM149 17q-2 3 -12 4q-5 1 -10 1l-23 -75q23 17 31.5 36.5t13.5 33.5z" />
    <glyph glyph-name="section" unicode="&#xa7;" horiz-adv-x="580" 
d="M644 328q-13 -31 -27.5 -73t-43.5 -93v-116q0 -22 -28.5 -41.5t-63 -34.5t-64.5 -24t-34 -9l-123 -12q-11 0 -34.5 0.5t-47.5 5.5t-44 17t-25 35l27 104q5 -1 16.5 -7t22.5 -16.5t16.5 -25t-1.5 -33.5h203q9 0 22 10.5t25.5 24.5t21 29t8.5 25q0 34 -30 60t-75.5 50
t-98 48t-98 54t-75.5 67t-30 87q0 29 1.5 44t8 27.5t21 28.5t39.5 47v90q0 28 21 52.5t51.5 42.5t63.5 28.5t57 10.5h245v-148h-54q5 16 -4 33.5t-17 34.5h-170q-7 0 -23 -5t-32.5 -14t-30 -23t-15.5 -32zM551 318l-355 224q-17 -18 -30 -45.5t-22 -49.5l353 -219
q18 0 32.5 13.5t21.5 24.5v52z" />
    <glyph glyph-name="ordfeminine" unicode="&#xaa;" 
d="M376 400l-6 -48l-16 -29v-17l-30 -49l-6 -286l28 -40q-1 -6 -12 -10t-15 -4l-15 1q-7 1 -17 3t-17 16q-1 0 -2.5 -1.5t-3.5 -1.5q-6 0 -9.5 4.5t-5.5 10t-2.5 11t-1.5 8.5l-22 242l-2 -18l-13 -181l-8 -53q-1 -4 -1.5 -9.5t-2 -10t-4.5 -8t-9 -2.5l-7 1q-6 -3 -12 -8.5
t-14 -5.5h-27l-26 5v9l29 36l-4 254l4 52q-20 14 -24.5 19.5t-4.5 20.5v14q-9 3 -13.5 9.5t-6.5 15t-3.5 18t-3.5 17.5l-10 81l16 202q2 5 2.5 12.5t4.5 9.5q18 12 47.5 18t55.5 19l-7 74q0 5 -3.5 8t-8 6t-8 5.5t-3.5 5.5q0 5 6.5 7t8.5 2h9q5 5 7.5 13.5t5 16.5t7 14
t12.5 6q5 0 10 -5l11 3q10 -2 17.5 -15t9.5 -22q1 -4 1.5 -8.5t2.5 -13.5l7.5 -5t7.5 -3q5 0 8 -2q-2 -8 -11 -9.5t-14 -3.5q-1 -5 0 -6.5t0 -6.5l-14 -57q18 -14 44.5 -20.5t56.5 -23.5q3 -2 5 -9t4 -13q4 -16 7.5 -32t7.5 -33l6 -68zM255 846l-9 -1l-22 16v-14
q6 0 11.5 -1.5t6.5 -5.5q-12 0 -13 -2q0 -6 2 -7l24 -5v20zM225 826l-14 -6l56 -5zM254 802h-8q9 -5 3.5 -11t-10.5 -6t-9.5 3t-9.5 8l-2 -21q5 2 9 -1v-4q-1 -2 -3 -3.5t-3 -3.5h9q3 -1 3 -2v-1l-8.5 -8.5t-11.5 -8.5q5 -6 9 -6h13zM277 697h-3v-9h3v9zM248 724
q-2 2 -4.5 3.5t-2.5 4.5t1 4t1 3l-35 -25l5.5 -5.5t5.5 -3.5l14 18l2 -3l-11 -19l9 -21zM221 686v-10l5 -15q0 1 1.5 2.5t1.5 3.5zM362 611q-4 18 -6.5 36.5t-10.5 33.5q-4 7 -12 7.5t-13 2.5q-10 4 -22 7.5t-20 6.5q14 -10 35 -17.5t34 -18.5v-41l-7 -32l13 22
q2 -2 -2 -2.5t-4 -3.5v-178l13 60q4 -5 4 -12l-24 -145h8q9 0 10.5 7t3.5 13l8 152zM218 620q1 9 -1 14.5t-4.5 10t-5 8.5t-2.5 10q0 3 0.5 4.5t0.5 3.5q1 6 0.5 7.5t-2 2t-3 2t-1.5 6.5q0 3 3 7t7 7q-3 2 -4.5 5.5t-4.5 3.5q-7 0 -7 -6l3 -30q4 -42 17 -74.5t32 -73.5z
M249 525l-2 -1l2 -4h2zM345 329h-13v-6q5 0 6 -1v-4l-9 -13h16v24zM126 332h-3v-6h3v6zM335 -58q-20 5 -24.5 21t-8.5 29l-5 81q0 4 2 6l13 -54v291q-9 -1 -20 0l-3 -26v-312l5 -24h17v-6q-1 -2 -3 -4t-3 -4l1 2h3h19l7 -8v8zM177 -14l-5 16l14 63l10 72l-56 -167v-12h31
q8 0 13 -5l11 56v15l6 42zM134 -58h-15l25 -10q1 0 2.5 2.5t1.5 3.5z" />
    <glyph glyph-name="degree" unicode="&#xb0;" horiz-adv-x="344" 
d="M382 680q0 -45 -16 -75.5t-40 -49.5t-52 -27t-52 -8q-21 0 -49 9.5t-52.5 26t-41.5 39t-17 49.5v72q0 30 19.5 51.5t45.5 35t53 20t42 6.5q38 0 68 -12.5t50.5 -33t31 -47.5t10.5 -56zM318 680q0 8 -4 20.5t-14.5 25.5t-28 24t-43.5 15q-7 1 -23.5 -4.5t-34 -16t-31 -24
t-13.5 -29.5q0 -4 4.5 -21.5t15.5 -37t30.5 -34.5t50.5 -14q22 1 39 12.5t28.5 27t17.5 31.5t6 25z" />
    <glyph glyph-name="plusminus" unicode="&#xb1;" horiz-adv-x="473" 
d="M515 407q0 -8 -8.5 -25.5t-16.5 -24.5h-143q-7 -30 -11 -55.5t-8.5 -46t-10.5 -35t-18 -21.5q-33 13 -38.5 30.5t-3 37.5t3 43t-19.5 47h-168v73h157l19 21v63q0 19 3 37.5t11 35.5h51l33 -157h131zM526 118q0 -8 -8.5 -20.5t-16.5 -20.5h-404l-37 26q7 13 16.5 22.5
t19 16t17 9.5t10.5 3h330q19 0 37.5 -9.5t35.5 -26.5z" />
    <glyph glyph-name="twosuperior" unicode="&#xb2;" horiz-adv-x="292" 
d="M324 673q0 -17 -11 -34.5t-27 -34.5t-35 -33.5t-35 -30.5l20 -15q11 8 22.5 15t19.5 15l39 -7l6 -60q-8 -7 -16 -10t-16 -10h-221v45l185 162q0 11 -9 20l-17 17l-58 -20q-7 4 -14.5 3t-14.5 -3t-14 -3t-15 3l-31 -19q-4 0 -6 3q-3 2 -5 7t-2 14q0 14 15.5 27t36 23.5
t42 17t33.5 6.5q22 0 45 -6.5t41.5 -19t30 -31t11.5 -41.5z" />
    <glyph glyph-name="threesuperior" unicode="&#xb3;" horiz-adv-x="298" 
d="M331 604q0 -25 -12 -43t-31 -29.5t-43 -17t-49 -6.5l-114 21q0 7 -5 21.5t-5 22.5q7 3 17.5 2.5t21.5 -3t22.5 -5t20.5 -2.5h84q8 6 16.5 13.5t8.5 25.5q0 15 -11 23t-26.5 12.5t-31.5 8t-26 7.5q8 15 18 22t21 14t23 15.5t24 26.5q-13 14 -31.5 25t-30.5 9l-90 -18
q-1 23 10 36t26.5 20t31.5 8.5t26 1.5h27t20.5 -3.5t25.5 -12t42 -25.5v-80q0 -5 3 -18.5t7 -28.5t7 -27.5t3 -15.5z" />
    <glyph glyph-name="paragraph" unicode="&#xb6;" horiz-adv-x="574" 
d="M638 781q-9 -5 -24 -8t-31.5 -6.5t-31.5 -8.5t-22 -15v-712l95 -39v-41h-123l-42 36v744q-8 12 -21 23t-37 11t-37.5 -7.5t-33.5 -27.5l13 -663q5 -15 5 -30t-1.5 -30t-4 -28.5t-2.5 -25.5h-150q17 29 33 41.5t29 20.5t20.5 17.5t6.5 33.5l-11 304q-64 23 -100.5 44.5
t-54.5 48.5t-22 63.5t-4 90.5q0 37 6 76.5t26.5 72t60 53.5t107.5 21h336z" />
    <glyph glyph-name="ordmasculine" unicode="&#xba;" horiz-adv-x="646" 
d="M675 517l-6 -36l-4 -122l14 -77l-12 -48l-5 -63q-1 -10 -5 -18.5t-9 -21.5q-13 -39 -44 -70.5t-66.5 -57t-69 -45t-51.5 -34.5q-5 3 -7 13l24 25q-6 20 -23.5 33t-31.5 21q-5 3 -10 9t-9.5 13.5t-9 14.5t-8.5 10q-12 10 -19 18t-10.5 15.5t-6 15t-7.5 16.5
q-6 11 -11.5 28.5t-13.5 32.5v10q0 1 -1 3l-2 4l-16 56v6l-2 28q-4 14 -5 29.5t-9 26.5q-12 20 -27 43.5t-24 35.5q-1 2 -7.5 7.5t-14 11.5t-15.5 12.5t-13 10.5q-2 2 -6 3t-7 3q-18 13 -33.5 34.5t-21.5 41.5l2 19q1 10 8 14t13 4q3 0 9 -1.5t9 -3.5q10 -8 20 -19t23 -21
q6 -4 16.5 -10t22 -13t22.5 -14.5t18 -15.5q9 -9 14 -17.5t8.5 -15t6.5 -10t9 -3.5q-15 26 -18.5 50.5t-14.5 48.5q-3 7 -11.5 22t-19.5 32.5t-22.5 35.5t-20.5 30q-16 21 -25.5 34t-14.5 22.5t-6.5 18t-1.5 19.5q0 17 4.5 22.5t23.5 20.5l29 -22q2 5 0.5 7t-1.5 6v8
q0 6 2.5 14t8 15.5t13 12.5t16.5 5q2 0 6.5 -5.5t9 -13t9 -13.5t5.5 -8q14 -13 34 -31.5t40 -38.5t36.5 -41.5t23.5 -42.5q8 -23 20 -49t26 -52l-7 68q-13 29 -26.5 55t-25.5 49q-2 2 -13 10.5t-21 18.5q-6 6 -13.5 15t-14 19.5t-11 21.5t-4.5 19v16q0 5 4 9t9.5 7t10.5 5
t7 2q4 0 22.5 -16t40 -36t40.5 -39t24 -25q10 -14 22 -33t22 -40q14 -28 20.5 -50.5t11.5 -43t12 -42.5t21 -51q4 -8 6.5 -19t6.5 -21l25 67l5 31q2 13 7.5 28t15.5 29t24 24t33 12l18 2q24 0 24 -20zM552 338q-1 16 -8 29.5t-18 24t-24 17.5t-26 9l-21 3h-26
q-7 0 -18.5 -4.5t-22 -11t-19.5 -14t-12 -12.5q-9 -17 -13 -35q0 -1 0.5 -2.5t-0.5 -3.5q2 -8 5.5 -14.5t11.5 -6.5q4 0 14 7.5t10 14.5v25q0 8 7 14.5t16 11.5t18 8t14 3q10 0 17.5 -7t13 -16.5t8 -18.5t2.5 -13l1 -56q-3 -26 -13 -39.5t-21.5 -23t-20 -21t-7.5 -32.5
l1 -23q2 -4 3.5 -8t5.5 -7h22q2 0 10.5 5t8.5 10v48q0 5 9.5 12.5t22 17.5t25 22.5t18.5 26.5q3 7 4.5 15.5t2.5 16.5zM482 68q0 9 -9.5 23.5t-24.5 14.5q-11 0 -25.5 -12.5t-14.5 -29.5q0 -15 12 -25.5t26 -10.5q13 0 24.5 14.5t11.5 25.5z" />
    <glyph glyph-name="onequarter" unicode="&#xbc;" horiz-adv-x="464" 
d="M266 470v246q-10 6 -22.5 10.5t-25.5 9t-24.5 10t-18.5 12.5l106 73q11 0 21.5 -7.5t15.5 -15.5v-338h-52zM516 377q-79 1 -136 2t-107.5 1.5t-102.5 1t-122 1.5q7 14 26.5 25t37.5 11h383q8 -8 14.5 -19.5t6.5 -22.5zM429 79q-15 -8 -30 -9.5t-39 -6.5v-39
q15 -7 33.5 -17t26.5 -25q-8 -7 -12.5 -15t-23.5 -8h-118l-23 24q6 14 25.5 23.5t34.5 18.5v25l-18 17h-146l-33 24l189 239h65v-206l69 -10v-35zM291 128q0 11 1 24.5t1.5 28t-0.5 28.5t-5 24l-83 -105h86z" />
    <glyph glyph-name="onehalf" unicode="&#xbd;" horiz-adv-x="440" 
d="M237 398v267q-16 -6 -42.5 -5t-40.5 9q5 9 19 23.5t30 27.5t31 22.5t21 9.5q18 0 26.5 -7.5t13.5 -15.5v-331h-58zM489 342q0 -2 -1.5 -8.5t-5.5 -14t-10 -13.5t-15 -6l-416 -9l-22 22q0 8 8 17t15 12h447zM423 151q2 -41 -19.5 -68t-53 -48t-67 -40t-62.5 -44l121 -7
q8 -2 19.5 6t26.5 22h34v-63l-21 -22h-282l-32 24l278 231q-3 6 -9.5 17.5t-17.5 22t-28.5 17.5t-43.5 5l-138 -58q-4 0 -6 3q-3 2 -5 7t-2 14q0 25 21.5 41t48.5 25t52 12.5t32 3.5q15 0 41 -1.5t50.5 -11t43 -30t19.5 -58.5z" />
    <glyph glyph-name="quoteleft" unicode="&#x2018;" horiz-adv-x="188" 
d="M198 626q0 -11 -2 -29.5t-6 -38.5t-11 -39t-18 -30h-50l-35 260q2 23 8 37t15.5 22t20.5 10.5t22 2.5q21 0 34.5 -11t20.5 -24.5t9.5 -26.5t2.5 -16z" />
    <glyph glyph-name="quoteright" unicode="&#x2019;" horiz-adv-x="188" 
d="M198 626q0 -11 -2 -29.5t-6 -38.5t-11 -39t-18 -30h-50l-35 260q2 23 8 37t15.5 22t20.5 10.5t22 2.5q21 0 34.5 -11t20.5 -24.5t9.5 -26.5t2.5 -16z" />
    <glyph glyph-name="quotedblleft" unicode="&#x201c;" horiz-adv-x="387" 
d="M409 558q-8 -7 -18 -21t-30 -14q-10 0 -16.5 2t-12 9t-10 20.5t-9.5 37.5l-10 181q-2 8 7 25t17 33h80q8 -16 15.5 -29.5t7.5 -33.5zM161 524h-48l-44 206v89q7 4 23 6t34 2t34.5 -2t24.5 -6v-260z" />
    <glyph glyph-name="quotedblright" unicode="&#x201d;" horiz-adv-x="387" 
d="M409 558q-8 -7 -18 -21t-30 -14q-10 0 -16.5 2t-12 9t-10 20.5t-9.5 37.5l-10 181q-2 8 7 25t17 33h80q8 -16 15.5 -29.5t7.5 -33.5zM161 524h-48l-44 206v89q7 4 23 6t34 2t34.5 -2t24.5 -6v-260z" />
    <glyph glyph-name="bullet" unicode="&#x2022;" horiz-adv-x="1350" 
d="M1500 390q-45 -63 -114.5 -118t-149 -100t-162.5 -79t-155 -54l-129 -17l-96 8q-25 2 -80.5 18.5t-123.5 43t-141 60.5t-133 71.5t-98.5 76t-38.5 73.5q0 12 24 29.5t61.5 37t82.5 40.5t87.5 40.5t77 36t49.5 28.5q12 9 24 23.5t24.5 30.5t25 31t25.5 26t36.5 23t51 22.5
t55.5 17.5t49 7l75 -9q30 0 57 -18t51 -42t45 -46.5t39 -31.5q91 -46 152 -73t102 -43t68 -25t50 -19t47.5 -25t61.5 -44zM980 537q-6 6 -9 14l-2 8l-143 -33l-231 -16v0q-15 0 -41 7t-70 7q6 -7 11.5 -15t5.5 -15l235 -26zM1071 526l-294 -107q-26 0 -56.5 0.5t-61.5 3
t-60 7t-53 13.5l-120 58l-281 -144q22 -12 44 -28t43.5 -31.5t42 -28.5t38.5 -21q67 -28 131 -38.5t126 -22.5q48 -9 101 -12t107 -1.5t106.5 7.5t99.5 15q57 5 110.5 18.5t106.5 37t106.5 57.5t110.5 81z" />
    <glyph glyph-name="trademark" unicode="&#x2122;" horiz-adv-x="1087" 
d="M1208 -19q-5 -8 -9.5 -18.5t-18.5 -9.5l-447 17l-656 -10v18l557 863h45zM649 765l-190 -324l208 47l186 -40zM730 417q5 -11 12.5 -18.5t7.5 -19.5v-74l-34 -59q23 7 52 18t56.5 25.5t49 32.5t28.5 39zM941 321q-6 -17 -39 -42t-75 -48t-84.5 -39.5t-66.5 -16.5h-130
l-189 97l-121 -231q0 -4 5 -12q1 -4 4 -7l224 14l642 -17zM583 233q-9 7 -21.5 20t-24 28t-20 30.5t-10.5 26.5l12 45l-109 -87z" />
    <glyph glyph-name="infinity" unicode="&#x221e;" horiz-adv-x="583" 
d="M648 65q0 -4 -3 -6t-5 -4q-1 -5 1.5 -11t4.5 -14q2 -11 -6 -21q-5 -7 -15 -13.5t-19 -17.5q-1 -2 -7 -11t-14 -19.5t-17 -18.5t-17 -7l-66 5q-3 3 -7 10.5t-4 12.5q0 4 10 8.5t22 10t22 13.5t10 21q0 4 -3 4.5t-5 3.5q-1 2 0 5t1 7v17q-5 9 -16 13l-9 -14l-43 62
q-2 -1 -2.5 -4t-2.5 -7h-13q-1 7 -2.5 15.5t-4.5 16.5q-2 5 -13.5 10.5t-11.5 16.5v28l-36 82l-13 52l-43 -70v-13l-5 -7h-9v20v1h-4q-2 0 -14.5 -9t-17.5 -17q-2 -4 -3.5 -12.5t-1.5 -13.5l13 -50q-2 -2 -2 -2.5t-4 -0.5t-8.5 6t-8.5 11q-2 -2 -1.5 -3t-1.5 -3v-26l18 -58
q-2 -6 -5.5 -8.5t-5.5 -7.5l19 -69q-1 -2 -4 -4t-7 -4v-12q0 -2 1 -5t1 -6t-3.5 -5t-12.5 -3l-27 -2l-30 6l-80 -17h-35q-4 0 -8 3.5t-7 8t-4.5 8.5l-1.5 4q0 6 8 17.5t13 11.5h22l47 26h-28l24 35q-2 3 -6 3.5t-7 2.5v11l13 31v9l-2 39q-2 2 -17 2l-3 8l29 70l-4 6
q-3 -5 -10 -5q-4 0 -6.5 3t-4.5 6l69 85l-16 4q8 9 21 21.5t25.5 27.5t22.5 31t11 31l-2 27l-3 -4h-10q-2 2 -2.5 5t-0.5 4l11 40l-23 50v-1q-1 -1 -4 -1q-4 0 -6 4.5t-2 6.5l9 46q2 6 1 13.5t-2 13.5l8 30v33h-29q-2 5 -0.5 13.5t-0.5 14.5q-3 8 -10 17.5t-7 14.5v14
q0 5 1 3t1 2t-2 13.5t-1 17.5q-2 1 -5 3.5t-3 6.5t4.5 15t11.5 15q8 4 18.5 8t20.5 7.5t18 5.5t10 2l22 -2q12 -1 21 -7t15.5 -14.5t11.5 -17t10 -15.5l-5 -10l-11 6v1q-1 0 -1 -4q0 -11 5 -22.5t13 -25.5q3 -5 12.5 -8.5t17.5 -7.5q2 -9 12 -18t21 -17t20 -13.5t9 -7.5
q0 -4 -1.5 -8.5t-4.5 -4.5q-5 0 -3 1t-3 1t-4.5 -1t-4.5 -3v-6l54 -95v-7q-2 0 -5 -1.5t-5 -1.5l-12 9v-46q0 -4 4.5 -8t8.5 -9l-24 -71l7 -42l55 -88q-4 -4 -5 -5.5t-8 -5.5q20 -23 31.5 -42t16.5 -42l-15 -11q12 -17 35 -41.5t36 -50.5q2 -4 16.5 -9t24.5 -11
q5 -3 11.5 -9.5t6.5 -10.5zM283 785l-20 -6q-5 2 -10.5 4t-10.5 6v8q10 5 19.5 9.5t17.5 6.5l-23 12l-47 -28q9 2 15.5 -2t10.5 -10t5 -13t0 -11l18 5l13 -11l-7 -20h17l-2 12q0 7 3.5 11.5t3.5 8.5zM235 736q-4 9 -6.5 15.5t-2.5 11.5l-14 -1l13 -32l7 4q4 -4 14.5 0
t12.5 6zM253 719v-6h16q5 0 6.5 2t3.5 4h-26zM304 345q-4 2 -7 6.5l-5 7.5l-24 -44q2 5 10 9l6 -2l-6 -48q2 0 5 1t5 1v12v13zM625 46q-4 -2 -13 -2q-5 0 -8.5 1t-5.5 1l-3 -11q-2 -5 1.5 -11.5t-1.5 -12.5l-35 19q-1 -9 -5.5 -21t-11.5 -23.5t-17 -20t-23 -10.5v-17
q2 0 4.5 -1t12.5 -1q-6 7 -5 11.5t5.5 7.5t10 4t8.5 1q8 0 8 -7l-16 -9v-10l19 2l83 82zM255 -21q-2 5 -3 10t-9 11q-5 -6 -7 -14t-9 -8l-33 30q-2 -5 -2.5 -13.5t-9.5 -8.5l-14 14l-94 -52q4 -3 7.5 -6t5.5 -2l31 22h12q4 -4 4 -5q-6 -5 -14 -8.5t-10 -8.5h18l69 16
q4 0 13 -1.5t18.5 -2.5t18 -0.5t10.5 4.5z" />
    <glyph glyph-name="apple" horiz-adv-x="894" 
d="M890 325q0 -1 0.5 0t0.5 2q-2 -6 -2 -13l-2 -11q-2 -11 -13 -12l-12 -2q-3 -1 -6 -1q-1 -3 -1 -8q-1 -4 -2 -9t-3 -11v-1l-9 -51l-20 -104l-8 -14q-2 -4 -3.5 -4t-6.5 -1l-34 -2h-1q-5 0 -10.5 0.5t-11.5 3.5q-8 5 -8 14v3v-2l3 16q2 10 3 15.5t2 7.5q0 3 1 3l18 101
q2 8 3 15t2 13t2 11h-3h-5v-6q-1 -1 -1 -2l-4 -14q-2 -7 -12 -9q-23 -4 -28 -4.5t-6 -0.5q-8 0 -16 5q-1 -4 -1.5 -10t-2.5 -12q2 1 6 1h3l17 1q1 1 2 1h1l19 -2q9 0 12 -8q4 -5 0 -15q-3 -5 -5 -14l-2 -9q-1 -17 -9 -28.5t-19 -19t-24 -10.5t-24 -3q-20 0 -38 9h-1l-7 7
l-1 1q-3 2 -9 8l-1 -8q-1 -5 -9 -11l3 2l-1 -1q-4 -4 -11 -4h-53q1 -8 2 -16.5t1 -17.5q5 -2 12 -0.5t12 -0.5q1 2 2 1t3 -1q14 3 27 -2.5t26 -9.5q7 -3 6.5 -10t8.5 -8q5 -10 5 -21.5t-2 -22.5q-1 -3 -1.5 -6.5t-4.5 -4.5q-10 -4 -18.5 -2.5t-17 4.5t-17 7t-17.5 4
q-32 5 -59 2l-1 1q-13 -2 -26 -1.5t-25 -3.5q-7 -2 -8.5 3t-3.5 9q0 7 -3 13.5t1 12.5q11 3 22.5 7t23.5 6q5 5 2 11t0 13q-1 12 -1.5 24t-0.5 23q1 5 -1 15q-6 2 -12 0l-1 -1l-7 -37l-1 -11q-2 -7 -7 -10q-2 -2 -6.5 -4t-9.5 -3q-8 -2 -21 -2.5t-16 -0.5h2h-4q-10 0 -13 7
q-1 0 -2 -0.5t-3 -0.5h-44q1 -4 1 -7.5t1 -7.5q12 -7 27 -7.5t26 -10.5q4 -7 7 -14.5t-1 -16.5q-4 -5 -11.5 -4t-12.5 -1q-6 2 -13 2.5t-12 0.5h-3l-1 1q-20 -2 -41.5 -2.5t-40.5 -8.5q-14 -4 -26.5 -8t-23.5 -11q-8 0 -12 10q0 6 -5.5 8.5t-8.5 6.5q-5 6 -7.5 13.5
t1.5 14.5q8 3 11.5 11t9.5 14q6 8 15 8.5t17 3.5q13 0 24.5 2t25.5 0q3 6 1 11.5t0 12.5q0 9 1 13h-9h3h-11q-7 0 -11 4q-3 -3 -9 -3h-81h-3q-1 -9 -2 -17q-1 -4 -1 -7v-1v1l-8 -14q-2 -4 -4 -4.5t-7 -0.5h-29q-2 0 -10 0.5t-14 2.5q-9 3 -12 12l-2 13q-2 8 -3 14.5t-1 11.5
q-1 5 -1 10q-1 -3 -1.5 -6.5t-1.5 -5.5q-5 -10 -15 -10l-28 -2l-14 -1h2h-3q-7 0 -12 6q-4 3 -4 10v3q14 68 21.5 106t11.5 56q4 22 5 27q-2 4 -2 6q0 7 4 11l3 3q5 5 11 5h55q4 0 10 -2q-2 6 -3.5 11.5t-7.5 9.5q-11 12 -23.5 26.5t-6.5 33.5q2 4 4 6q-7 1 -9 8
q1 9 -3 16.5t-4 15.5q2 7 8 6.5t11 3.5q-10 37 -11 77t6 81q5 7 7.5 14.5t8.5 14.5q4 7 8 13.5t9 13.5l10.5 10.5l10.5 10.5q5 4 9.5 3t9.5 -2q1 -13 1 -26t1 -27q-1 -3 -1 -8t-1 -9q1 -32 4 -65t2 -66q2 -9 4 -21q7 -2 13.5 -1.5t10.5 -8.5q2 -8 2.5 -15.5t-1.5 -16.5
q-9 -3 -17.5 -4.5t-17.5 -3.5q-2 -2 -4.5 -2t-1.5 -4l2 -1q13 2 26 2t25 4q2 11 4.5 22t4.5 22l-1 1q8 36 10.5 71t10.5 71q-2 15 4.5 28l12.5 25q9 19 23 36t32 29q12 8 25 13t27 8q31 11 62 13q5 4 10.5 2.5t11.5 1.5q14 -5 30.5 -5.5t30.5 -6.5q35 -17 70.5 -31t63.5 -45
q6 -6 9.5 -13t6.5 -15q11 -19 12 -40.5t3 -43.5q-1 -5 -0.5 -8t0.5 -7l-1 -1q1 -9 1.5 -17.5t1.5 -17.5q6 -3 11 0.5t11 4.5l7 6q-6 5 -12 9t-14 4q0 1 -0.5 1.5t0.5 2.5q6 -1 13 -1t14 2q3 15 -1.5 29.5t-2.5 28.5q2 2 3.5 0.5t3.5 -2.5q11 -23 23 -46q2 5 4 10.5t3 11.5
q4 12 17 17q11 5 21.5 0.5t18.5 -9.5q9 -9 13 -19t10 -20q2 -2 4.5 0t2.5 -2q-1 -9 0.5 -17t0.5 -17q17 -6 30 -20.5t18 -31.5q5 -20 -2.5 -38t-21.5 -30l-19 -9.5t-20 -5.5q-5 -6 -10 -11.5t-10 -11.5q-14 -11 -28.5 -18t-31.5 -12q17 -5 25 -11q2 4 4 5q6 6 12.5 6.5
t9.5 0.5v0h1l5 1l9 1h50l15 2l19 2q11 0 16.5 -6.5t5.5 -14.5zM794 574q0 4 -1 5l-5 -5l1 -1q3 0 5 1zM791 585q-2 3 -6 -1q0 -3 1 -4q2 2 3.5 2.5t1.5 2.5zM782 597q-2 -4 0 -8q3 2 3 8q-1 0 -2 1zM776 604q-2 5 -3 2t-1 -5q3 0 3 -2q0 2 0.5 3t0.5 2zM770 539
q-5 -2 -11 -1.5t-11 -1.5l2.5 -5t4.5 -5q4 3 9 5.5t6 7.5zM768 545l1 1q0 5 -2 10t1 10q-3 0 -6 -1.5t-5 -3.5q-2 -5 3 -9t8 -7zM762 611l-1 -4q3 -3 5 -1q-2 2 -1 4.5t-3 0.5zM757 593q-5 -2 -6.5 -7t-1.5 -10q5 -1 9.5 1t9.5 1q-4 11 -11 15zM753 611l-4 -3v-1q5 -2 5 2z
M742 602q-5 -3 -1 -5q1 -1 1.5 0t1.5 1zM736 587q-1 0 -1 -1.5t1 -1.5h2q0 1 -2 3zM708 563q2 -11 -6.5 -11t-13.5 -8q5 -3 10 -1.5t10 3.5q2 0 4 -6q-5 -7 -9 -14t-9 -15q5 5 8 9t8 9q2 2 3.5 0t3.5 -4l-3 -21q8 15 10 29q3 4 5 3.5t3.5 -2.5t3.5 -3.5t5 0.5q-2 3 -4.5 5
t-2.5 6q2 5 6.5 5.5t8.5 1.5l-7 5q-1 5 4 8t7 6h-6q-2 -2 -5.5 -2t-5.5 -4q0 -2 1 -2.5t1 -2.5q-1 -2 -1.5 -4.5t-3.5 -4.5q-4 -1 -5 2.5t-4 2.5l-1 -4q-2 -6 -7 -3q-3 3 -3 5q2 5 7 3l-1 7q5 4 2 10t-2 11q-6 4 -9 12t-8 15l4 -25q1 -2 3 -4.5t1 -5.5q-1 -4 -5 -4.5
t-7 -0.5q2 -4 5.5 -2.5t4.5 -3.5zM695 533q-4 0 -10 1.5t-11 2t-7 -2.5t2 -12q6 -14 3 -30t0 -30q2 -5 0.5 -10t0.5 -10q16 2 32 3t30 5q-6 17 -2.5 35.5t14.5 32.5q-5 1 -9 2.5t-8 0.5q-4 -10 -7.5 -19t-8.5 -18q-2 -2 -1.5 -5.5t-2.5 -5.5q-2 -2 -4 -0.5t-4 1.5q5 19 3 36
l-23 -28q-5 -2 -6 2q2 13 8.5 24.5t10.5 24.5zM669 422q-2 -7 -2 -13t-1 -14q5 -8 2.5 -17.5t-2.5 -20.5q17 2 32.5 5.5t31.5 8.5q14 7 29.5 14.5t23.5 22.5q-13 3 -26 11l-13 14q-19 -3 -37.5 -5.5t-37.5 -5.5zM334 761q-38 -12 -58.5 -45t-30.5 -69q37 26 82 29
q11 -2 20.5 -5.5t18.5 -7.5q15 -12 29.5 -25.5t25.5 -28.5q16 -10 35.5 -10.5t36.5 4.5q18 0 32 10.5t24 24.5q21 8 44.5 12.5t46.5 -0.5q2 2 0.5 4t0.5 4q-4 23 -17 39.5t-30.5 28.5t-37.5 20.5t-38 16.5q-5 2 -10.5 2t-9.5 4q-9 2 -16.5 5.5t-17.5 3.5q-2 2 -3.5 1.5
t-2.5 0.5q-8 2 -15.5 1.5t-14.5 -0.5q-25 2 -48 -5t-46 -15zM642 546q4 11 0 21.5t-11 19.5q-12 8 -29 8.5t-28 -10.5q-5 -6 -6 -13.5t-1 -15.5q2 -14 13 -20.5t22 -10.5q13 -2 24 4t16 17zM429 474q3 5 -1 7.5t-2 7.5q16 5 32 9.5t32 9.5q3 2 7 3t5 6q2 4 -1.5 6.5
t-5.5 4.5q-11 3 -25 1q-17 -5 -34 -7.5t-29 -16.5q-3 -13 0.5 -24t8.5 -22q17 -14 40 -9.5t41 8.5q3 2 8 4t3 7q-8 9 -20 10.5t-23 3.5q-9 0 -16 -5t-15 -8zM356 571q5 16 -1 28q-5 14 -17 18t-24 6q-7 -2 -12.5 0t-10.5 -2q-14 -8 -19.5 -22t-3.5 -29q5 -14 17.5 -20
t26.5 -8q30 3 44 29zM227 523q0 -10 -3.5 -18.5t-1.5 -18.5q-5 -32 -7.5 -65.5t-2.5 -66.5h2l6 1h60l13 1q9 2 13 -4q5 2 12.5 3t14.5 2q8 1 17 1q2 0 17 -0.5t26 -2.5q6 -1 17.5 -6t18.5 -16l3 12q3 12 14 12l91 8q6 2 12 -4q4 -4 4 -7l6 1h59l14 1q13 2 16 -9l3 -9v0v0
q-1 4 -0.5 9.5t1.5 9.5q5 32 3.5 64t0.5 64l-2 2q-2 -1 -3.5 -3t-3.5 -1q-6 -5 -13 -7t-14 -6q-3 -1 -7 -0.5t-7 0.5q-19 4 -34.5 14.5t-31.5 21.5q-7 9 -15.5 15.5t-16.5 12.5q1 -9 8 -19q-1 -7 -5 -10t-9.5 -4l-11 -2t-9.5 -4l1 -2q9 -5 20.5 -6t14.5 -15q1 -4 2 -9t-5 -7
q-10 -4 -19.5 -11t-20.5 -9q-8 -2 -14.5 0.5t-14.5 2.5q-3 3 -6.5 2.5t-7.5 1.5q-8 -2 -15 2t-15 6q-6 11 -5.5 23t-5.5 23q4 5 5 12t9 10q5 8 12.5 10.5t15.5 6.5q14 0 26.5 1.5t27.5 -0.5q2 2 4.5 1.5t5.5 -0.5q2 -1 4 1q-11 6 -23 7l-24 2q-17 2 -33 -2t-27 -18
q-14 -5 -24.5 -14.5t-24.5 -14.5q-24 -10 -53 -10.5t-50 17.5q-4 5 -7 10t-7 7zM165 357q2 4 1 7.5t-1 6.5l-2 6q-9 2 -16.5 0t-15.5 -4q-3 -5 -1 -9.5t4 -9.5q2 -1 4 -1t4 -1q4 4 9 4zM180 358l15 -2q1 2 -1 3.5t-4 2.5q-2 0 -5.5 1t-5.5 -2q0 -1 0.5 -1.5t0.5 -1.5z
M203 437q-14 1 -26 0.5t-24 -2.5l4 -20q2 -5 2 -10.5t5 -9.5q2 -12 14.5 -15.5t23.5 -5.5q0 14 -0.5 27t2.5 28zM154 388q-4 6 -10 2t-11 -4q5 -2 10.5 -0.5t10.5 2.5zM96 635q-2 -36 -3.5 -71.5t7.5 -68.5q0 -5 2.5 -3.5t4.5 1.5q-2 16 -3 31.5t-6 29.5q5 8 3 17t-1 18
q-2 4 -1 7.5t-1 7.5q2 1 2 3t2 3q2 0 5 -3q2 -11 0 -23.5t1 -23.5q5 -3 2 -6.5t-1 -6.5q8 -10 5.5 -22t1.5 -23q2 -3 3.5 -6t6.5 -1q2 4 4.5 4.5t5.5 -0.5t5.5 -1t4.5 3q0 18 -0.5 36.5t-2.5 35.5l1 1q-2 29 -3.5 58t0.5 59l-2 2q-6 -8 -11 -16.5t-10 -17.5q-2 -2 -3 -0.5
t-3 2.5q1 11 8 20.5t12 20.5l-2 2q-8 -8 -11 -16q-11 -11 -14.5 -25t-8.5 -28zM84 476q2 -10 5 -14q7 1 13.5 1.5t11.5 3.5q14 -2 28 1t28 5q8 2 9 6q1 14 -9 12t-17 -4q-13 2 -25 -0.5t-24 -3.5q-5 -6 -10.5 -5t-9.5 -2zM94 424q3 -9 7.5 -18t14.5 -13q5 -1 7 3.5t7 5.5
q6 7 10 15t1 17q-3 6 -10.5 8.5t-12.5 -1.5q-5 0 -9 1t-8 -2q-1 -5 -5 -7.5t-2 -8.5zM154 107q5 27 9.5 58t9.5 62.5t10.5 61.5t11.5 53q-3 1 -8 1.5t-7 0.5t-11.5 -1t-16.5 -2q-3 -16 -6 -31.5t-5 -31.5q-2 -14 -3.5 -29t-5.5 -30q0 -3 -1 -3q-5 24 -7 49.5t-4 58.5
q-1 7 -0.5 12.5t-8.5 5.5h-55q0 -3 -3 -3q1 -1 2 -3q1 0 1 -1l-38 -194h3q2 0 16.5 1.5t23.5 1.5q3 9 6 22t5.5 27.5t5 28t5.5 22.5q4 -33 8 -64.5t8 -62.5l3 -12q5 -1 11.5 -1.5t7.5 -0.5h30q1 1 1.5 2t1.5 2zM271 200q1 3 1.5 6.5t1.5 6.5h-1h-23q-1 -3 -1 -5.5t-1 -4.5h9
h1zM274 230q5 5 5 12t1 12q0 3 1 6t1 5q-7 1 -15.5 0.5t-10.5 -0.5h-7t-6 2q2 9 2.5 17.5t5.5 17.5h33q6 0 7.5 11t2.5 14q0 2 1.5 5.5t1.5 4.5q0 2 -0.5 2.5t-0.5 2.5q-5 -1 -9.5 -1.5t-6.5 -0.5h-59q-2 0 -4 -0.5t-4 -0.5l-2 -2q-1 -5 -3 -11t-3 -11q-2 -5 -2 -12t-1 -12
q-2 -12 -4 -23.5t-4 -21.5q-2 -12 -5.5 -28.5t-6.5 -31.5t-5.5 -25.5t-2.5 -11.5q0 -2 1 -2.5t1 -1.5h81l2 2q3 13 5 21t4 19q-4 1 -10 1l-17 -1h-4t-5 2q0 20 6 41h36zM287 285q-1 0 -1.5 -0.5t-1.5 -0.5h-23q0 -2 -1 -4h23h3q0 3 1 5zM386 49q-9 2 -20 3.5t-22 3.5
q-6 -1 -15 4q0 11 -0.5 21.5t-0.5 21.5l-4 9l3 15v6q-6 -5 -15 -5q-1 -12 -0.5 -23t-0.5 -22q2 -2 2.5 -3.5t1.5 -3.5q-4 -4 -6 -4q-19 3 -37.5 0.5t-37.5 -0.5q-5 -2 -10 -5t-7 -9q8 2 15.5 3.5t15.5 5.5q6 -1 11.5 2t11.5 1q1 0 3 -5q0 -3 -7 -5q-9 -6 -22 -4
q-11 -3 -21 -5t-19 -9q-1 -3 0 -5t1 -4q3 -3 4 -0.5t3 3.5q17 6 32.5 11.5t32.5 10.5q3 1 4 3.5t6 0.5q4 -2 2 -7q-2 -3 -6 -5.5t-9 -1.5q-7 -5 -14.5 -6t-13.5 -6q-8 4 -15.5 -0.5t-13.5 -9.5q2 -2 2 -5t1 -5q12 2 22.5 8t21.5 10q31 5 62.5 7t63.5 0q-2 6 -5 8zM342 125v0
h1v0h-1zM389 111l20 97q-1 2 -1 4t-1 3q-2 5 -6 9t-8 7q21 15 24 34t3 36q0 2 0.5 9.5t-0.5 9.5q-2 9 -12.5 14t-16.5 6q-10 2 -24.5 3t-15.5 1l-5.5 -0.5t-12 -1.5t-12.5 -2t-9 -2q-5 -37 -11.5 -74t-14.5 -73q0 -4 -1 -5q-2 -6 -2.5 -12t-1.5 -12q-1 -2 -1 -4t-1 -4
q0 -1 -1 -2.5t-1 -2.5v-5h11h5t6 1q5 1 11 0.5t10 2.5q3 16 6.5 32t6.5 32h7q4 0 6 -1l5 -2.5t4 -3.5q2 -3 2 -9v-8q0 -10 -1 -13.5t-3 -13.5q-1 -5 -2.5 -12t-3.5 -12q-2 -8 -5 -17q1 -3 1 -9h46zM461 160q2 8 4.5 17t4.5 17q2 5 2 10t1 10q0 5 3 9l18 2t17 1l7 34
q0 2 -3 5q-24 0 -28.5 -0.5t-5.5 0.5q2 10 3 19.5t6 19.5q8 1 16.5 2.5t9.5 1.5q2 0 4 -0.5t4 -0.5q1 0 5 2l2 14t3 15q1 2 3 4t2 4v5l-90 -8q-8 -34 -15 -70.5t-12 -63.5q-2 -11 -5 -28t-5.5 -33t-4.5 -27.5l-2 -11.5q0 -1 1 -3l1 -1h4q2 0 13 0.5t19 1.5q3 1 5.5 2t4.5 2
q2 12 4 24.5t4 24.5zM524 290h-1h-6h-1q-4 0 -7 -1q-7 0 -8 -1q-1 -2 -1 -4.5t-1 -4.5h15q5 0 7 -1l1 -1q1 5 1 8t1 5zM481 173q4 1 7 1t7 1q2 0 3 -0.5t3 -0.5v1q2 6 3 12.5t2 10.5q1 6 2 11l-16 -2h-5v-4q-1 -8 -2 -12v-2v0zM528 75q1 14 0 26.5t-2 26.5h-12h-5
q-2 -32 0 -62q2 -2 4 -4.5t-2 -5.5q-7 -2 -13.5 -1.5t-13.5 0.5q-6 -2 -14 -3.5t-10 -10.5q2 -4 5 -2t6 0q22 3 46 1t46 0q14 -3 27 -7.5t27 -8.5q3 -2 7.5 -2t6.5 2t0.5 4.5t-3.5 4.5q-9 5 -19.5 6t-20.5 3q-2 -1 -3 -0.5t-1 -1.5q-5 0 -6 2q-3 5 -6.5 6t-8 0.5t-8.5 -0.5
t-7 3l2 6t5 4q20 -3 38 -7.5t35 -9.5q0 1 1 1.5t1 1.5q-1 1 -1.5 1t-1.5 1q-2 5 -5.5 5.5t-8 0.5t-8 0.5t-5.5 5.5q-22 4 -46 1q-5 4 -4 8q7 4 15.5 2t16.5 -2t16.5 -2.5t16.5 -1.5q-10 5 -21 6.5t-22 3.5q-2 0 -3 -1t-3 0q-6 3 -13 1.5t-15 -2.5q-2 -2 -5 -3t-5 4zM609 201
l1 12h-21q-2 -8 -2 -10h9h1zM618 254q2 8 3 11q-7 1 -16 0.5t-11 -0.5h-6t-6 2q2 9 2.5 17.5t5.5 17.5h33q5 0 7 11t2 14q1 2 2.5 5.5t1.5 4.5t-2 5q-5 -1 -9 -1.5t-6 -0.5h-59q-2 0 -4 -0.5t-4 -0.5t-2 -2q-1 -5 -3 -11t-3 -11q-2 -5 -2 -12t-1 -12q-2 -12 -4 -23.5
t-4 -21.5q-2 -12 -5.5 -28.5t-6.5 -31.5t-5.5 -25.5t-2.5 -11.5q0 -2 2 -4h81l2 2q2 13 4 21t5 19q-4 1 -10 1l-17 -1h-5t-5 2q1 22 7 41h36q5 5 5 12v12zM621 284h-21q-1 -1 -1 -4h21q0 3 1 4zM748 280q2 6 2.5 12.5t0.5 8.5q0 22 -14 30.5t-33 8.5h-6t-7 -1
q-7 -1 -15.5 -4.5t-14.5 -8.5q-3 -2 -7.5 -6.5t-5.5 -6.5q-13 -27 -16 -59.5t-6 -54.5q-2 -7 -3.5 -16.5t-1.5 -11.5t0.5 -2.5t0.5 -1.5q2 -3 6 -6.5t7 -6.5l5 -5q8 -4 15.5 -5t15.5 -1t18 2.5t19 7.5t15.5 14t7.5 22q0 5 2 11q1 5 2.5 9.5t3.5 8.5q-1 0 -3 1h-13
q-5 -1 -11 -1t-12 -1l-3 -3v-5.5t-2 -5.5q-1 -2 -1.5 -4.5t-1.5 -4.5q-2 -5 -5 -5h-6q-8 0 -8.5 3.5t-0.5 9.5q0 8 1 9.5t3 11.5q4 17 6 33.5t6 33.5q2 10 11 10q5 0 7 -3.5t2 -7.5q0 -2 -1.5 -9t-1.5 -8q0 -7 9 -7q2 0 13 1.5t19 3.5q2 6 2 10zM877 335q1 1 1 6q0 4 -5 4
q-1 0 -6 -0.5t-10.5 -1t-10.5 -1t-6 -0.5h-51q-2 0 -6 -1l-8 -2q-2 0 -5.5 0.5t-6.5 -2.5q-2 -8 -4 -17t-3 -16q4 -2 8 -2.5t6 -0.5t9.5 0.5t12.5 -0.5q-8 -40 -14 -79.5t-14 -78.5q-3 -14 -6.5 -25t-2.5 -13v-2q4 -2 7 -2.5t8 -0.5q2 0 13.5 1t19.5 2q1 1 1.5 2.5t1.5 2.5
q8 39 15 79.5t14 75.5q4 20 9 40q8 1 14.5 2t13.5 3q2 5 2 12.5t3 14.5zM319 604q12 0 14 -8q1 -1 1 -7q-5 -6 -14 -8q-9 0 -12 8q0 1 -0.5 1t-0.5 1q2 2 0.5 3t-0.5 3q4 2 5.5 5t6.5 2zM613 568q10 -4 10 -13l-4 -6t-5 -3q-6 -3 -10 3q-6 4 -4 13q3 4 13 6zM359 304
q2 0 5.5 -1.5t6.5 -2.5q1 -3 1 -8v-7q0 -7 -2.5 -17t-10.5 -17q-2 -2 -6 -2t-8 -2h-3l9 57h8z" />
  </font>
</defs>
</svg>
