<?xml version="1.0" standalone="no"?>
<!DOCTYPE svg PUBLIC "-//W3C//DTD SVG 1.1//EN" "http://www.w3.org/Graphics/SVG/1.1/DTD/svg11.dtd" >
<svg xmlns="http://www.w3.org/2000/svg">
<metadata></metadata>
<defs>
<font id="conspiracyregular" horiz-adv-x="868" >
<font-face units-per-em="2048" ascent="1638" descent="-410" />
<missing-glyph horiz-adv-x="698" />
<glyph horiz-adv-x="0" />
<glyph unicode="&#xd;" horiz-adv-x="698" />
<glyph unicode=" "  horiz-adv-x="698" />
<glyph unicode="&#x09;" horiz-adv-x="698" />
<glyph unicode="&#xa0;" horiz-adv-x="698" />
<glyph unicode="!" horiz-adv-x="591" d="M160 152q0 78 88 124q74 41 160 41q84 0 159 -41q90 -46 90 -124q0 -82 -75.5 -138.5t-159.5 -56.5q-96 0 -174 47q-88 55 -88 148zM295 750v749l98 64q35 -14 86 -78q45 -55 64 -99v-843l-158 -29q0 2 -45 96.5t-45 139.5z" />
<glyph unicode="&#x22;" horiz-adv-x="792" d="M141 1495v182q29 16 117 17q88 0 121 -17v-532l-49 -72h-99zM621 1583q-4 18 49 119h164q47 -88 47 -129l-43 -430q-59 -72 -99 -72q-51 0 -73 47q-8 18 -25 94z" />
<glyph unicode="#" horiz-adv-x="1058" d="M152 -61l129 501q-12 27 -125 84v119q76 4 133 43q68 45 67 115q0 84 -106 84q-25 0 -68 -4q0 18 -13 60t-13 60q27 -4 51 -4q133 0 207 125q49 82 94 275.5t86 269.5h92l-74 -522q0 -43 43 -90h144l229 639q14 0 62.5 -13.5t70.5 -13.5v-190l-112 -344 q10 -29 63.5 -74.5t63.5 -65.5q-33 -74 -91 -98q-39 -12 -79 -27q-35 -25 -35 -106q0 -70 55 -86q98 -27 135 -62v-92q-301 20 -317 -323q-6 -137 -137 -320l-93 31v164l101 344q0 35 -43 78h-193l-151 -613q-14 -2 -56 -28q-31 0 -120 84zM535 729q0 -27 6 -55h166 q31 16 84 57v141q-6 0 -38 15.5t-63 15.5q-72 0 -113.5 -51t-41.5 -123z" />
<glyph unicode="$" horiz-adv-x="983" d="M139 1169q0 168 70 238q16 16 166 96q125 68 203 191q31 -20 88 -109q43 -66 104 -65q18 0 45 6q104 23 156 -4q16 -51 16 -125t-16 -127q-16 -2 -56 -29q-33 20 -79 94q-31 49 -113 49q-20 0 -38.5 -10t-45.5 -10v-328q0 -55 117 -110q199 -92 219 -107 q117 -79 117 -196q0 -182 -117 -283q-90 -78 -338 -166v-176q4 0 4 -2q0 -12 -38 -24.5t-54 -12.5v260h-330q-78 53 -78 131v195l86 28q18 -25 109 -102q102 -88 147 -111q49 45 135 66v344q-6 2 -264 104q-119 47 -167 108.5t-48 186.5zM283 1204q0 -55 61.5 -127.5 t116.5 -72.5q55 -1 59 28v320q-31 31 -86 30q-152 -119 -151 -178zM715 385h57q57 6 98 84q31 59 31 94q0 117 -186 199v-377z" />
<glyph unicode="%" horiz-adv-x="1171" d="M168 1268q0 180 110.5 278.5t292.5 98.5q104 0 172 -31q94 -41 205 -166v-252q0 -45 -47 -96q-29 -31 -88 -90l459 18l-430 -262q12 -12 32 -14q18 -2 46 0q27 2 69 4q121 8 223 -125q88 -115 88 -199q0 -80 -73 -209q-82 -141 -160 -141h-317q-41 0 -232 197v196 l135 236q-14 18 -39 18l-354 -108q-37 31 -61 30q-8 74 163 158q119 51 238 100q4 41 -20 84l-187 -22q-84 76 -145 151q-80 98 -80 146zM358 1219q74 -86 123 -86h183q49 0 104 88q47 75 47 114q0 55 -96 105q-84 43 -133 43t-120 -36t-108 -77v-151zM680 418 q0 -47 38 -103.5t81 -70.5h188q49 0 86 55.5t37 106.5q0 59 -35 114q-55 86 -168 74q-84 -8 -147 -51q-80 -49 -80 -125z" />
<glyph unicode="&#x26;" horiz-adv-x="1085" d="M131 344q0 129 43 211q27 49 109 136t110 140l-104 367q82 274 327 275q147 0 230 -76q68 -61 125 -215l-289 -391l199 -289l151 233h117q33 -41 33 -65l-131 -342q-10 -63 155 -174v-93q-29 -29 -141 -32q-20 0 -73.5 38.5t-86.5 38.5q-23 0 -178.5 -65.5t-202.5 -65.5 q-393 0 -393 369zM342 246q117 -113 197 -113q70 0 141 31q81 33 108 88l-272 405q-55 -27 -106 -69q-68 -59 -68 -103v-239zM500 1061l37 -41q27 -20 67 -21q57 0 107.5 69t50.5 128q0 51 -34 85t-85 34q-98 0 -143 -88v-166z" />
<glyph unicode="'" horiz-adv-x="385" d="M156 1534q10 147 135 147q57 0 97 -50t40 -109l-22 -240q0 -61 -17 -139q-20 -100 -59 -142h-103z" />
<glyph unicode="(" horiz-adv-x="544" d="M172 752v374l317 560h86q0 -14 14.5 -41t14.5 -31l-194 -615v-430l192 -528v-107q-14 -2 -55 -28q-109 8 -248 377q-127 334 -127 469z" />
<glyph unicode=")" horiz-adv-x="587" d="M154 1667l61 62q127 -12 289 -318q150 -283 149 -426v-373l-321 -770h-119q-33 41 -33 66l230 840v231z" />
<glyph unicode="*" horiz-adv-x="1069" d="M117 1325q31 80 104 109l340 -97v344l51 52h125v-375q23 -18 51 -19l224 95h123l53 -56q-8 -63 -94 -104q-20 -10 -164 -55q-94 -31 -115 -64l209 -240q6 -31 -22.5 -74.5t-59.5 -58.5l-266 232l-242 -230h-82q0 16 -12 50t-12 45l184 241q-29 70 -168 109 q-168 45 -227 96z" />
<glyph unicode="+" horiz-adv-x="839" d="M127 614v129l242 17q51 20 63 41q8 31 8 155v121l66 25q23 4 53 -21q25 -20 37 -45v-278l311 12l25 -70q0 -29 -32 -57.5t-60 -28.5h-246v-315l-70 -23q-35 35 -53 64q-31 49 -33 102q0 18 10.5 49t10.5 37l-53 86h-279z" />
<glyph unicode="," horiz-adv-x="415" d="M162 -309l2 495q37 12 55 29l25 29h176q43 -43 43 -76l-293 -524q-8 4 -8 47z" />
<glyph unicode="-" d="M164 694l20 137h734l47 -69q-59 -68 -134 -68h-667z" />
<glyph unicode="." horiz-adv-x="425" d="M133 -6v141q82 82 170 82q86 0 170 -82v-121q0 -33 -80 -100h-178q-20 18 -82 80z" />
<glyph unicode="/" horiz-adv-x="847" d="M162 -49l723 1769l57 -67l-672 -1772h-80q-29 29 -28 70z" />
<glyph unicode="0" horiz-adv-x="1069" d="M109 573l26 379q37 227 158 377q141 174 354 174q217 0 373 -188q127 -156 139 -309l27 -365q2 -29 2 -66q0 -279 -111 -493q-143 -276 -418 -277q-186 0 -327 156q-113 127 -178 330q-53 166 -45 282zM336 655q49 -659 248 -659h190q59 76 119 186q78 138 78 201v571 q0 92 -124 239.5t-214 147.5q-98 0 -195 -159q-74 -123 -88 -203z" />
<glyph unicode="1" horiz-adv-x="743" d="M123 1298l536 373q25 0 70 -23.5t66 -43.5l30 -1571q0 -45 -37 -88q-31 -27 -61 -56h-164v1438q-14 23 -43 23l-262 -146h-98q-37 39 -37 94z" />
<glyph unicode="2" horiz-adv-x="1210" d="M154 -6l948 1243q-31 143 -78 211q-68 92 -190 92h-43q-57 -2 -41 -2q-106 0 -164 -27q-86 -41 -228 -184h-110q0 10 -16.5 56.5t-16.5 78.5q0 143 252 230q180 61 313 61q190 0 367 -131q199 -147 199 -358q0 -162 -172 -410q-129 -184 -355 -424q-100 -104 -299 -313 q12 -8 53 -54h447q106 0 143 68q14 25 17 27q6 -14 30 -95l88 160q47 -47 48 -168q-10 -39 -54 -100q-53 -76 -96 -76q-61 0 -88 158l-920 -146q0 68 -34 103z" />
<glyph unicode="3" horiz-adv-x="1114" d="M129 51v105q4 0 35 16t65 16q4 0 80 -39.5t94 -46.5q98 -31 236 -30q162 0 274 92q119 100 119 258q0 94 -80 203q-90 121 -200 120h-181q-8 27 -34 72q29 35 145 92q150 74 195 107q98 72 98 153q0 45 -66 164q-80 143 -157 144h-170l-297 -117l-99 67q25 98 215 181 q172 74 310 73q193 0 331 -131t138 -323q0 -227 -176 -357q4 -33 90 -118q98 -96 131 -162q12 -24 12 -182q0 -258 -174 -404q-162 -137 -424 -137q-139 0 -233 31q-119 39 -277 153z" />
<glyph unicode="4" horiz-adv-x="1167" d="M156 516l739 1210h178v-1009q0 -72 57 -113q16 -10 166 -84q-23 -63 -92 -112q-6 -4 -131 -74v-164q70 -66 193 -115q0 -45 -64 -108l-330 -31q-82 0 -217 68q82 147 207 133v188l-55 49h-553q-23 14 -98 162zM451 594h403v692h-76z" />
<glyph unicode="5" horiz-adv-x="1026" d="M94 182q-4 31 28 65t62 34l355 -78q176 -8 284.5 86t108.5 268q0 301 -330 354l-432 -75v720q14 39 59 62.5t88 23.5h689v-169h-682v-408q57 2 110 2q707 0 707 -522q0 -215 -181.5 -375t-398.5 -152z" />
<glyph unicode="6" horiz-adv-x="1177" d="M137 709q0 184 84 403q98 254 260 408q190 180 437 180h329v-135q-37 -37 -219 -37q-20 6 -45 6q-158 0 -362 -168q-219 -178 -220 -346v-88l48 -49q219 119 362 118q229 0 373 -167q125 -148 125 -330q0 -215 -133 -402q-154 -213 -379 -213q-211 0 -391 144 q-223 178 -238 485q-2 31 -16.5 93.5t-14.5 97.5zM401 475q0 -127 120 -268t245 -141q141 0 231 139q76 117 76 254q0 367 -291 366q-154 0 -264 -98q-117 -100 -117 -252z" />
<glyph unicode="7" horiz-adv-x="1239" d="M174 1516v186h1133q27 -20 49 -67.5t20 -80.5l-608 -1681h-135q-39 37 -39 90l512 1442q-25 57 -41 74q-25 23 -80 18l-498 -31q-41 6 -100 -35.5t-74 -82.5q-70 35 -112 102q-31 49 -27 66z" />
<glyph unicode="8" horiz-adv-x="1241" d="M150 330v147l233 434l-174 308q29 45 29 159q-2 16 -2 33q0 137 200 244q168 90 299 90q217 0 379 -123q176 -135 176 -346q0 -57 -67 -186q-55 -106 -109 -177q90 -41 177 -196.5t87 -259.5q0 -199 -157 -369q-172 -184 -412 -186q-166 -2 -383 100q-276 131 -276 328z M383 330q0 -76 186 -170q162 -82 209 -82q115 0 234 96q133 109 133 254q0 162 -109.5 271.5t-271.5 109.5q-90 0 -225 -76q-156 -88 -156 -176v-227zM442 1169q29 -49 97 -100q76 -57 123 -55q25 2 71.5 -14.5t75.5 -16.5q92 0 174 127q68 104 74 180q12 143 -101 219 q-88 59 -192 60q-57 0 -168 -43q-154 -59 -154 -150v-207z" />
<glyph unicode="9" horiz-adv-x="1175" d="M170 1141q0 238 145.5 396.5t380.5 158.5q258 0 402 -166q121 -137 180 -416q0 -41 14.5 -116.5t14.5 -112.5q0 -121 -64 -314q-82 -248 -213 -403q-168 -197 -391 -207q-45 -2 -92 -2q-90 0 -318 35q-2 47 40 92t89 45h191q190 0 352 211q150 195 152 393q-14 23 -41 23 l-342 -144q-217 23 -358.5 167.5t-141.5 359.5zM397 1141q0 -172 56 -242q63 -84 229 -84q45 0 174 53q166 70 166 156v262q0 74 -158 164q-135 78 -170 76q-297 -14 -297 -385z" />
<glyph unicode=":" horiz-adv-x="583" d="M180 133q0 72 81 135.5t155 61.5q98 -2 162 -49q71 -54 71 -148q0 -84 -104 -147q-86 -51 -156 -52q-86 0 -153 82q-55 68 -56 117zM182 780v160q66 74 133 94q39 12 111 13q111 0 160 -33q63 -40 63 -142q0 -197 -235 -196q-82 0 -232 104z" />
<glyph unicode=";" horiz-adv-x="546" d="M145 -129l166 379h221l54 -80l-357 -614q-27 0 -55.5 37.5t-28.5 64.5v213zM190 655v146q49 102 209 102q88 0 144 -37q65 -43 65 -125q0 -47 -37 -110q-43 -76 -94 -76h-155q-37 0 -132 100z" />
<glyph unicode="&#x3c;" horiz-adv-x="776" d="M162 782l661 578q39 -39 39 -86l-483 -492l483 -454v-95q-47 -31 -71 -30z" />
<glyph unicode="=" horiz-adv-x="886" d="M158 842q4 8 26 53q14 31 27 31l762 -15l12 -86q-23 -12 -67 -45h-713zM160 496q0 25 67 98l746 -12l12 -88q-49 -45 -94 -45h-664z" />
<glyph unicode="&#x3e;" horiz-adv-x="790" d="M152 1264q31 43 30 69h123l574 -551l-576 -577h-92q-33 47 -33 71l484 480z" />
<glyph unicode="?" horiz-adv-x="1095" d="M113 1339l505 144q25 2 50 2q152 0 323 -99q226 -129 226 -305q0 -53 -64 -198q-72 -166 -137 -195q-10 -4 -105 -26q-84 -20 -127 -54q-31 -25 -88 -106q-49 -70 -88 -70q-51 0 -108 64v178q117 49 346 153q150 74 149 213q0 135 -159 217q-117 59 -201 60 q-92 0 -211 -66q-125 -70 -154 -151h-129zM389 -2v205q106 63 219 63q53 0 127 -27.5t121 -60.5v-158q-29 -25 -119 -114h-223q-43 0 -78 35q-23 29 -47 57z" />
<glyph unicode="@" horiz-adv-x="1148" d="M176 739l27 353q49 236 162 395q143 209 350 209q174 0 325 -131q160 -137 160 -310v-593l76 -310q-160 57 -242 58q-43 0 -100 -30t-98 -30q-141 0 -266.5 124t-125.5 265q0 84 76 244q94 201 211 201h207q45 35 45 82q0 111 -100 196q-84 72 -156 72q-219 0 -324 -293 q-66 -186 -65 -379q0 -274 78 -497q111 -319 340 -338q47 -4 133 12q96 16 135 16q35 0 63 -6q12 -86 -133 -143q-117 -45 -219 -45q-176 0 -319 176q-121 147 -189 369q-61 199 -51 333zM633 754q0 -66 74.5 -140.5t142.5 -74.5q82 0 131 61v391q-33 0 -89 15.5t-83 15.5 q-59 0 -121 -115q-55 -102 -55 -153z" />
<glyph unicode="A" horiz-adv-x="1583" d="M166 61l362 396q0 20 -90 110l332 791q2 47 -82 135h-231v152h606l696 -1522v-135h-293q0 66 -22 86q-29 -14 -90.5 -29.5t-89.5 -30.5l-74 78q76 33 242 119q-27 100 -48 145q-37 84 -94 142h-680q-57 -96 -98 -152q-14 -20 -31 -43v-145l254 -60q0 -47 -65 -112 l-338 -33q-49 0 -99.5 31.5t-66.5 76.5zM377 86q37 -16 57 -16q23 0 62 55q-80 0 -119 -39zM711 684l565 -94q0 29 35 76q-66 39 -133 202l-117 281q-59 143 -166 158z" />
<glyph unicode="B" horiz-adv-x="1685" d="M164 1618v123l573 -51q0 2 2 2t8.5 -2t10.5 -2q10 0 22 6l232 -52q14 14 37.5 50.5t37.5 50.5l43 -197h-376q-90 -80 -90 -217v-278q-12 -14 -43 -15q-70 0 -158 45v340q0 55 -57 92q-33 20 -121 50t-121 55zM197 -96q-1 6 -1 13q0 35 35 81q37 47 78 68l150 -41v-119 q-43 -27 -129 -27q-84 0 -133 25zM430 791l82 114l86 -67l129 69h305q-61 -66 -166 -114q-113 -53 -135 -76q-41 -39 -41 -160v-491l-55 206q-98 29 -137 199q-18 84 -68 320zM551 1516h57v122h-57v-122zM831 18l383 48q61 12 187 40q104 25 203 150v258q0 66 -99 131 q-51 35 -200 107q-131 63 -170 102q66 49 192 147q143 114 143 216v6q-4 82 -67 239q-57 141 -57 236v12q39 -20 114 -65q279 -170 279 -353q0 -78 -70 -223q-72 -154 -133 -184q135 -123 205 -187q131 -123 131 -174v-243q0 -117 -205 -269q-197 -143 -319 -143h-312 l31 111l-51 53q-27 -33 -98 -33q-47 0 -87 18z" />
<glyph unicode="C" horiz-adv-x="1466" d="M182 827q0 297 170 533q225 311 676 330l313 -60q16 0 64.5 30t81.5 30q47 0 90 -39q8 -6 53 -60v-489l-133 -35q-33 31 -84 129q-57 113 -82 141q-49 59 -155.5 116.5t-178.5 57.5q-160 0 -346 -153q-201 -166 -233 -367q0 -16 7 -51t7 -53q0 -57 -14 -135 q-4 -23 -4 -45q0 -174 180 -381q183 -211 350 -211h6l678 235v-135q-88 -117 -317 -203q-194 -73 -324 -73h-4q-381 0 -608 303q-193 258 -193 585z" />
<glyph unicode="D" horiz-adv-x="1468" d="M119 1565l37 88h776q182 0 428 -166q272 -184 272 -379v-541q0 -188 -241 -389q-223 -186 -409 -186h-17l-811 33q-1 3 -1 7q0 34 56 95q43 47 88 92v1061q0 33 -89 142.5t-89 142.5zM522 172h320q178 0 340 115q186 131 213 340l30 241q-66 381 -251 512 q-135 96 -433 97q-170 0 -219 -39v-1266z" />
<glyph unicode="E" horiz-adv-x="1374" d="M145 1526l1131 59h12q78 0 146 -47q64 -45 64 -115q0 -10 -1 -20q0 -190 29 -217l-64 -125h-96q-12 12 -30.5 45t-30.5 45v195l-50 49h-645v-400l78 -75h209l111 190h86v-428q-6 -14 -35 -32.5t-47 -33.5q-76 121 -78 123q-53 70 -115 70q-47 0 -116.5 -32t-92.5 -68 v-510h621q59 45 80 159q8 47 26 199q18 0 63.5 14.5t63.5 14.5q63 -130 63 -318q0 -26 -1 -53q-4 -70 -58 -129q-50 -53 -104 -53q-10 0 -21 2l-1171 33q16 84 72 104q35 6 100 21q57 12 74 79v908q0 215 -227 215h-17q0 20 -14.5 65t-14.5 66z" />
<glyph unicode="F" horiz-adv-x="1277" d="M141 76v121q111 51 219 51v1036q-51 49 -219 102v136h1209l69 -99v-381h-164l-77 314h-564l-55 -72v-334q6 -12 27.5 -24.5t27.5 -18.5h199l105 183q59 0 122 -58v-219l-55 -190h-5q-35 0 -83 47q-43 43 -59 84h-281v-457q82 -72 131 -72q20 0 65.5 4t67.5 4 q35 -2 62 -14v-92q-29 -16 -86 -51h-656z" />
<glyph unicode="G" horiz-adv-x="1458" d="M174 799q0 362 226.5 592.5t588.5 230.5h541v-446q-35 -8 -88 -35q-63 61 -193 182q-145 131 -261 131h-3q-190 -4 -367.5 -145.5t-214.5 -325.5q0 -18 6.5 -56t6.5 -59q0 -68 -13 -168q80 -299 228 -419q129 -106 354 -107q356 0 356 217v105q-14 14 -51 53l-53 53h-229 q-61 61 -62 109h674q1 -6 1 -13q0 -31 -25 -64q-29 -40 -64 -56v-422q-35 -63 -232 -121q-147 -43 -286 -60l-201 29q-303 43 -475 268q-164 215 -164 527z" />
<glyph unicode="H" horiz-adv-x="1306" d="M150 1378v107l544 16v-98q-74 -31 -90 -41q-43 -27 -86 -84v-229q0 -72 55 -140h523v396q-33 31 -178 100v96l505 15q0 -12 14.5 -53.5t14.5 -59.5q-12 -12 -86 -60q-53 -33 -68 -63v-991q29 -31 152 -74v-94q-92 -51 -248 -51q-168 0 -262 59q18 31 74.5 77t75.5 81 q30 59 30 169v7q0 295 -119 295h-403l-82 -70v-375q41 -68 178 -125v-112h-463l-59 53q18 37 156 135v1039z" />
<glyph unicode="I" horiz-adv-x="1138" d="M156 1516q14 39 61 66.5t90 27.5h920l30 -125q-51 -27 -219 -51q-160 -23 -213 -58v-1095h430q0 -14 5.5 -44t5.5 -47q0 -39 -13 -71h-1040q0 8 -6 36.5t-6 45.5q0 37 12 80h428v1044q0 51 -36 88t-87 37q-25 0 -72 -13.5t-75 -13.5q-49 0 -115 28t-100 65z" />
<glyph unicode="J" horiz-adv-x="1325" d="M152 131v455h120l60 -60v-192q0 -129 151 -199q102 -47 191 -47q80 0 190 74q127 84 127 180v961h-471v143h932q20 -12 21 -70q-1 -45 -17 -76h-186q-72 -76 -72 -124v-13l2 -8v-795q0 -223 -205 -340q-158 -90 -360 -90q-111 0 -268 45q-215 61 -215 156z" />
<glyph unicode="K" horiz-adv-x="1392" d="M137 47q25 20 113 68q74 39 98 73q39 55 39 166v1012h-246v137l631 17v-97q-25 -12 -102 -34q-68 -18 -105 -48v-378l33 -72l453 457l-111 110l66 66l458 14v-115l-606 -520l690 -827q-18 -41 -211 -99l-594 721l-114 -45q-63 -33 -64 -78v-382l207 -82v-123h-569z" />
<glyph unicode="L" horiz-adv-x="1433" d="M131 1489l33 117h751l93 -50v-126h-340v-1156l80 -77h473q43 0 125 53q18 66 42.5 231.5t55.5 255.5h100l49 -65v-549q-71 -96 -166 -96h-4l-1263 36q37 76 129 115q121 51 170 96v1098l-66 53h-168z" />
<glyph unicode="M" horiz-adv-x="1593" d="M162 70q0 16 71.5 73.5t73.5 132.5l31 906q2 66 -62 200q-55 119 -86 148q22 48 94 80q60 27 110 27q9 0 18 -1q164 -20 256 -174q57 -96 117.5 -321.5t121.5 -323.5l344 817h394l32 -30q6 -10 6 -56q0 -27 -74.5 -82t-72.5 -94l86 -1149l147 -117q0 -53 -67 -102h-514 q23 94 88 127q35 14 102 45q42 29 42 108q0 10 -1 21l-57 965q-4 66 -41 102l-346 -934h-105l-393 846v-1091q33 -31 113 -54q61 -16 125 -30v-105l-520 -24q0 -2 -16.5 26.5t-16.5 63.5z" />
<glyph unicode="N" horiz-adv-x="1386" d="M137 1446l60 123h290l781 -1071v866q-43 33 -117 51q-61 14 -127 31v115l506 -15l-2 -176v-1311q-61 0 -182 -28l-811 1214q-41 -73 -41 -158v-8l26 -811q33 -53 84 -65q25 -4 105 -6q39 -2 59 -9q0 -16 13.5 -60t13.5 -69h-602v101q57 31 104 78q61 61 59 108l-28 635 q-8 94 -27 283q-36 182 -159 182h-5z" />
<glyph unicode="O" horiz-adv-x="1441" d="M123 631q23 23 22 59q0 37 -22 164q102 754 754 754q213 0 452 -178q272 -203 273 -459v-406q0 -223 -254 -430q-242 -199 -471 -205h-18q-258 0 -474 222q-203 209 -262 479zM350 797q0 -254 115 -449q145 -246 412 -248h4q284 0 409 258q84 172 84 410q0 670 -540 670 q-252 0 -383 -236q-100 -180 -101 -405z" />
<glyph unicode="P" horiz-adv-x="1411" d="M152 1595l69 74h785q244 0 402.5 -143t158.5 -383q0 -160 -125 -336q-133 -190 -287 -191h-496v-428l392 -88q1 -5 1 -11q0 -31 -29 -72q-34 -48 -71 -62h-702l-70 76q37 35 124 79t112 68q37 37 37 115v8l-31 963q-4 106 -53 168q-29 35 -109 81t-108 82zM635 868 q20 -45 84 -75q57 -27 110 -27q143 0 304 74q219 102 223 272v8q0 205 -199 301q-135 66 -317 66h-205v-619z" />
<glyph unicode="Q" horiz-adv-x="1325" d="M133 920q0 340 166 548q182 225 516 226q369 0 535 -269q123 -198 123 -493q0 -236 -46 -359q-57 -158 -223 -288q-35 -27 -184 -66q-123 -31 -154 -108l318 -45q25 2 79 18t76 16q59 0 107 -73q-31 -59 -139 -95q-75 -24 -121 -24h-4l-381 78q-29 0 -89.5 -16.5 t-93.5 -16.5q-96 0 -169 74l157 155q-217 119 -340 305q-133 197 -133 433zM342 985q0 -217 109 -422q139 -262 378 -262q178 0 326 203q135 184 135 356q0 19 -2 35l-26 209q-25 186 -140 315q-129 143 -307 144q-227 0 -360 -201q-113 -168 -113 -377z" />
<glyph unicode="R" horiz-adv-x="1675" d="M180 1516v145h1002q205 0 332.5 -139.5t127.5 -343.5q0 -172 -92 -277q-37 -43 -286 -229l598 -658l-37 -110l-205 -17l-813 801q-26 -26 -122 -26h-7v-547q23 -6 129 -37q84 -25 141 -64q-23 -31 -110 -84q-74 -43 -99 -51h-557v176q18 -1 35 -1q141 0 213 59v1310 q-45 35 -123 56q-115 31 -127 37zM662 883l239 -37q180 14 322 80q198 92 198 252q0 80 -111.5 188.5t-191.5 108.5h-456v-592z" />
<glyph unicode="S" horiz-adv-x="1339" d="M150 -111v545q4 0 42.5 17.5t73.5 17.5q16 0 74 -102q168 -295 475 -295q158 0 281 71q147 86 147 234q0 236 -268 291q-90 18 -502 92q-268 96 -268 411q0 489 645 490h424q49 0 88 -62q35 -53 35 -106q0 -41 15 -111.5t15 -103.5q0 -137 -106 -137q-4 0 -90 88 q-240 248 -416 248q-154 0 -266 -74q-131 -84 -131 -232q0 -221 217 -264q6 -2 448 -69q276 -72 375 -322q0 -25 15.5 -75t15.5 -81q0 -150 -164 -310.5t-313 -160.5h-862z" />
<glyph unicode="T" horiz-adv-x="1505" d="M168 913v572q0 88 121 133q88 33 188 33h1104q35 -66 63.5 -184.5t28.5 -196.5v-328h-168q-27 59 -37 172q-10 135 -20 180q-23 104 -90 183h-324v-1313h342v-187h-852l-32 125q168 39 327 117v1229h-438v-504z" />
<glyph unicode="U" horiz-adv-x="1656" d="M152 1575q0 25 25.5 57.5t49.5 42.5h600v-15q0 -108 -82 -138q-27 -10 -143 -17v-1196q0 -98 186 -194q152 -78 207 -78q139 0 289 106q168 119 168 273v1028q-43 33 -143 88q-88 49 -119 80q20 43 92 80q63 31 119 34l399 -34q14 -33 41 -80q-143 -111 -149 -117 q-14 -18 -15 -137v-983q0 -266 -274 -420q-201 -113 -391 -113q-182 0 -391 107q-276 141 -277 368v1127z" />
<glyph unicode="V" horiz-adv-x="1558" d="M168 1481q6 131 285 131q184 0 282 -68q-43 -70 -106 -110q-18 -12 -92 -54l440 -1020l385 1008q-27 47 -98 78q-106 45 -127 59q0 53 63 97h531v-150l-752 -1462z" />
<glyph unicode="W" horiz-adv-x="1619" d="M152 1638h563l33 -133q-63 -14 -130 -30q-82 -31 -108 -113l137 -887l328 813l395 -782l33 20q10 10 10 58v239l90 582q-59 80 -268 129v104h565v-104q-113 -43 -135 -141q-2 -61 -12 -183l-121 -995l-98 -281q-94 27 -166 181q-39 80 -121 336q-78 244 -139 356 l-359 -873q-70 33 -141 183q-59 125 -59 166v145z" />
<glyph unicode="X" horiz-adv-x="1628" d="M213 -31l639 858l-639 715q0 29 25.5 77t48.5 64h426l73 -69l-94 -162l336 -432q61 78 137 203l123 204q1 5 1 11q0 33 -36 108q-45 98 -45 135h531q14 -27 41 -67l-641 -787l669 -778v-151h-567l-33 157q10 -1 20 -1q91 0 136 69l-369 481l-336 -493q14 -14 156 -91 v-135h-561q-41 23 -41 84z" />
<glyph unicode="Y" horiz-adv-x="1323" d="M156 1495v119h477q4 -27 4 -49q0 -45 -21 -88q-33 -68 -32 -70l258 -459l254 447q-12 41 -133 127q0 43 61 94h446v-121l-563 -889v-233q14 -20 47 -60.5t78 -40.5h191l34 -34q0 -23 -21.5 -65t-39.5 -60h-711l-61 63q0 35 61 96h265v390z" />
<glyph unicode="Z" horiz-adv-x="1073" d="M143 129l754 1171q0 18 -45 64h-490v-344l-100 -59q-51 35 -65 53q-29 35 -29 102q0 20 2 45l-27 191q10 70 59.5 120t119.5 50h761v-203l-698 -1104q0 -63 72 -63h450q35 0 78 30q57 39 76 45v342q-2 23 57 23q43 0 74 -17v-497l-88 -88h-899q-25 24 -45 66 q-18 39 -17 67v6z" />
<glyph unicode="[" horiz-adv-x="534" d="M133 43v1649h426q0 -10 13.5 -61.5t13.5 -84.5h-209l-70 -47v-1438h279q-2 -8 4 -47q4 -29 4 -59q0 -31 -10 -53h-365q-37 14 -61.5 57t-24.5 84z" />
<glyph unicode="\" horiz-adv-x="847" d="M162 1653l672 -1772h79q29 29 29 70l-723 1769z" />
<glyph unicode="]" horiz-adv-x="571" d="M133 1702h422l55 -141v-203l25 -1252q2 -141 -111 -184q-47 -18 -166 -18q-125 0 -200 57v90q127 0 145 2q86 12 119 68v1407q-29 10 -82 47h-182q0 18 -12.5 62t-12.5 65z" />
<glyph unicode="_" horiz-adv-x="1220" d="M96 29v86h1241q0 -12 4 -52q4 -47 -8 -69q-209 4 -547 4t-645 -4z" />
<glyph unicode="a" horiz-adv-x="1345" d="M170 242q94 354 315 430l551 26q47 47 47 99q0 88 -96 151q-86 57 -178 58q-16 0 -29 -2l-467 -80v131l367 88h344q66 0 172.5 -101.5t106.5 -158.5v-742q13 1 26 1q76 0 166 -29v-127q-59 -20 -131 -21q-76 0 -141 23q6 20 6 41q0 98 -119 200l-135 -49q135 135 135 223 v5q-8 208 -136 208h-1q-31 0 -50.5 -27.5t-50.5 -27.5h-165l-158 55l-158 -333q16 -78 135 -152q109 -68 183 -68q35 0 108 41q94 51 125 62q-18 -18 -80 -107q-51 -74 -98 -106l-59 55l-222 -55q-2 10 -20 65q-14 45 -57 45q-35 0 -52 -14q-10 -6 -32 -41zM1081 59l15 41 l73 -37l-18 -38z" />
<glyph unicode="b" horiz-adv-x="1425" d="M152 1538v131l122 35q164 -37 209 -174q16 -49 17 -178v-250q12 0 32.5 -12.5t24.5 -12.5l442 142q303 -53 443.5 -210t140.5 -458q0 -133 -74 -320q-104 -264 -282 -264q-31 0 -31 17q0 4 2 12t2 12q0 16 -31 17q-27 0 -103.5 -19.5t-123.5 -19.5q-86 0 -188 24l-181 43 q-16 -12 -49 -33q-43 -26 -87 -26h-3q-20 0 -41 6q6 27 -18 53q-18 -18 -21 -43v-61h-200v133q74 2 127 56q51 53 51 123v5l-29 1084q1 6 1 12q0 38 -50 96q-59 66 -102 80zM502 623q0 -188 100 -334q123 -178 354 -178q160 0 269.5 85t130.5 240l28 215q-111 369 -456 369 q-154 0 -290 -123t-136 -274z" />
<glyph unicode="c" horiz-adv-x="1361" d="M168 508q0 326 166 510q171 194 490 194h3q41 0 72 -2l424 -28q115 -8 133 -72l29 -207l-66 -186h-104q-35 100 -186.5 208.5t-258.5 108.5q-227 0 -348 -119.5t-121 -347.5q0 -453 467 -469l576 205l69 -72q-129 -180 -333 -268q-158 -69 -319 -69h-5q-262 0 -463 155 q-225 176 -225 459z" />
<glyph unicode="d" horiz-adv-x="1501" d="M156 504q0 295 161 481q170 195 463 203l424 -121h8q41 0 41 61v338q-16 25 -137 80h-364l63 172h434q53 0 126 -28.5t100 -67.5v-1511q96 -66 112 -80q53 -50 80 -113l-250 -37h-5q-28 0 -96 43q-74 47 -89 47l-404 -149q-330 57 -487 201q-180 166 -180 481zM362 518 q23 -45 23 -67q0 -23 -20 -45q0 -51 104 -203q119 -172 209 -172h201q78 0 208 131q119 119 136 178q0 49 15 134t15 120q0 119 -125 260q-137 156 -290 156q-379 0 -476 -492z" />
<glyph unicode="e" horiz-adv-x="1325" d="M145 547q0 295 191 444q172 137 473 137q209 0 424 -141q240 -157 240 -356q0 -92 -93 -152h-991q0 -10 -11 -24.5t-11 -46.5q0 -98 114 -183q86 -61 205 -96q93 -27 139 -27q13 0 23 2l588 138q35 -33 34 -90l-507 -242h-150q-266 0 -467 186.5t-201 450.5zM371 662h850 v14q0 137 -189 221q-147 66 -264 66q-152 0 -260 -76q-119 -82 -137 -225z" />
<glyph unicode="f" horiz-adv-x="1134" d="M160 885q6 76 94 98q137 37 180 70v227q0 131 205 188q125 35 270 35h320l31 -147q-41 -39 -109 -39q-35 0 -103.5 16.5t-101.5 16.5q-117 0 -217 -52q-125 -63 -125 -172q0 -39 17 -63q8 -12 55 -70h475q0 -31 -18.5 -76t-38.5 -63h-467v-793h469q18 -20 18 -69 q0 -47 -18 -84h-908q0 16 -5 47t-5 47q0 35 12 59h160q41 31 51 41q27 25 33 54v573q0 76 -125 115q-14 4 -149 41z" />
<glyph unicode="g" horiz-adv-x="1382" d="M156 616q0 188 133 361q160 205 420 207l372 -82l193 53h231l31 -129q-137 -55 -166 -125q-24 -55 -24 -263v-17v-478q0 -264 -48 -376q-90 -215 -380 -271l-455 33v8q0 41 38 81q42 44 87 44h323q129 0 209 160q57 115 58 201q0 66 -25 118q-20 18 -55 19l-361 -111 q-242 23 -405 172q-176 160 -176 395zM377 659q0 -188 90 -297q97 -118 280 -118h3q188 0 294.5 106.5t106.5 294.5q0 164 -135 273q-125 100 -293 100q-145 0 -256 -146q-90 -119 -90 -213z" />
<glyph unicode="h" horiz-adv-x="1417" d="M137 1573q16 39 82 69.5t113 30.5q164 0 205 -112q14 -41 14 -203v-246l47 -47l352 137q13 1 26 1q130 1 262 -107q144 -118 144 -262v-562q0 -57 193 -184q-4 -131 -277 -131q-147 0 -247 66q12 33 79 118q57 72 58 111v547q0 39 -47 98q-25 31 -109 113h-186 q-82 0 -295 -213v-496q0 -39 63.5 -115.5t102.5 -95.5q0 -25 -21.5 -67.5t-40.5 -61.5h-458v129q162 86 161 189v1179z" />
<glyph unicode="i" horiz-adv-x="1081" d="M211 952v88h555v-868q37 -23 98 -80h338l-55 -127h-934v129h307q70 80 70 205v479q0 51 -39 85t-90 34q-23 0 -44.5 -13.5t-43.5 -13.5q-41 0 -86 29q-37 27 -76 53zM547 1233v244q10 14 46 36.5t52 22.5l82 -57v-246h-180z" />
<glyph unicode="j" horiz-adv-x="774" d="M111 721q68 113 149 113h526q27 -27 74 -121v-938q0 -78 -141 -195q-130 -108 -190 -108h-1h-391v131h299q84 0 175 92t91 176v850h-591zM543 1047v145q47 53 90 53q39 0 77 -44t38 -83q0 -23 -13.5 -61.5t-13.5 -59.5q-49 0 -76 -26z" />
<glyph unicode="k" horiz-adv-x="1425" d="M135 1573v104h328q43 -23 72 -104q22 -67 22 -126v-5v-680q6 -10 14 -21h45q98 0 168 95q35 47 97 190q49 115 86 141h379l65 -71l-567 -443q12 -43 51 -106q72 -51 216 -199.5t239 -228.5q4 -4 99 -25.5t134 -48.5q-33 -31 -33 -111h-471q-41 45 -41 111q0 10 2 29v28 q0 33 -8 52q-31 74 -158 211q-136 149 -201 149h-1q-125 0 -125 -152q0 -43 10 -129t10 -129q0 -172 -137 -188l-268 37q25 53 88 98q96 70 110 84v1272q0 61 -34 86q-20 14 -88 34.5t-103 45.5z" />
<glyph unicode="l" horiz-adv-x="1155" d="M158 -53v147h336q14 18 40.5 35.5t36.5 28.5v1319h-413v180h422q78 0 139 -47q70 -53 69 -127v-1391h496v-9q0 -32 -26 -75q-30 -49 -64 -61h-1036z" />
<glyph unicode="m" horiz-adv-x="1458" d="M143 -6q41 61 138 203v602q0 55 -43 122.5t-95 96.5q29 76 258 123q168 35 281 35q29 0 110.5 -55.5t110.5 -55.5q45 0 166 55.5t166 55.5q57 0 134 -30t116 -69q6 -10 28 -49q12 -49 54.5 -139t42.5 -84v-477q0 -20 -29 -41t-29 -47q0 -45 54 -154v-117h-246v830 q0 88 -39 145q-43 66 -127 66q-102 0 -125 -127v-725q0 -23 4 -52q0 -10 -6 -26v-111h-258v635q0 178 -14 244q-35 162 -154 162q-90 0 -195 -156v-682l166 -113q-27 -125 -235 -129z" />
<glyph unicode="n" horiz-adv-x="1396" d="M135 0q0 74 168 188v701q0 39 -63 82q-23 16 -105 57v100q59 35 168 35q115 0 244 -86l395 144q127 -39 234 -103q178 -106 178 -221v-680l198 -115q-4 -133 -297 -133q-172 0 -268 64q0 35 55 84q43 35 86 69l27 621q2 51 -53 121q-74 92 -189 92q-113 0 -245 -80 q-154 -92 -166 -219l26 -535q44 -52 116 -52q12 0 24 1q0 -20 14 -67.5t14 -67.5h-561z" />
<glyph unicode="o" horiz-adv-x="1394" d="M127 557q0 266 248 455q223 170 465 170q276 0 485 -172q225 -183 225 -453q0 -268 -235 -471q-215 -184 -447 -184q-29 0 -80 14t-77 14q-225 23 -404.5 212.5t-179.5 414.5zM356 557q0 -193 151.5 -338t346.5 -145q166 0 317.5 151.5t151.5 317.5q0 176 -140.5 322.5 t-314.5 146.5q-170 0 -325 -113q-186 -135 -187 -342z" />
<glyph unicode="p" horiz-adv-x="1529" d="M119 1083q0 76 39 117h313q41 0 80 -46t45 -46l434 154q287 -23 475 -207q195 -192 195 -475q0 -215 -141 -414q-174 -246 -482 -299l-446 156q-14 12 -27 12q-23 0 -22 -45v-381q20 -27 39 -55q29 -31 75 -31h224q4 -25 4 -47q0 -70 -39 -135h-602l-33 28q-8 12 -8 64 q0 39 47 94q37 41 76 82v1352zM551 610q0 -27 43 -147q135 -379 287 -379h241q147 0 248 195q82 158 82 301q0 464 -432 464h-2q-199 0 -330 -116q-137 -121 -137 -318z" />
<glyph unicode="q" horiz-adv-x="1318" d="M127 524q0 197 127 357q156 195 426 206l381 -104q4 0 38 39t68 39h238l61 -64q-25 -61 -137 -116q-8 -8 -8 -15l13 -24q14 -25 14 -51l-2 -1268h-529l-59 51q0 39 59 94h299v373l-397 -82q-256 25 -416 164q-176 154 -176 401zM336 524q0 -184 98 -296q96 -111 277 -111 h6q115 2 248 88q159 102 159 239q0 29 -13 89.5t-13 95.5q1 7 1 15q0 82 -122 183q-127 104 -219 105q-27 0 -75 -12.5t-71 -14.5q-137 -10 -211 -131q-66 -104 -65 -250z" />
<glyph unicode="r" horiz-adv-x="1228" d="M135 49q0 27 60 101h184l45 40v699l-74 72l-186 28v119h379q29 -8 53 -59q33 -70 51 -91l443 209q7 1 15 1q53 0 126 -24q84 -26 135 -61v-122q-74 -39 -115 -39q-23 0 -56.5 18t-53.5 18h-176q-47 0 -190.5 -114.5t-143.5 -157.5v-534l387 18q16 -16 56 -45t56 -45 q-29 -33 -86 -92h-849z" />
<glyph unicode="s" horiz-adv-x="1165" d="M164 842v194q0 119 217 203q127 49 264 66l485 -88v-271h-67q-18 0 -74 43q-66 51 -125 78q-94 43 -207 43q-211 0 -278 -98v-107q37 -23 76 -43q47 -27 80 -28l333 -29q166 -33 279 -107q147 -98 147 -239q0 -326 -555 -402l-374 84q-2 0 -76 -25.5t-123 -25.5v346 l61 66q82 -63 248 -185q131 -92 266 -92q92 0 369 127v131q-29 12 -135 82q-72 47 -113 47h-241q-61 0 -237.5 90.5t-219.5 139.5z" />
<glyph unicode="t" horiz-adv-x="1259" d="M131 993q82 57 162 58q10 0 24 -2h21q35 0 43 41q2 12 2 67v279l92 92l123 -92v-383h606q0 -25 14.5 -86.5t14.5 -96.5h-635v-716q0 -45 102 -117q84 -61 129 -62q8 0 17 2l553 109v-131l-547 -143q-12 -3 -27 -3q-55 0 -159 39q-117 45 -174 89q-106 78 -107 169v764 h-223q0 16 -15.5 60.5t-15.5 62.5z" />
<glyph unicode="u" horiz-adv-x="1425" d="M125 1090l18 98h387v-768q0 -272 281 -273q86 0 225 70q170 84 170 182v574q-35 25 -139 76q-94 47 -125 77q43 72 88 72h379v-895q0 -47 66 -110q51 -49 108 -82v-107h-16q-72 0 -142 -33l-235 88l-420 -116q-8 -2 -22 -2q-102 0 -250 84q-168 96 -168 198v723 q-29 29 -102.5 72t-102.5 72z" />
<glyph unicode="v" horiz-adv-x="1437" d="M150 995q0 25 22.5 67t42.5 60h500v-131q-8 -6 -107 -26q-74 -16 -90 -50l385 -727l326 699q-18 33 -74 63q-47 23 -92 43v125h534l-708 -1241z" />
<glyph unicode="w" horiz-adv-x="1449" d="M147 985v117l437 14q4 -27 4 -49q0 -57 -47 -102q-63 -59 -90 -117l159 -512q94 25 129 131q12 68 39 205q27 119 105 162l245 -525l236 617l-219 82v106l274 25q78 -1 193 -64l-393 -1151h-99l-241 496l-248 -526z" />
<glyph unicode="x" horiz-adv-x="1263" d="M141 -4l504 506l-479 534h426l-23 -166l193 -204q129 57 237 213l-73 73v86h426v-112l-453 -387l504 -523q-228 -26 -316 -26h-6q-104 0 -155 22q-4 18 -4 31q0 27 20 47l57 57l-239 240l-215 -217q72 -150 71 -174h-475z" />
<glyph unicode="y" horiz-adv-x="1384" d="M193 934q0 127 256 127q135 0 227 -62q0 -29 -45 -75q-53 -57 -62 -78l312 -594l309 579q-6 12 -72 91q-53 63 -61 104l254 61q127 0 227 -61v-92l-725 -1260q82 -43 215 -137q-44 -65 -79 -65h-1h-669v151h299l208 412z" />
<glyph unicode="z" horiz-adv-x="1071" d="M139 928q0 31 13.5 92t13.5 96l61 60h850l86 -117l-684 -826h482q27 35 57.5 118t48.5 116l94 -31l29 -215v-6q0 -49 -86 -139h-907l-31 94l684 852h-432q-66 0 -96 -94q-39 -121 -62 -144q-41 16 -78 58q-43 47 -43 86z" />
<glyph unicode="&#xa1;" horiz-adv-x="2238" d="M96 35q25 29 56 28q14 0 65 -65l29 18q-82 106 -80 187q2 82 168 229q2 25 16 76q10 27 34 76t24 57q0 16 -29 21q-20 2 -41 4q-59 8 -129 49q-88 51 -88 110q0 133 192 250q29 18 258 142l17 -17l-238 -190q4 4 4 8t-8 4t-20 -23q-41 2 -90.5 -56t-49.5 -101 q0 -29 39 -67t68 -38q12 0 12 19l115 -45l41 14l166 -39l391 72q63 20 186 61q248 88 352 260q43 72 43 92q0 94 -98 138q-78 35 -133 30l-151 -12q-18 -2 -33 16l16 35q14 -12 33 -12q10 0 30.5 6t26.5 6l158 -6q82 -12 154 -72q82 -66 79 -143q119 23 250 90q20 8 43 15 q31 12 43 30q190 285 264 430h109v-247q2 -2 55 -39q35 -25 41 -54l-14 -22l-100 63h-31q-16 0 -68.5 -42t-62.5 -58q-25 -43 -47 -111q0 -4 -3 -11t-3 -13q0 -39 52 -73t93 -34q53 0 96 56q53 70 74 80q8 -8 8 -23q0 -51 -78 -116.5t-78 -57.5v-152h-63l-147 252 q-152 -129 -330 -252q-98 -68 -162 -166l-143 -217q-80 -80 -80 -104q0 -18 29.5 -72.5t44.5 -56.5l223 117q23 -12 51 -58l-1032 -532l-164 110v25q10 0 80 27l59 -52l215 82l-49 99l-76 -45h-20l-305 -88l-60 -3q-14 0 -42.5 8.5t-35.5 18.5l-88 -24l-61 -9zM659 1233 q14 20 61.5 47t72.5 27h32l17 -17l-154 -73zM893 1085l65 105q18 2 29 -35q8 -28 8 -51q-2 -55 -63 -55q-37 0 -39 36zM938 92l47 -80l387 199l-74 104l-360 -200v-23zM2286 1243q0 35 61 72l29 -15v-49q0 -12 -20.5 -26.5t-33.5 -14.5q-37 0 -36 33z" />
<glyph unicode="&#xa2;" horiz-adv-x="1263" d="M152 950q0 61 81 170q20 27 123 146q43 51 158 98q131 55 169 82t38 166q68 -53 203 -160q117 -88 245 -88q23 0 70 4t72 4q37 -2 63 -14v-377q-16 0 -48 -15.5t-36 -15.5l-319 279h-103v-836h160l248 166h96q31 -47 31 -74l-533 -360v-164l-61 -63q-45 41 -66 110 q-29 98 -36 115q-297 188 -367 242q-117 90 -152 180q-29 76 -28 266q0 23 -4 70t-4 69zM381 770q0 -84 51 -201q76 -174 211 -174q65 0 59 35v766h-114q-82 -18 -150 -190q-57 -145 -57 -236z" />
<glyph unicode="&#xa3;" horiz-adv-x="602" d="M127 442v557q0 33 21.5 69t52.5 38l98 6l14 12l-131 246v195q0 49 76 124.5t125 71.5l104 -8q23 -2 86.5 -53t63.5 -72v-223l-148 -264q16 -18 97 -39q51 -12 51 -84v-412l31 -123q10 -37 -17.5 -87t-66.5 -56l-41 16l-23 -204q0 -51 41 -105q37 -45 76 -88v-20h-197 q-39 0 -39 61q0 35 13 88l-15 430q-12 -10 -30.5 -38.5t-18.5 -41.5v-350q0 -10 8 -20l7 -11q-20 -61 -54 -118q-53 -94 -102 -95q-12 0 -43 27l61 342l9 127q2 23 -23 22q-12 0 -18 -2l-9 -4zM158 442q16 -8 35 -32q6 4 26 84h-51zM166 784l18 -243q10 14 21 43l8 270 q2 70 55 74l21 -21l-23 -735l43 -88l4 377q49 119 93 119q6 0 16 -11l8 -6q23 -20 23 -28q0 -4 -11.5 -6.5t-11.5 -8.5v-301l41 -127l49 815l27 21q18 -4 24 -27l4 -24l-22 -336q49 20 49 51q0 8 -4 16l8 369q2 55 -35 80q-18 12 -65 24l-76 -47q-6 -127 0 -295 q0 -10 -17.5 -31.5t-27.5 -27.5l-14 6v324q0 18 -18.5 40.5t-37.5 22.5h-108q-18 -16 -33 -63zM213 -109q55 44 92 144q-8 8 -45 10zM236 1438h88q23 0 48 -14.5t25 -37.5q0 -35 -37.5 -61.5t-68.5 -19.5q0 -6 3 -19.5t3 -21.5q6 -35 33.5 -70t58.5 -35q18 0 56 19.5 t49 35.5q33 53 67 86v27l-45 -6q-23 0 -51.5 17.5t-28.5 39.5q0 35 56 58q28 10 71 26v166q0 80 -139 80q-35 0 -100 -29q-88 -39 -88 -92v-149zM358 1114q23 -18 45 -18q21 0 33 18h-78zM444 -6q8 -4 25 -21h90q-39 66 -80 66q-10 0 -21.5 -17.5t-13.5 -27.5zM545 459 q12 -12 19 -39t14 -33q6 0 19 4t19 4v115q-51 -29 -71 -25v-26z" />
<glyph unicode="&#xa7;" horiz-adv-x="1187" d="M129 942q0 106 21 145q10 18 122 156v184q0 106 148 195q133 80 248 80h501v-303h-110q2 10 2 20q0 23 -45 119h-348q-45 0 -113 -39q-86 -49 -94 -113l858 -714q-66 -172 -66 -174q-39 -96 -79 -166v-238q0 -76 -187 -155q-158 -68 -203 -68l-252 -25q-285 0 -309 119 l56 213q43 -14 80.5 -51t37.5 -78q0 -18 -8 -39h416q39 0 98.5 71t59.5 112q0 111 -218 225l-399 209q-217 141 -217 315zM295 915l723 -448q61 0 110 78v106l-727 459q-45 -47 -106 -195z" />
<glyph unicode="&#xaa;" horiz-adv-x="698" d="M123 954l33 414q2 16 14 45q27 16 98 37q39 10 113 39l-14 151q0 12 -24 30t-24 22q0 18 31 18h19q10 10 26 62q14 41 39 40q10 0 21 -10l22 6q39 -6 55 -75q0 -4 9 -45q18 -6 47 -21q-2 -12 -51 -27q2 -8 0 -26l-29 -117q31 -23 90 -43q88 -31 117 -47q2 -2 18 -45 q10 -43 31 -133l12 -139l-6 -271l-12 -98l-33 -59v-35l-61 -101l-13 -585l58 -82q-2 -10 -23.5 -19.5t-32.5 -9.5l-30 2q-51 4 -70 39l-12 -6q-20 0 -31 29l-8 40l-45 496l-4 -37l-27 -370l-16 -109q-10 -66 -35 -61l-15 2q-6 -2 -23.5 -15.5t-29.5 -13.5h-55l-53 10v19 l59 73l-8 521l8 106q-39 27 -43 33q-16 16 -16 49v29q-41 14 -56 122zM244 -119l51 -20q6 4 8 12l-29 8h-30zM252 668h6v12h-6v-12zM287 -61v-25h63q16 0 27 -10l22 114v31l13 86l-50 -164l-10 33l29 129l20 148zM397 1446l6 -62q13 -113 101 -303l-58 189q4 25 -11 51.5 t-15 36.5q0 4 2 8v8q4 14 -4 19.5t-8 17.5t20 29l-18 18q-14 0 -15 -12zM426 1462q18 -18 23 -18l28 37l4 -6l-22 -39l18 -43l31 90q-14 14 -14 16q0 4 2 8t2 6zM432 1679l115 -10l-86 23zM436 1522q10 -12 19 -13h26l39 133h-16q10 -4 10 -12q0 -23 -25 -22q-12 0 -38 22 l-5 -43q10 4 19 -2v-8q0 -2 -4 -6l-8 -8h18q8 -2 6 -7q-12 -14 -41 -34zM453 1384l10 -30q6 14 6 12l-16 39v-21zM459 1735q35 0 37 -15q-25 0 -27 -4q0 -12 4 -14l49 -10v41l-18 -2l-45 32v-28zM506 1073l4 -8h4l-4 10zM561 1409h6v18h-6v-18zM569 1444q53 -23 142 -74v-84 l-15 -65l27 45q2 -2 -5 -5.5t-7 -7.5v-364l26 123q8 -10 8 -25l-49 -297h17q18 0 28 41l17 311l-17 209q-4 43 -34 144q-8 14 -52 20zM592 -45l10 -49h35v-12q-4 -6 -12 -17q2 4 8 4h39l14 -16v16q-35 8 -49 43q-2 2 -19 60l-10 166q0 8 4 12l27 -111v596q-18 -2 -41 0 l-6 -53v-639zM674 625h33v49h-27v-12q10 0 12 -3v-8z" />
<glyph unicode="&#xad;" d="M164 694l20 137h734l47 -69q-59 -68 -134 -68h-667z" />
<glyph unicode="&#xb0;" horiz-adv-x="704" d="M127 1319v147q0 109 133 179q102 53 195 53q139 0 233 -84t94 -221q0 -145 -92 -236.5t-235 -91.5q-104 0 -211 74q-117 80 -117 180zM258 1415q0 -49 41 -119q61 -102 166 -100q80 2 139 82q47 64 47 115q0 66 -58 114.5t-126 59.5q-51 6 -130 -47.5t-79 -104.5z" />
<glyph unicode="&#xb1;" horiz-adv-x="968" d="M123 211q16 31 57 67.5t72 36.5h676q75 1 149 -73q0 -33 -51 -84h-827zM150 731v150h321l39 43v129q0 92 29 149h104l68 -321h268l76 -47q0 -20 -17.5 -54.5t-33.5 -48.5h-293q-14 -88 -31 -174q-27 -127 -68 -149q-88 35 -88 108q0 16 4 51t4 51q0 63 -38 113h-344z" />
<glyph unicode="&#xb2;" horiz-adv-x="598" d="M141 1427q0 51 107 105q94 47 153 47q96 0 174 -51q89 -58 89 -150q0 -59 -78 -141q-27 -29 -144 -131l41 -31q33 20 86 62l80 -15l13 -123q-25 -12 -66 -41h-453v93l379 331q0 23 -53 76l-119 -41q-12 6 -24 6t-35 -6t-35 -6t-25 6l-63 -39q-27 4 -27 49z" />
<glyph unicode="&#xb3;" horiz-adv-x="610" d="M147 1174q12 6 29 6q23 0 71 -11.5t68 -11.5h172q51 37 52 80q0 51 -78 74l-117 30q18 33 84 78t92 82q-76 80 -127 70l-184 -37q-6 135 192 135q78 0 97 -6q33 -10 139 -78v-164q0 -29 20.5 -93t20.5 -91q0 -100 -92 -152q-74 -41 -185 -45l-233 43q0 12 -10.5 44 t-10.5 47z" />
<glyph unicode="&#xb6;" horiz-adv-x="1175" d="M178 1264q0 225 88 333q98 123 322 123h688l31 -121q-12 -8 -115 -28q-86 -18 -109 -49v-1459l195 -79v-84h-252l-86 73v1524q-43 70 -119 70q-74 0 -145 -72l26 -1358q10 -33 11 -74q0 -27 -8.5 -80t-8.5 -79h-307q43 76 127 127q57 37 55 104l-22 623q-252 90 -318 190 q-53 80 -53 316z" />
<glyph unicode="&#xba;" horiz-adv-x="1323" d="M143 1137l4 39q4 37 43 36q25 0 37 -10q27 -29 88 -82q61 -33 162 -108q18 -20 45 -68q16 -29 33 -26q-20 33 -36.5 103.5t-31.5 98.5q-61 125 -151 246q-61 82 -66 90q-33 51 -32 103q0 35 14 51q4 6 43 37l59 -45q-2 -4 -2 26v17q0 33 24.5 64.5t57.5 31.5q8 0 35 -41 l27 -41q51 -47 149 -143.5t125 -172.5q27 -82 94 -206l-14 139q-37 82 -107 213q-37 29 -69 59q-88 80 -88 154v33q0 14 24.5 30.5t38.5 16.5q16 0 129 -107q106 -100 131 -131q100 -131 156 -338q29 -115 68 -194q8 -27 26 -82l51 137l11 63q12 72 51 123q47 59 112 68 l37 4q49 0 49 -41l-88 -225l-12 -74l-8 -250l29 -157l-25 -99l-10 -129q-8 -23 -29 -82q-47 -137 -227 -262q-82 -53 -246 -162q-10 6 -14 27l49 51q-16 59 -113 111q-18 10 -40.5 49t-35.5 47q-45 35 -88 133q-14 43 -51 125v21q-2 4 -6 14l-33 115v12l-4 57q-2 37 -29 115 l-104 162q-37 31 -102 86q-8 4 -27 12q-84 59 -113 156zM705 692q12 -43 34 -43q12 0 30.5 16.5t18.5 28.5v51q0 27 42 51.5t71 24.5q31 0 57.5 -40t26.5 -72l2 -115q-6 -61 -67.5 -124.5t-59.5 -113.5l2 -47q4 -10 19 -30h45q6 0 22.5 11t16.5 19v99q0 6 69.5 67.5 t83.5 93.5q11 25 15 66l-3 57q-2 59 -49 107.5t-106 56.5l-43 6h-53q-29 0 -82.5 -30.5t-65.5 -55.5q-18 -35 -26 -71q2 -8 0 -13zM836 131q0 -31 23.5 -52.5t53.5 -21.5q25 0 49.5 28.5t24.5 53.5q0 27 -21.5 52.5t-47.5 25.5q-29 0 -55.5 -28.5t-26.5 -57.5z" />
<glyph unicode="&#xbc;" horiz-adv-x="950" d="M98 784q14 31 55.5 52.5t75.5 21.5h785q43 -43 43 -86zM217 186l387 490h133v-422l142 -21v-71q-20 -12 -62 -19q-66 -10 -80 -14v-80q100 -43 123 -86q-41 -47 -74 -47h-241l-47 49q12 27 123 86v51l-37 35h-299zM358 1552l217 150q47 0 76 -47v-692h-106v503 q-25 14 -95.5 40t-91.5 46zM420 262h176q0 18 4 74q2 47 0 74q-2 45 -10 67z" />
<glyph unicode="&#xbd;" horiz-adv-x="901" d="M39 641q0 39 47 59h915q-18 -84 -65 -86l-852 -18zM178 -182l570 473q-70 139 -203 127l-283 -119q-27 4 -26 49q0 88 143 135q98 33 172 33q309 0 315 -207q4 -100 -71 -176q-51 -51 -170 -119q-125 -72 -172 -114l247 -15q27 -8 95 58h69v-129l-43 -45h-577zM315 1370 q18 35 97.5 102.5t109.5 67.5q49 0 82 -47v-678h-119v547q-35 -12 -86 -10q-53 2 -84 18z" />
<glyph unicode="&#x2000;" horiz-adv-x="906" />
<glyph unicode="&#x2001;" horiz-adv-x="1812" />
<glyph unicode="&#x2002;" horiz-adv-x="906" />
<glyph unicode="&#x2003;" horiz-adv-x="1812" />
<glyph unicode="&#x2004;" horiz-adv-x="604" />
<glyph unicode="&#x2005;" horiz-adv-x="453" />
<glyph unicode="&#x2006;" horiz-adv-x="302" />
<glyph unicode="&#x2007;" horiz-adv-x="302" />
<glyph unicode="&#x2008;" horiz-adv-x="226" />
<glyph unicode="&#x2009;" horiz-adv-x="362" />
<glyph unicode="&#x200a;" horiz-adv-x="100" />
<glyph unicode="&#x2010;" d="M164 694l20 137h734l47 -69q-59 -68 -134 -68h-667z" />
<glyph unicode="&#x2011;" d="M164 694l20 137h734l47 -69q-59 -68 -134 -68h-667z" />
<glyph unicode="&#x2012;" d="M164 694l20 137h734l47 -69q-59 -68 -134 -68h-667z" />
<glyph unicode="&#x2013;" horiz-adv-x="1091" d="M164 694l26 137h938l60 -69q-75 -68 -171 -68h-853z" />
<glyph unicode="&#x2014;" horiz-adv-x="2115" d="M164 694l51 137h1877l120 -69q-151 -68 -343 -68h-1705z" />
<glyph unicode="&#x2018;" horiz-adv-x="385" d="M156 1534q10 147 135 147q57 0 97 -50t40 -109l-22 -240q0 -61 -17 -139q-20 -100 -59 -142h-103z" />
<glyph unicode="&#x2019;" horiz-adv-x="385" d="M156 1534q10 147 135 147q57 0 97 -50t40 -109l-22 -240q0 -61 -17 -139q-20 -100 -59 -142h-103z" />
<glyph unicode="&#x201c;" horiz-adv-x="792" d="M141 1495v182q29 16 117 17q88 0 121 -17v-532l-49 -72h-99zM621 1583q-4 18 49 119h164q47 -88 47 -129l-43 -430q-59 -72 -99 -72q-51 0 -73 47q-8 18 -25 94z" />
<glyph unicode="&#x201d;" horiz-adv-x="792" d="M141 1495v182q29 16 117 17q88 0 121 -17v-532l-49 -72h-99zM621 1583q-4 18 49 119h164q47 -88 47 -129l-43 -430q-59 -72 -99 -72q-51 0 -73 47q-8 18 -25 94z" />
<glyph unicode="&#x2022;" horiz-adv-x="2764" d="M162 764q0 59 344 219q147 66 293 133q158 82 245 195q68 86 103 114q61 49 188 96.5t205 47.5l154 -19q70 0 153 -63q43 -33 131 -125q72 -76 109 -94q373 -188 659 -289q174 -61 326 -180q-172 -238 -541 -447q-317 -180 -649 -272l-264 -35l-197 16q-115 10 -417 127 q-334 129 -562 271q-281 174 -280 305zM297 731q57 -35 180 -121q117 -82 164 -102q125 -51 268 -80q86 -14 258 -45q164 -31 351 -31q256 0 497 49q457 44 889 398l-711 278l-602 -219q-338 0 -473 49l-246 119zM991 1073q35 -39 35 -61l481 -54l500 142q-18 18 -22 45 l-293 -68l-473 -33q-35 -2 -111 13q-82 16 -117 16z" />
<glyph unicode="&#x202f;" horiz-adv-x="362" />
<glyph unicode="&#x205f;" horiz-adv-x="453" />
<glyph unicode="&#x2122;" horiz-adv-x="2226" d="M158 -45l1140 1767h93l1083 -1761q-33 -57 -57 -57l-916 35l-1343 -21v37zM483 84q0 -12 19 -39l459 29l1314 -35l-348 618q-25 -76 -241 -188q-209 -111 -302 -111h-266l-387 199zM840 606l354 -129q-45 35 -94 98q-55 72 -62 117l25 92zM940 903l426 96l381 -81 l-418 649zM1466 504q334 100 381 235l-352 115q6 -8 27 -37q14 -20 14 -41v-151z" />
<glyph unicode="&#x25fc;" horiz-adv-x="1034" d="M0 0v1034h1034v-1034h-1034z" />
</font>
</defs>
</svg>
