<?xml version="1.0" standalone="no"?>
<!DOCTYPE svg PUBLIC "-//W3C//DTD SVG 1.1//EN" "http://www.w3.org/Graphics/SVG/1.1/DTD/svg11.dtd" >
<svg xmlns="http://www.w3.org/2000/svg">
<metadata></metadata>
<defs>
<font id="conspiracy_pressrelease" horiz-adv-x="2572" >
<font-face units-per-em="2048" ascent="1638" descent="-410" />
<missing-glyph horiz-adv-x="978" />
<glyph horiz-adv-x="0" />
<glyph unicode="&#xd;" horiz-adv-x="978" />
<glyph unicode=" "  horiz-adv-x="978" />
<glyph unicode="&#x09;" horiz-adv-x="978" />
<glyph unicode="&#xa0;" horiz-adv-x="978" />
<glyph unicode="!" horiz-adv-x="1060" d="M-109 786q0 219 111 426l1055 74q106 -311 106 -491q0 -209 -106 -365l-453 -16q-55 -10 -90 -107q-57 -14 -162 103h-350q-111 150 -111 376zM246 -43q0 82 80 131q70 43 155 43q209 0 209 -162q0 -111 -84 -145q-35 -14 -125 -14q-72 0 -147 38q-88 45 -88 109z" />
<glyph unicode="&#x22;" horiz-adv-x="942" d="M-135 868q0 170 139 281l64 -19q84 -6 84 76q0 29 -11.5 90.5t-11.5 92.5q0 100 107 100q27 0 50 -14.5t50 -28.5v-291h225v330h205v-330h190q135 -115 136 -305q-1 -186 -136 -352h-952q-139 193 -139 370z" />
<glyph unicode="#" horiz-adv-x="1421" d="M-109 924q0 246 113 434l275 -49h184l125 176h90q4 -10 24 -84q16 -59 50 -92h139l131 202q98 -59 121 -182q96 -72 121 -72q10 0 15 27t24 27q29 0 71.5 -28t63.5 -28q55 -33 78 -47q39 -31 61 -67q41 -68 41 -174q0 -216 -180 -564q-33 0 -94.5 10.5t-92.5 10.5 q-63 0 -178 -39q-139 -47 -184 -106q-66 -88 -103 -269l-57 -291h-92q-31 39 -31 62l103 500q8 43 -52 43h-133l-254 -631q-33 12 -63.5 52t-30.5 75l103 426q-12 20 -97 123q-61 74 -76 135q-16 0 -51 -12.5t-51 -12.5q-113 197 -113 445z" />
<glyph unicode="$" horiz-adv-x="1202" d="M-94 930q0 195 94 416l319 -19q176 129 222 234q29 -20 82 -109q41 -68 102 -68q20 0 39 5l117 24q53 -45 61 -49q37 -29 74 -37l203 -41q127 -309 127 -516q0 -205 -127 -291l-150 37q10 -147 -143 -303q-18 -18 -195 -137q-154 -104 -153 -127v-164q-57 41 -78 227 q-61 27 -195 49q-162 27 -233 50v313q92 -2 198 -90q127 -104 199 -129q25 14 90 43v268l-559 51q-94 166 -94 363zM657 233q88 -10 154 86q53 81 63 177h-215v-131q0 -33 -2 -80v-52z" />
<glyph unicode="%" horiz-adv-x="1591" d="M-147 1049q0 213 159 211l191 -54q66 246 383 246q127 0 143 -4q74 -16 178 -109q14 -12 51 -79q29 -51 60 -52l573 -61q160 -250 160 -494q0 -235 -160 -411h-243q-43 -145 -138 -242q-109 -111 -247 -111q-27 0 -70 13.5t-64 13.5q-18 -2 -34 -2q-113 0 -181 106 q-31 68 -96 205q-41 84 -106 109q-27 10 -148 26q-92 12 -143 13q-76 0 -109 -21l-90 314q-70 244 -69 383zM469 1212h287v48h-287v-48zM707 225q0 -96 118 -147h195q72 34 117 151l-88 64h-308l-28 -21q-6 -6 -6 -47z" />
<glyph unicode="&#x26;" horiz-adv-x="1413" d="M-131 762q0 211 121 346l385 -41q45 256 129 336q66 63 225 63q76 0 170 -45q109 -51 109 -118v-230h45l389 -47q162 -262 162 -551q0 -258 -162 -311q-80 -2 -135 -51q-96 -88 -131 -107l-181 103l-366 -127q-37 -8 -70 -9q-102 0 -172 80q-39 47 -121 146 q-78 78 -186 77q-41 0 -90 -10q-23 57 -64 172q-57 172 -57 324zM602 1112q29 -14 82 -53h102q29 57 29 131q0 76 -29 121h-102q-29 -14 -82 -54v-145z" />
<glyph unicode="'" horiz-adv-x="954" d="M-117 877q0 170 119 253h326q35 39 34 140v225h211v-367h388q225 -174 225 -393q0 -209 -225 -338l-732 17l-227 22q-25 61 -70 187q-49 139 -49 254z" />
<glyph unicode="(" horiz-adv-x="933" d="M-205 799q0 186 207 295q90 12 148 12q96 0 151 -39l334 575h80q31 -29 30 -71l-163 -416q31 -92 104 -88l264 -33q162 -199 162 -403q0 -199 -162 -381l-219 43q-51 -25 -51 -72q0 -31 32.5 -109.5t30.5 -115.5q0 -29 -57 -29q-63 0 -119 92q-37 78 -73 156 q-61 109 -111 109q-31 0 -66 -29l-315 49q-41 59 -119 180q-88 145 -88 275z" />
<glyph unicode=")" horiz-adv-x="1167" d="M-102 723q0 195 94 342h538q20 23 17 98l-164 432q4 18 31 58h80q88 -70 161 -223q39 -82 117 -248q57 -117 113 -121l286 -19q182 -119 183 -346q-1 -219 -183 -422h-401q-29 0 -115 -104q-125 -152 -163 -190q-66 16 -66 65q0 27 18 102q18 70 13 123h-465 q-94 297 -94 453z" />
<glyph unicode="*" horiz-adv-x="1656" d="M-158 868q0 211 160 238h373q-10 27 -60.5 49.5t-81.5 36.5v82q12 12 46 31.5t47 19.5l340 -94v393h163v-373q18 -18 41 -18l306 117q80 -61 79 -105q0 -31 -41 -61q-72 -53 -75 -58q20 -35 86 -34q20 0 68 8t71 6l307 -16q37 -72 109 -213q90 -188 90 -324 q0 -199 -199 -260h-1669q-29 63 -80 192q-80 215 -80 383z" />
<glyph unicode="+" horiz-adv-x="1214" d="M-176 715q0 174 172 225l446 14l95 125q74 -29 116 -125l555 13q94 -41 154 -111q66 -80 65 -176q0 -178 -219 -352l-1212 -58q-172 260 -172 445z" />
<glyph unicode="," horiz-adv-x="989" d="M-94 776q0 170 106 289h1010q193 -131 192 -338q1 -196 -192 -362h-356l-316 -615h-92l96 596q-18 18 -110 23l-232 12q-106 229 -106 395z" />
<glyph unicode="-" horiz-adv-x="1361" d="M-186 805q0 197 184 272h1372q246 -190 246 -403q0 -201 -246 -299h-1372q2 -6 2 -13q0 -6 -4 -6q-8 0 -47 56q-135 201 -135 393z" />
<glyph unicode="." horiz-adv-x="1069" d="M-109 768q0 164 117 229h1061q152 -133 152 -311q0 -168 -152 -324h-340q-4 -12 -4 -30t11.5 -72.5t6.5 -79.5q-10 -59 -75 -92q-55 -29 -123 -29q-106 0 -146 58q-20 31 -28.5 124t-26.5 121h-336q-20 45 -59 138q-57 145 -58 268z" />
<glyph unicode="/" horiz-adv-x="1009" d="M-106 692q0 184 110 254h518l303 600q31 2 64 -33.5t33 -66.5l-181 -502h269q160 -307 159 -487q1 -191 -159 -281h-500q-68 -43 -86 -100q-66 -207 -115 -326h-100l-51 53l112 312q-115 63 -266 63q-111 344 -110 514z" />
<glyph unicode="0" horiz-adv-x="1628" d="M-168 633q0 264 172 495h170l662 500q23 8 47 8q100 0 239 -123q72 -63 219 -231q109 -123 125 -123q27 0 79 12.5t83 12.5q215 -33 215 -314q0 -274 -215 -704h-201l-557 -252l-620 276q-12 -10 -37 -10q-33 0 -102.5 8.5t-106.5 6.5q-172 184 -172 438zM610 1135h518 q4 14 5 32q0 82 -98.5 189.5t-178.5 107.5q-66 0 -156 -87t-90 -152v-90z" />
<glyph unicode="1" horiz-adv-x="1015" d="M-182 797q0 219 186 352h160l500 309q63 -10 90 -74q2 -10 26 -127q16 -78 56 -108h184q262 -221 262 -479q0 -238 -262 -414h-184q-10 -10 -21.5 -34.5t-21.5 -35.5v-229l-58 -84h-88q-45 51 -57 190q-10 133 -70 193h-516q-84 162 -117 240q-70 170 -69 301z" />
<glyph unicode="2" horiz-adv-x="1677" d="M-236 737q0 242 240 480h309q82 129 217.5 207.5t284.5 78.5q25 0 45 -2l664 -282l168 22q190 -391 190 -598q0 -229 -190 -338h-883q-61 8 -170 -178h496q4 2 82 76q57 53 104 69q35 -33 35 -141q0 -94 -8 -117q-25 -70 -129 -100h-768q-49 0 -84 39t-35 88 q0 76 180 242q8 27 -51 28l-457 17q-240 150 -240 409zM692 1266h357q-109 82 -179 82t-178 -82z" />
<glyph unicode="3" horiz-adv-x="1538" d="M-156 895q0 184 113 287l244 26q74 211 268 275q76 25 238 24q168 0 294 -75q72 -43 164 -144q70 -76 95 -76q-16 0 129 -4q88 -2 149 0q178 -190 178 -452q0 -260 -178 -457h-246q-98 -227 -225 -336q-147 -125 -375 -125q-106 0 -246 51q-129 49 -223 117v94 q25 10 62 33l397 -108q23 -6 45 -7q92 0 188 68q106 74 91 162q6 49 -58 49h-938l-104 276q-61 186 -62 322zM492 1247h348l-160 99q-150 -59 -188 -99z" />
<glyph unicode="4" horiz-adv-x="1427" d="M-217 848q0 262 221 461l481 20q127 -6 174 70q16 47 52 143q31 78 118 78q76 0 164 -92v-203l443 14q29 -35 88 -106q240 -299 239 -522q1 -248 -327 -332l-283 -19q-61 -4 -104 -32q-51 -35 -52 -92q0 -68 29 -107q18 -25 68.5 -51.5t68.5 -46.5l-35 -82h-516v117 q100 25 113 28q82 27 82 68q0 8 -2 23.5t-2 23.5q0 45 -17 74q-10 18 -59 73h-723q-221 215 -221 492z" />
<glyph unicode="5" horiz-adv-x="1644" d="M-176 864q0 98 49 234q57 156 131 184q31 12 90 8l96 -6q137 0 218 90q45 74 92 146l583 28q121 6 173.5 -43t46.5 -172h342q252 -301 251 -536q1 -238 -251 -402q-127 10 -187 -37q-35 -27 -74 -100q-20 -41 -63 -123q-63 -111 -258 -186q-143 -55 -229 -55 q-113 0 -267 69q-180 82 -202 189q55 0 86 30l385 -104q133 -4 229 67.5t139 200.5h-1208q-172 266 -172 518z" />
<glyph unicode="6" horiz-adv-x="1677" d="M-143 825q0 274 139 494h450l664 258q66 4 211 -66q-8 -20 -18 -38q-35 -41 -129 -60l-295 -110h458l232 -58q16 12 37 12q12 0 36.5 -8t34.5 -8q63 -70 185 -213q154 -197 153 -366q0 -236 -338 -353q-33 0 -101.5 -16.5t-100.5 -16.5q-102 -4 -150 -104 q-23 -55 -72 -166q-53 -80 -198 -145q-117 -53 -162 -54q-250 0 -371 125q-86 121 -172 244q-119 139 -354 162q-139 207 -139 487zM547 250q0 -51 96 -144q111 -104 221 -106q45 0 146 55q118 68 118 140q0 45 -6 57q-16 18 -30 37z" />
<glyph unicode="7" horiz-adv-x="1773" d="M-322 1079q0 205 179 205q23 0 80 -12q66 -12 65 -25q0 -2 -2 -2q8 -6 20 -6q14 0 94.5 26.5t137.5 24.5l141 312h873q188 0 188 -172q0 -57 -18 -144q45 0 125.5 -27.5t115.5 -27.5q66 0 125 57q217 -72 217 -334q0 -270 -217 -684h-602q-119 0 -168 -86 q-20 -57 -63 -174q-41 -106 -142 -139q-88 35 -88 98q0 29 26 97.5t26 101.5q0 59 -54 102l-737 -45q-322 584 -322 854zM530 1327q2 -2 41 -49q18 -23 19 -41h536q72 0 84 74z" />
<glyph unicode="8" horiz-adv-x="1716" d="M-143 823q0 258 143 527q33 -29 147 -29q88 63 228 188q109 98 174 133q94 49 227 50q236 0 342 -119q72 -109 142 -217q92 -119 288 -119q29 0 88.5 -2t87.5 -2q195 -55 195 -330q0 -258 -195 -659l-135 24l-798 -368l-791 405q-143 291 -143 518zM563 203l240 -133 q43 2 116.5 48t96.5 85h-453zM565 1315h479q-29 51 -112 125q-94 82 -141 82q-27 0 -107 -62q-94 -72 -119 -145z" />
<glyph unicode="9" horiz-adv-x="1431" d="M-182 807q0 246 180 401q27 0 73 -12t64 -12q143 268 209 332q102 100 309 100q213 0 312 -72q57 -41 127 -180q74 -147 159 -236h195q168 -164 168 -419q0 -242 -168 -482h-385l-539 -266h-282v115l454 157h-696q-180 332 -180 574zM401 1217l387 -31q31 -4 91 -8 q51 -4 84 14q-8 82 -110.5 172t-184.5 90q-63 0 -156 -70q-106 -80 -111 -167z" />
<glyph unicode=":" horiz-adv-x="1105" d="M-143 840q0 186 125 186q14 0 28 -2l1108 102q98 -2 153.5 -65.5t55.5 -163.5q0 -202 -209 -526l-348 -27q-6 -4 -6 -10q0 -4 16.5 -35t16.5 -51q0 -68 -67.5 -131.5t-135.5 -63.5q-76 0 -135.5 50.5t-59.5 123.5q0 31 13 60q-14 20 -35 57l-367 -27q-14 12 -30 25 q-41 90 -78 223q-45 164 -45 275z" />
<glyph unicode=";" horiz-adv-x="858" d="M-125 825q0 168 127 254h872q190 -156 191 -356q-1 -201 -191 -326h-387q18 -23 52 -49q27 -23 26 -39l-237 -522h-70l-43 45q25 113 76 338q47 182 139 227h-428q-25 59 -74 183q-53 137 -53 245z" />
<glyph unicode="&#x3c;" horiz-adv-x="1142" d="M-322 711q0 215 267 274l223 -16l569 407l51 -63l-294 -350l688 14q287 -180 286 -395q1 -195 -286 -338l-1237 28q4 -25 -11 -24q-47 0 -145 151q-111 170 -111 312z" />
<glyph unicode="=" horiz-adv-x="1361" d="M-186 805q0 197 184 272h1372q246 -190 246 -403q0 -201 -246 -299h-1372q2 -6 2 -13q0 -6 -4 -6q-8 0 -47 56q-135 201 -135 393z" />
<glyph unicode="&#x3e;" horiz-adv-x="1320" d="M-104 698q0 223 108 293h653q18 12 19 35l-324 326v84h107l534 -437h332q184 -229 184 -436q0 -200 -184 -356h-1321q-10 12 -22 22q-31 84 -56 199q-31 147 -30 270z" />
<glyph unicode="?" horiz-adv-x="1185" d="M-176 717q0 199 180 231l19 -18q6 -2 40 -2q74 0 93 53q25 78 41 90q133 109 378 109q147 0 222 -29q125 -49 223 -205l168 -22q178 -125 178 -344q0 -218 -178 -404h-277q-135 0 -172 -59q-16 -51 -32 -105q-25 -53 -134 -45q-135 10 -190 139q-27 57 -41 72h-338 q-180 326 -180 539zM356 934h416q-14 6 -98 70q-66 49 -88 49q-25 0 -120 -49.5t-110 -69.5z" />
<glyph unicode="@" horiz-adv-x="1206" d="M-111 868q0 217 115 385l580 72h626q170 -250 170 -448q0 -214 -170 -404h-170q-16 -16 -16 -45v-66q-4 -27 72 -141q-27 -35 -27 -57h-483q-33 0 -142 115q-135 143 -170 170q-14 -14 -14 -33q2 -41 8 -123q16 -109 78 -238q100 -211 234 -211q25 0 49 9l221 47l55 -58 q-16 -59 -135 -100q-100 -35 -180 -35q-236 0 -387 303q-113 225 -117 422q-10 18 -82 19q-115 195 -115 417zM524 438q23 -43 66 -84q51 -49 88 -49q25 0 69 13.5t60 13.5v110l-201 54z" />
<glyph unicode="A" horiz-adv-x="1634" d="M-119 629q0 246 123 321l457 17l196 463q0 16 -43 63l-258 55q14 39 56.5 65.5t85.5 26.5h407q45 -82 148 -331q86 -209 180 -340l407 12q137 -231 138 -438q-1 -203 -138 -363l-1636 -84q2 -14 -2 -16q-20 0 -68 180q-53 203 -53 369zM686 989h299v88q-57 121 -74 152 q-55 104 -92 135z" />
<glyph unicode="B" horiz-adv-x="1736" d="M-137 770q0 215 90 215q23 0 49 -12q6 6 170 18.5t221 71.5v319q-45 49 -135 86q-106 45 -135 64q0 45 67 113h816q102 0 307 -86q252 -106 252 -228v-237q20 -20 69 -25q25 -2 138 -2q20 -10 59 -35q117 -76 117 -291q0 -262 -176 -721l-132 29l-389 -88h-1249 q-25 92 -70 279q-69 313 -69 524v6zM637 1047h684q0 25 17.5 69.5t17.5 75.5q0 92 -101 168q-94 70 -190 70h-428v-383z" />
<glyph unicode="C" horiz-adv-x="1677" d="M-141 737q0 256 151 348q45 16 90 31q55 25 72 55q129 246 315.5 361t458.5 115h498q23 -16 67 -48q39 -27 103 -47v-366q0 -29 14 -29q6 0 18.5 4t16.5 4q14 0 14 -28q137 -311 138 -559q0 -250 -138 -437l-735 -221l-686 205q-23 -12 -61 -12q-35 0 -93 8q-72 8 -92 10 q-70 137 -110.5 307t-40.5 299zM449 1122h870v107q-49 63 -189 151q-147 92 -217 93q-143 0 -288 -105q-156 -111 -176 -246z" />
<glyph unicode="D" horiz-adv-x="1855" d="M-160 754q0 219 144 362h335q47 57 48 121q0 55 -37 82l-129 94q57 125 432 125h416l692 -426l117 -18q37 -68 106 -205q88 -180 88 -334q0 -219 -194 -346h-340l-582 -217h-645l-64 65q10 35 56 70q74 57 84 68l-224 45l-159 -23l-88 232q-55 172 -56 305zM592 1133h713 q-139 213 -500 213h-213v-213zM813 174h74v47h-74v-47z" />
<glyph unicode="E" horiz-adv-x="1787" d="M-199 829q0 252 203 410h402l49 55q-35 59 -108 95q-69 34 -137 34h-7v191h1323q18 -14 56 -44t38 -75v-170q45 -51 168 -51q227 -381 227 -612q0 -252 -227 -404q-72 0 -96 25q-47 -49 -70 -129q-25 -88 -39 -111q-29 -43 -119 -45l-1110 -29q-35 0 -75 25 q-55 35 -78 41q25 66 108 104q129 59 146 70l-76 33h-375q-203 340 -203 587zM686 1303h703q0 66 -62 108h-641v-108zM711 178l680 25l-33 78l-391 30h-7q-45 0 -126 -49q-8 -4 -123 -84z" />
<glyph unicode="F" horiz-adv-x="1734" d="M-150 938q0 233 150 369l315 -15q-51 51 -88 66q-43 16 -131 47v156h1317q23 -20 80 -121q61 -106 92 -142l174 -18q139 -184 139 -418q0 -236 -139 -512h-1114q-47 -45 -47 -117q0 -51 47 -86h256q23 -20 23 -75q0 -51 -21 -92h-807v135q72 14 142 28q84 20 133 52v106 q-123 74 -228 74q-68 0 -137 -8q-25 -4 -6 -5q-150 344 -150 576zM711 1343l241 -71l299 71h-540z" />
<glyph unicode="G" horiz-adv-x="1622" d="M-98 879q0 231 102 397h229l650 223h493q122 -224 239 -224q7 0 13 1q127 -305 127 -541q0 -235 -127 -395l-145 25q-70 -39 -70 -101q0 -23 11.5 -68.5t11.5 -68.5q0 -51 -39 -90q-129 -133 -498 -141h-13q-178 0 -372 102q-236 125 -342 342h-168q-102 322 -102 539z M473 360q37 -141 199 -217q119 -55 229 -55l313 90l-28 182h-713z" />
<glyph unicode="H" horiz-adv-x="1533" d="M-119 852q0 203 121 336q53 37 137 117q32 30 95 30h4h321q37 -57 148 -172h116q31 31 31 62q0 18 -6 54t-6 54h487q9 -85 10 -85v1q0 -43 -30 -67q8 -10 18 -21q4 -4 45 -4l178 -16q135 -115 136 -344q-1 -225 -136 -475l-344 16v-164q20 -20 92 -57q61 -31 84 -70 q-33 -55 -108 -86h-381l-29 139q25 30 117 30q16 0 33 -1v160l-45 47h-502v-184l172 -74q0 -20 -19.5 -60.5t-35.5 -54.5h-430l-31 86q14 31 65 64q68 45 84 61v139l-43 21l-227 26q-25 66 -70 197q-51 156 -51 295z" />
<glyph unicode="I" horiz-adv-x="1527" d="M-80 840q0 250 80 438l604 25l51 47q1 7 1 14q0 50 -78 82h-461v199h1077q47 0 102.5 -59.5t55.5 -106.5l-303 -35h-11q-78 0 -151 -78q0 -20 49 -63l592 -58q227 -23 227 -262q0 -248 -227 -668l-533 -10q-12 -14 -40.5 -27.5t-39.5 -23.5q0 -18 52 -70h350 q43 -43 43 -125q0 -31 -10 -59h-1131q0 10 -16.5 55t-16.5 64q33 41 43 47q23 18 62 18h368q4 -4 9 -4q14 0 14 49q0 39 -25 66q-10 12 -55 47l-602 6q-80 238 -80 492z" />
<glyph unicode="J" horiz-adv-x="1888" d="M-162 827q0 229 166 365h1163v156h-471l29 157h1030v-116l-346 -82v-115l354 -49q319 -45 320 -287q0 -119 -94 -340q-98 -227 -101 -295l-512 2q-187 -278 -542 -278h-3q-227 0 -346 53q-152 68 -227 252q-31 -10 -74 -10q-31 0 -90 7t-90 7q-33 78 -94 231 q-72 186 -72 342zM670 156h321v49h-321v-49z" />
<glyph unicode="K" horiz-adv-x="1693" d="M-170 934q0 236 176 358q35 -6 60 -6q78 0 129 51q-55 55 -56 142q47 63 156 63h448q0 -133 -51 -203q55 -30 117 -30h4q41 0 84 14l160 23q0 16 -33 34q-43 25 -53 35q0 23 22.5 67t40.5 60h455q4 -12 4 -26q0 -31 -23 -91q-29 -76 -30 -84q18 -18 61 -18q39 0 176 20 q233 -244 234 -512q-1 -257 -234 -497h-299q-4 4 -8 4q-12 0 -12 -53q0 -41 78 -107l143 -115q-44 -75 -83 -75h-1h-213q-33 35 -82 129t-82 133q-61 70 -137 78q-18 2 -113 18q-47 8 -92 8q-35 0 -102.5 -36.5t-91.5 -65.5v-72q70 -29 221 -114q-61 -68 -92 -91h-508 l-64 62q39 39 152 88q69 31 69 102q0 47 -12 68l-35 39h-307q-37 84 -104 252q-72 186 -72 348z" />
<glyph unicode="L" horiz-adv-x="1781" d="M-143 963q0 252 141 421q51 12 147.5 102.5t153.5 106.5l743 -32q1 -9 1 -18q0 -102 -85 -204l824 -67q92 -158 137 -256q72 -160 72 -287q0 -225 -209 -397q0 -27 -21 -27q-10 0 -32.5 7t-32.5 7q-20 0 -21 -26v-213q-139 -123 -207 -123h-1296v137q35 35 211 35 q12 14 41 27.5t39 21.5v111q-117 84 -199 84q-31 0 -90 -3t-90 -3q-41 0 -86 2q-141 350 -141 594zM700 164h664v139h-664v-139z" />
<glyph unicode="M" horiz-adv-x="1953" d="M-211 836q0 260 221 411l426 -22q-8 45 -63 100q-72 72 -82 86q0 37 65 102h297l199 -284h330q49 55 104 162q43 82 80 110q55 43 176 43q86 0 197 -63q4 -20 4 -37q0 -74 -90 -121v-104h311q133 -98 178 -181q51 -92 51 -211q0 -253 -229 -618q-65 22 -122 22h-5 q-57 0 -127 -20q-4 -27 45 -72q37 -29 72 -57q-29 -90 -94 -115q-45 -16 -177 -16q-172 0 -270 65q12 39 87 98.5t87 98.5l-786 43q-43 2 -51 -8l-21 -33v-72l197 -57v-121h-473v111q0 29 6 47l4 18q0 6 -10 19v100h-316q-221 305 -221 576z" />
<glyph unicode="N" horiz-adv-x="2007" d="M-223 748q0 287 229 559q35 -12 84 -13q41 0 105 9q49 6 116 14v100q-45 18 -86 58q-65 60 -65 125q0 20 4 38l489 25q219 -334 248 -365q78 -84 221 -84h275q25 23 24 64v135q-41 27 -151 80q-102 49 -135 82q41 84 178 90l444 21l72 -107q-35 -84 -160 -135v-205 q80 -43 125 -43q14 0 43 8t43 8h164q166 -231 166 -534q0 -316 -166 -592l-320 29q-39 -57 -92 -221h-141q-57 66 -115 131q-88 90 -135 90h-334q-14 -20 -16 -127q-2 -49 -14 -92h-615q-39 47 -39 96q0 59 62 106q-25 25 -54 19q-23 -4 -26 -4l-199 37q-47 74 -133 223 q-96 180 -96 375z" />
<glyph unicode="O" horiz-adv-x="1941" d="M4 1225l914 436l1036 -467q139 -180 139 -479q0 -295 -139 -582l-404 14q-111 -102 -256 -178q-170 -88 -293 -88q-31 0 -57 6l-704 260q-76 20 -236 21q-192 222 -192 505q0 275 192 552zM555 1239l758 33q-47 63 -189 147q-147 88 -221 88q-61 0 -184 -86 q-135 -94 -164 -182zM801 90h82v53h-82v-53z" />
<glyph unicode="P" horiz-adv-x="1486" d="M-98 801q0 238 106 358h279v256q-90 47 -174 47l-31 90l57 60h635q209 0 342 -103q113 -86 250 -323q14 -8 127 -8q201 -311 201 -541q0 -228 -201 -361l-741 -106h-535l-209 82q-18 55 -53 168q-53 195 -53 381zM496 1161h594v86q-35 113 -203 172q-117 41 -211 41 q-104 0 -180 -57v-242z" />
<glyph unicode="Q" horiz-adv-x="1544" d="M-193 655q0 233 197 240q66 2 117 162q29 109 55 219q53 147 219 227q141 70 316 70q238 0 364 -96q156 -117 293 -459q180 0 180 -1l-41 -1q49 0 52 16q156 -125 155 -354q1 -217 -155 -473l-668 -70q45 -57 113 -57h319q-4 -55 -86 -103q-74 -43 -135 -43q-18 0 -33 5 l-371 47q-43 0 -129 -23.5t-123 -23.5q-27 0 -97 83.5t-95 83.5h5q0 -1 -89 -8q-15 -1 -32 -1q-54 0 -134 9q4 -16 4 -24q0 -12 -4 -12q-12 0 -49 71q-55 106 -96 232q-51 160 -52 284zM291 991h770q60 1 72 60q-10 125 -119 258q-115 145 -234 145h-114q-109 0 -242 -133 t-133 -244v-86z" />
<glyph unicode="R" horiz-adv-x="1662" d="M-156 692q0 279 154 359q39 0 123 16t125 16t51 29q14 45 20 51v338l-264 90q29 57 97 103q51 35 67 35h725q246 0 393 -119q158 -129 158 -373q0 -61 -10 -129h174q86 -133 125 -217q76 -164 76 -311q0 -244 -201 -457h-1659q4 -37 -4 -37q-29 0 -86 199 q-63 221 -64 407zM567 1096h654v270q-111 186 -437 186q-172 0 -217 -36v-420z" />
<glyph unicode="S" horiz-adv-x="1427" d="M-145 752q0 225 139 280q0 35 61 43q80 12 95 19q23 281 169 409q143 123 422 123h412q63 0 107 -117q32 -85 32 -128q0 -33 -14 -95.5t-14 -93.5q-16 -14 -31 -31q-8 -4 -51 -4q-14 0 -82 78q-90 102 -150 147q-104 78 -211 78q-115 0 -221 -57q-139 -74 -139 -205 q0 -51 39 -89t90 -38h919q276 -195 277 -450q-1 -277 -277 -484l-702 -143l-457 29q-39 2 -131 49q-109 55 -143 65q-47 141 -72 228q-68 229 -67 387z" />
<glyph unicode="T" horiz-adv-x="1662" d="M-106 721q0 252 106 326q8 2 35 10q63 20 63 59v461h1424v-426q0 -37 -21 -37q-4 0 -10 2h-8q-6 0 -4 -8q14 -14 102 -49q70 -27 82 -31q123 -176 123 -379q0 -172 -98 -493l-1371 -29l-317 16l-25 50q-81 265 -81 522v6zM375 1073h321v328h-321v-328zM899 1122 q84 -84 199 -84h149v363h-348v-279z" />
<glyph unicode="U" horiz-adv-x="2017" d="M-162 885q0 238 152 238q8 0 16 -1h4q23 0 63 22q44 24 62 42l62 -60q18 12 92 17q47 2 53 59v174q0 29 -4 94q-2 45 6 62v110h512l33 -120q-29 -14 -117 -39q-78 -23 -121 -51v-195l54 -39h725v264l-211 121q16 41 67 75t96 34l396 -35q0 -63 32 -98q-18 -31 -149 -99 v-254q8 -12 170 -12q158 0 213 20q158 -150 158 -409q0 -260 -158 -627l-481 -31q-41 -16 -152 -86q-100 -63 -145 -75q-57 -16 -211 -17q-160 0 -213 13q-143 33 -240 168l-596 -31l-86 295q-82 291 -82 471z" />
<glyph unicode="V" horiz-adv-x="1966" d="M-111 795q0 242 101 397q27 16 90 16q27 0 81 -4t81 -4q106 0 106 90q0 98 -180 219q4 141 315 142q250 0 316 -107q-35 -35 -109 -76l-133 -73q35 -113 141 -166l654 26q82 74 82 164q-8 6 -134 78q-74 43 -108 80q33 43 45 53q25 20 63 21h234q135 0 270 -19l17 -157 q-106 -55 -125 -72q-47 -45 -58 -152l422 27q199 -205 199 -516q0 -307 -199 -569h-788q-29 -33 -129 -195q-57 -94 -117 -94q-55 0 -111 76q-88 121 -110 141q-84 76 -205 76h-610q-100 391 -101 598z" />
<glyph unicode="W" horiz-adv-x="1820" d="M-176 834q0 252 162 434l247 26l-110 105q0 35 61 100l445 -16l18 -115q-12 -18 -57 -35q-63 -25 -82 -37h588q12 27 12 56q0 18 -8 57t-8 57q180 61 288 62q113 0 156 -8q131 -25 131 -123q0 -43 -27 -101l193 35l111 -266q92 -231 92 -393q0 -235 -203 -303h-391 q-45 -53 -72 -230q-25 -160 -98 -217q-96 45 -139 158q-31 82 -66 174q-53 84 -184 84q-106 0 -160 -113l-111 -299h-127l-86 334q-49 35 -114 35q-43 0 -127 -19.5t-127 -19.5q-25 0 -45 4q-162 330 -162 574z" />
<glyph unicode="X" horiz-adv-x="1689" d="M-203 885q0 233 203 391q96 225 399 225q156 0 211 -51l56 -94q29 -49 120 -49q102 0 148 32q23 16 48.5 77t49.5 83l385 -69q10 16 27 16q8 0 25.5 -8t25.5 -8q6 0 10 2l205 -76q258 -233 258 -492q0 -251 -258 -495h-418l-20 -72q23 -63 104 -139q74 -72 144 -105 q-29 -88 -93 -112q-41 -16 -170 -17q-117 0 -286 60q-1 4 -1 8q0 35 48 82q45 45 88 63q-41 109 -70 150q-51 72 -133 80h-172q-37 0 -96 -74l-111 -137q12 -31 70 -66q76 -47 94 -65q0 -51 -63 -93h-539v125q123 10 182 54q31 23 71 94t75 98q0 14 -47 66l-367 6 q-203 264 -203 510z" />
<glyph unicode="Y" horiz-adv-x="1581" d="M-170 840q0 248 172 426l311 110h174l392 -104l446 131q57 -16 274 -193q201 -102 201 -350q0 -231 -201 -536l-649 16v-258q43 -43 170 -49q115 -6 140 -60q0 -27 -81 -73.5t-116 -46.5l-612 57q0 23 20.5 65.5t36.5 59.5h209q12 27 47 71v173l-436 57l-326 20 q-172 227 -172 484z" />
<glyph unicode="Z" horiz-adv-x="1574" d="M-223 813q0 244 227 391l225 -24q94 16 121 67q12 41 27 82q27 39 125 39h758l108 -190h217q268 -213 268 -455q0 -237 -268 -483h-166q-72 -66 -71 -148v-170q-70 -88 -125 -88h-838q-61 57 -61 133q0 70 108 228q1 5 1 9q0 34 -56 34h-201l-172 -25q-100 176 -141 264 q-86 190 -86 336zM594 43q0 -16 4 -31h557v166l-332 86q-86 -4 -157.5 -70.5t-71.5 -150.5z" />
<glyph unicode="[" horiz-adv-x="1050" d="M-160 784q0 176 162 271q23 0 69 6t68 6q31 0 56 -8l137 57v244q18 68 67 84q25 8 127 8q121 0 197 -53q-37 -35 -92 -72q-88 -6 -125 -55v-160l26 -35h519q193 -225 192 -418q1 -184 -192 -290l-547 -17v-270h237v-113h-407v383l-332 -14q-33 59 -94 182 q-68 143 -68 264z" />
<glyph unicode="\" horiz-adv-x="1009" d="M-156 457q0 -189 160 -281h500q68 -43 86 -100q66 -207 115 -326h100l51 53l-113 314q121 63 267 63q113 338 112 512q0 184 -112 256h-518l-304 598q-29 4 -62.5 -33.5t-33.5 -66.5l180 -500h-268q-160 -309 -160 -489z" />
<glyph unicode="]" horiz-adv-x="968" d="M-252 815q0 172 254 260h389q8 18 45 58v133q-66 20 -131 41q-102 37 -102 65q0 39 47 68h346v-310l45 -55h328q260 -180 260 -389q0 -190 -260 -299h-207q-127 0 -154 -57q-10 -23 -10 -131v-170l-37 -39h-336v90q14 6 119 12q86 6 92 43v201q-10 18 -45 51h-389 q-121 131 -152 174q-102 141 -102 254z" />
<glyph unicode="_" horiz-adv-x="1394" d="M-150 874q0 186 146 228h1399q141 -45 141 -232q0 -180 -141 -426h-1399q-145 258 -146 430zM55 -27v84h1239v-84h-1239z" />
<glyph unicode="a" horiz-adv-x="1574" d="M-188 797q0 264 192 297h594l367 80q-72 78 -248 126l-383 -116l-129 65q4 98 117 142q94 27 186 55l237 29q141 -25 297 -101q90 -43 224 -127q102 -63 123 -63q18 0 52 4t52 4q39 0 82 -14q242 -215 242 -486q0 -252 -242 -471l-1571 -117q-16 31 -47 97 q-51 121 -94 272q-51 184 -51 324z" />
<glyph unicode="b" horiz-adv-x="1484" d="M-203 735q0 264 201 264h244v459q0 37 -66 72q-57 33 -98 33l31 131h262q27 -23 55 -43q33 -33 33 -76v-463l348 141l676 -198q184 -266 184 -510q0 -233 -184 -393l-592 -144l-387 82l-207 -55q-37 0 -108.5 12t-108.5 12q-61 0 -82 -22q-25 -2 -109 242 q-92 268 -92 456z" />
<glyph unicode="c" horiz-adv-x="1767" d="M-137 725q0 233 135 379l377 18l485 99l354 -84l132 57l172 -68h264q166 -229 166 -481q0 -242 -166 -414l-236 -32l-715 -258l-581 229l-103 -57q-32 32 -142 32h-7q-135 373 -135 580z" />
<glyph unicode="d" horiz-adv-x="1935" d="M-166 621q0 250 164 415l360 35l469 88l402 -92q0 59 29.5 161.5t29.5 143.5q0 63 -57 109l-414 61v8q0 33 29 66q33 37 69 39l474 28q35 -33 94 -96v-520l467 29q186 -281 186 -512q0 -246 -186 -473l-211 -21q-37 -23 -47 -72q-6 -31 -6 -116h-300q-25 0 -62.5 43 t-72.5 43q-27 0 -176 -57.5t-250 -59.5l-585 215h-242q-164 272 -164 535z" />
<glyph unicode="e" horiz-adv-x="1656" d="M-156 887q0 225 148 254q35 0 102.5 -11.5t100.5 -11.5q29 0 71.5 26.5t67.5 26.5h1339q231 -260 232 -495q-1 -230 -232 -404q2 -33 -69 -43q-6 0 -99 -4q-57 -309 -704 -352l-692 305h-117q-31 111 -88 334q-59 233 -60 375zM569 168q90 -100 187 -100q45 0 82 26 l479 125z" />
<glyph unicode="f" horiz-adv-x="1486" d="M-209 784q0 219 213 318h432q129 270 279 342q80 39 299 39h348v-146q-63 -18 -172 -18q-49 0 -146.5 8t-146.5 8q-29 0 -88 -51t-102 -117q0 -10 28 -32q37 -29 41 -33l711 -17q39 -66 115 -198q86 -162 86 -309q0 -213 -201 -353l-756 8v-118q78 -43 129 -43l270 24 q25 -27 82 -84q0 -35 -57 -92h-868l-60 57q0 37 60 93h151l70 45v118l-504 -20q-41 74 -119 225q-94 193 -94 346z" />
<glyph unicode="g" horiz-adv-x="1298" d="M-268 664q0 115 397 438l1169 -25q190 -109 191 -317q0 -197 -191 -387q-90 0 -90 2q0 1 21 2q-88 -6 -88 -41v-375q0 -31 -35 -57l-41 -33q-10 -59 -84 -133q-98 -98 -215 -98h-360q-27 27 -27 108l321 25q72 18 152 96q88 84 88 151q0 12 -2 21l-39 162l-285 -115 q-23 0 -68.5 11.5t-68.5 11.5q-63 2 -192 86q-156 100 -156 198q-72 59 -264 146q-133 59 -133 123zM401 354q29 -108 186 -108h3q90 0 213 82z" />
<glyph unicode="h" horiz-adv-x="1757" d="M-180 823q0 231 182 416h301q18 23 21 66v139q-12 8 -78 33q-49 18 -84 53q23 41 76 68.5t102 27.5h137q16 -31 74 -88v-139l37 -160h1186q195 -168 194 -422q1 -243 -194 -528l-379 22l-21 -100q12 -37 64 -69q49 -30 89 -29h5v-156h-420q-31 16 -88 61q0 33 47 70 l88 72v131q-51 43 -80 43l-221 -55q-32 26 -124 26h-7q-53 0 -178 -45v-100q23 -18 90 -49q59 -29 86 -56q0 -37 -29.5 -67.5t-66.5 -30.5h-410q0 18 -14.5 63.5t-14.5 63.5q6 4 80 29q49 16 80 47v104q-37 31 -78 39q-25 2 -71 6l-199 29q-182 246 -182 485z" />
<glyph unicode="i" horiz-adv-x="1466" d="M-141 868q0 227 139 318h1489q223 -164 223 -414q0 -241 -223 -526h-631q0 -10 -18 -19q-25 -12 -31 -18q39 -41 106 -41q20 0 93 4q28 1 51 1t41 -1q80 -6 125 -10v-168h-957l-86 51v109h344l23 86h-549q-29 92 -82 274q-57 203 -57 354zM573 1360v250h179v-307 q-125 0 -179 57z" />
<glyph unicode="j" horiz-adv-x="1218" d="M-129 752q0 211 129 342l1219 -9q49 -115 145 -344q68 -164 68 -262q0 -159 -213 -190q-35 20 -140 20q-78 0 -168 -59v-244q0 -100 -121.5 -208.5t-224.5 -108.5h-362v129h340q78 0 147 102q66 96 66 178q0 84 -60 158h-682q-143 268 -143 496zM602 1208v164 q51 51 88 51q43 0 111 -73v-144q-53 -49 -101 -49q-47 0 -98 51z" />
<glyph unicode="k" horiz-adv-x="1677" d="M-201 877q0 238 191 372l184 19l78 39v159l-207 121q37 37 94 70q66 35 111 35q51 0 123.5 -19.5t107.5 -46.5v-362l1196 4q184 -303 185 -551q0 -293 -271 -443h-297l-49 -63q27 -80 113 -100l233 -33v-129l-571 -23q-27 27 -27 101v34q2 23 2 35q0 86 -36.5 124 t-122.5 38l-299 -27q-39 -129 -50 -155q-33 -92 -69 -148l-309 -16q0 27 -15.5 81t-15.5 85h176q0 6 12.5 35.5t12.5 56.5q0 106 -105 106l-184 17q-190 362 -191 584z" />
<glyph unicode="l" horiz-adv-x="1626" d="M-217 805q0 231 197 364h651q12 8 23.5 33t21.5 35v152l-47 47h-240l-90 59q-2 33 28.5 65.5t63.5 34.5l410 27q63 -55 63 -145v-213l74 -97h676q207 -233 207 -479q0 -240 -207 -465h-678l-47 -49q0 -14 47 -61l395 -17l17 -112q-31 -16 -88 -58h-926l-90 64 q66 100 174 123l262 24v6q0 80 -102 80h-598q-41 80 -117 242q-80 180 -80 340z" />
<glyph unicode="m" horiz-adv-x="2246" d="M-240 799q0 293 236 538h2240q283 -330 283 -682q0 -338 -283 -551h-206q-31 -33 -41 -112q-10 -86 -27 -111q-33 -49 -139 -49q-96 0 -156 76q-61 96 -121 194h-186q-12 -20 -21 -120q-10 -92 -47 -148h-215q-12 12 -82 125q-57 92 -121 131q-18 10 -89.5 19.5 t-102.5 25.5l-84 -53l131 -92q0 -29 -26.5 -81t-49.5 -73h-454q0 4 -19.5 28.5t-19.5 67.5q0 41 43 72q68 49 92 78q-61 39 -150 59q-135 31 -149 35q-236 330 -236 623zM2159 1636q0 29 36 37h58q76 0 76 -28q0 -39 -76 -62h-58q-37 27 -36 53z" />
<glyph unicode="n" horiz-adv-x="2295" d="M-178 834q0 311 178 434l1196 92h1100q156 -193 192 -254q109 -182 109 -358q0 -292 -301 -558q-61 4 -92 5q-317 0 -392 -232l-489 78q-39 -6 -68 -6q-63 0 -79 24l-603 -129h-5q-68 0 -189 50q-49 23 -148 63l-231 86q-20 33 -39 64q-53 131 -90 276q-49 197 -49 365z " />
<glyph unicode="o" horiz-adv-x="1384" d="M-152 834q0 348 127 348q12 0 25 -2q88 -82 227 -82q84 0 258 44q166 42 249 42h7l643 -103q195 -197 195 -485q0 -287 -195 -518l-686 -168l-510 223q-6 -6 -18 -6q-35 0 -126 36t-130 38q-14 61 -35 221q-31 238 -31 412z" />
<glyph unicode="p" horiz-adv-x="1464" d="M-143 752q0 215 147 331q43 0 137 43q102 47 148 54q9 1 18 1q80 0 170 -94q57 41 176 82q109 36 167 36q11 0 20 -1l313 -49h334q186 -141 186 -375q0 -217 -186 -432l-662 -168l-252 70q-35 -10 -104 -62v-280h295v-115h-500l-55 49q18 18 47 60.5t47 60.5v225l-41 48 h-258q-27 59 -78 178q-70 178 -69 338z" />
<glyph unicode="q" horiz-adv-x="1421" d="M-166 743q0 215 176 353q70 29 191 116q129 92 192 123q95 45 188 45q18 0 35 -2l316 -100q4 0 35.5 37t66.5 37h258q0 -18 13.5 -59.5t13.5 -59.5l-152 -76q0 -35 45 -84h232q201 -258 201 -491q0 -248 -201 -363q-6 0 -33 11.5t-51 11.5q-190 0 -191 -127 q0 -68 99 -160v-90h-574v115h256q43 45 43 110q0 41 -14 68q-8 14 -53 65h-916q-35 68 -100 203q-76 166 -76 317zM412 1116h403l-149 111z" />
<glyph unicode="r" horiz-adv-x="1533" d="M-215 756q0 258 174 258q18 0 37 -2q59 61 74 139q10 59 73 90h398l80 -139l466 194l482 -227q219 -104 219 -348q0 -234 -219 -541l-398 -53h-223l-833 -47q-86 86 -119 86q2 -25 2 -43q0 -35 -10 -35q-41 0 -119 231q-84 248 -84 437z" />
<glyph unicode="s" horiz-adv-x="1609" d="M-166 752q0 260 170 323h207l426 201h657q74 0 103 -57l51 -105q41 -43 132 -43q18 0 38 2q186 -342 186 -567q0 -234 -186 -363l-238 -61h-454l-541 -29l-155 59q-156 60 -226 60q-16 10 -33 23q-49 96 -88 237q-49 178 -49 320z" />
<glyph unicode="t" horiz-adv-x="1509" d="M-227 725q0 276 227 360l137 -24q10 0 10 6q0 8 -18 37q-25 37 -33 55q47 47 140 82q113 41 139 62v346q0 43 20 53l41 20q9 2 18 2q32 0 72 -24q52 -32 68 -70v-366h633l26 -207l279 28q182 -276 182 -491q0 -240 -182 -469l-674 -100h-862q-223 408 -223 700z" />
<glyph unicode="u" horiz-adv-x="1900" d="M-127 770q0 229 125 367q100 0 125 -27q12 6 156 92q84 51 143 51l326 -114l167 57h259l260 55q20 -27 39 -53q27 -31 71 -31q37 0 112 9.5t111 9.5q88 0 129 -25q199 -168 199 -401q0 -230 -199 -498q-88 -18 -139 -69q-41 -45 -125 -134l-233 70q-35 -4 -62 -4 q-55 0 -67 18l-408 -141l-473 127l-391 76q-125 348 -125 565z" />
<glyph unicode="v" horiz-adv-x="1449" d="M-104 797q0 240 102 387l1470 86q154 -266 154 -539q0 -264 -154 -483l-446 -29l-313 -282q-74 4 -134 110l-90 172l-487 -22q-20 80 -59 243q-43 188 -43 357z" />
<glyph unicode="w" horiz-adv-x="1544" d="M-43 756q0 268 47 481h1557q59 -188 59 -426q0 -228 -59 -535q-23 2 -45 3q-295 0 -383 -402h-132l-198 426h-98l-142 -426h-160q-20 80 -65 240q-45 147 -154 184l-180 -25q-47 213 -47 480z" />
<glyph unicode="x" horiz-adv-x="1603" d="M-162 938q0 248 162 422l1628 -37q100 66 156 66q74 0 74 -113q0 -150 -125 -492q-41 -113 -129 -346l-435 -14l-20 -74l324 -274q-55 -37 -138 -66q-75 -28 -124 -28q-13 0 -23 2l-225 30q-1 8 -1 17q0 38 15 84q18 47 37 94q-57 61 -113 125q-68 63 -127 80l-246 -230 l107 -102q0 -43 -62 -96h-444q0 18 -14.5 63t-14.5 64q61 10 170 86q123 86 152 168q-145 39 -209 39q-106 0 -213 -50q-162 350 -162 582z" />
<glyph unicode="y" horiz-adv-x="1300" d="M-197 838q0 223 201 364h1296q152 -100 185 -129q141 -127 141 -260q0 -207 -326 -424h-331q-68 0 -187 -252q-106 -225 -106 -256q0 -33 59 -61q90 -45 103 -56q-27 -29 -78 -77h-570v129h259l180 346q-35 84 -70 166q-35 61 -131 65l-424 15q-201 199 -201 430z" />
<glyph unicode="z" horiz-adv-x="1419" d="M-133 844q0 223 137 375h1426q215 -231 215 -482q0 -235 -215 -401l-230 -12v-289q-61 -86 -115 -86h-821l-84 59v86l127 154q0 67 -65 67h-2h-236q-137 309 -137 529zM463 135l532 -29q0 27 13.5 80.5t13.5 65.5q-86 55 -242 55q-111 0 -157 -18q-92 -35 -160 -154z" />
<glyph unicode="&#xa1;" d="M158 383v397h84l88 -213v213h69v-397h-65l-107 272v-272h-69zM438 496v182q0 45 38 74.5t85 29.5q45 0 84 -28.5t39 -73.5v-188q0 -37 -41 -78t-78 -41q-39 0 -83 42t-44 81zM461 881v407h137q37 0 61.5 -39t24.5 -78t-24.5 -77.5t-61.5 -38.5h-68v-174h-69zM498 586 q0 -25 16 -76q23 -68 47 -80q27 20 47 84q19 54 17 72q-8 156 -64 155q-31 0 -49 -65q-14 -49 -14 -90zM528 1114h64q33 28 33 57t-33 58h-64v-115zM694 729v51h232v-47h-74v-350h-70v346h-88zM723 881v405h65v-405h-65zM840 991v185q0 49 39 80.5t88 31.5q63 0 86 -33 q6 -12 28 -102h-63q-8 27 -14 53q-12 33 -37 33q-70 0 -70 -156t70 -155q12 0 22 10l27 27v59h65v-63q0 -29 -43 -61t-71 -32q-41 0 -84 41t-43 82zM1094 1227v59h231v-55h-74v-350h-69v346h-88zM1143 383v397h192v-47h-133v-104h94l11 -62h-105v-184h-59zM1356 496v182 q0 47 38 75.5t85 28.5q45 0 82.5 -29.5t37.5 -72.5v-188q0 -37 -39.5 -78t-76.5 -41q-39 0 -83 43t-44 80zM1356 963v323h57v-297q0 -61 55 -61q18 0 37 18l8 8v332h66v-346q0 -25 -43 -48.5t-68 -23.5q-39 0 -75.5 28t-36.5 67zM1415 586q0 -23 15 -70q20 -66 49 -86 q27 18 47 84q16 56 16 72q-8 156 -63 155q-31 0 -49 -63q-14 -49 -15 -92zM1640 881v407h129q35 0 69 -37.5t34 -74.5q0 -27 -21.5 -62t-46.5 -47l68 -186h-66l-67 184h-39v-184h-60zM1649 465v315h57v-288q0 -23 16.5 -42.5t38.5 -19.5q18 0 37 19l8 8v323h66v-336 q0 -25 -42 -48t-69 -23q-39 0 -75.5 26.5t-36.5 65.5zM1698 1114h35q47 20 47 21q24 14 24 41q0 39 -43 53h-63v-115zM1923 383v397h84l88 -213v213h70v-397h-66l-106 272v-272h-70zM1923 881v405h193v-55h-136v-105h136v-61h-136v-125h136v-59h-193zM2216 383v397h119 q112 1 112 -194q0 -203 -131 -203h-100zM2273 440h56q41 43 47 66q4 14 4 80q0 145 -64 145h-43v-291z" />
<glyph unicode="&#xa2;" horiz-adv-x="1441" d="M-158 557q0 217 162 541q55 -2 137 0l127 4q88 0 271 158q166 143 186 198q35 -16 65.5 -66.5t32.5 -91.5q180 -96 291 -96q25 0 77 10.5t85 10.5q-6 -45 35 -119q47 -86 119 -86q14 0 26 2q135 -182 135 -418q0 -227 -135 -420l-639 -102v-178l-92 -58q-53 125 -68 236 l-155 94q-92 55 -133 55h-365q-47 47 -94 97q-68 92 -68 229z" />
<glyph unicode="&#xa3;" d="M158 383v397h84l88 -213v213h69v-397h-65l-107 272v-272h-69zM438 496v182q0 45 38 74.5t85 29.5q45 0 84 -28.5t39 -73.5v-188q0 -37 -41 -78t-78 -41q-39 0 -83 42t-44 81zM461 881v407h137q37 0 61.5 -39t24.5 -78t-24.5 -77.5t-61.5 -38.5h-68v-174h-69zM498 586 q0 -25 16 -76q23 -68 47 -80q27 20 47 84q19 54 17 72q-8 156 -64 155q-31 0 -49 -65q-14 -49 -14 -90zM528 1114h64q33 28 33 57t-33 58h-64v-115zM694 729v51h232v-47h-74v-350h-70v346h-88zM723 881v405h65v-405h-65zM840 991v185q0 49 39 80.5t88 31.5q63 0 86 -33 q6 -12 28 -102h-63q-8 27 -14 53q-12 33 -37 33q-70 0 -70 -156t70 -155q12 0 22 10l27 27v59h65v-63q0 -29 -43 -61t-71 -32q-41 0 -84 41t-43 82zM1094 1227v59h231v-55h-74v-350h-69v346h-88zM1143 383v397h192v-47h-133v-104h94l11 -62h-105v-184h-59zM1356 496v182 q0 47 38 75.5t85 28.5q45 0 82.5 -29.5t37.5 -72.5v-188q0 -37 -39.5 -78t-76.5 -41q-39 0 -83 43t-44 80zM1356 963v323h57v-297q0 -61 55 -61q18 0 37 18l8 8v332h66v-346q0 -25 -43 -48.5t-68 -23.5q-39 0 -75.5 28t-36.5 67zM1415 586q0 -23 15 -70q20 -66 49 -86 q27 18 47 84q16 56 16 72q-8 156 -63 155q-31 0 -49 -63q-14 -49 -15 -92zM1640 881v407h129q35 0 69 -37.5t34 -74.5q0 -27 -21.5 -62t-46.5 -47l68 -186h-66l-67 184h-39v-184h-60zM1649 465v315h57v-288q0 -23 16.5 -42.5t38.5 -19.5q18 0 37 19l8 8v323h66v-336 q0 -25 -42 -48t-69 -23q-39 0 -75.5 26.5t-36.5 65.5zM1698 1114h35q47 20 47 21q24 14 24 41q0 39 -43 53h-63v-115zM1923 383v397h84l88 -213v213h70v-397h-66l-106 272v-272h-70zM1923 881v405h193v-55h-136v-105h136v-61h-136v-125h136v-59h-193zM2216 383v397h119 q112 1 112 -194q0 -203 -131 -203h-100zM2273 440h56q41 43 47 66q4 14 4 80q0 145 -64 145h-43v-291z" />
<glyph unicode="&#xa7;" horiz-adv-x="1585" d="M-281 874q0 141 127 142q63 0 154 -33l201 -33q14 -10 47 -10q23 0 49 4q20 25 37 94q18 84 26 99q12 29 61.5 76t53.5 92q-4 66 10 192q25 80 144 141q104 53 198 54h400q68 -63 67 -138l-49 -133q-51 31 -71 62q-43 63 -62 84h-244q-25 0 -118 -39t-103 -58v-77 l662 -443l276 29q47 -27 92 -53q82 -70 82 -195q0 -178 -174 -459l-293 -43q-6 2 -14 2q-33 0 -149.5 -81.5t-155.5 -88.5l-420 -20q-129 23 -152 190l-135 -43l-24 -28q-12 -14 -43 -15q-29 0 -55.5 21.5t-28.5 21.5l-113 -18q-283 481 -283 704zM502 1034q0 -47 26 -65 h346l-86 196h-219q-20 -31 -43 -61q-25 -41 -24 -70zM608 203h353l-115 47l-144 -41q-10 10 -34 10q-59 0 -60 -16z" />
<glyph unicode="&#xaa;" d="M158 383v397h84l88 -213v213h69v-397h-65l-107 272v-272h-69zM438 496v182q0 45 38 74.5t85 29.5q45 0 84 -28.5t39 -73.5v-188q0 -37 -41 -78t-78 -41q-39 0 -83 42t-44 81zM461 881v407h137q37 0 61.5 -39t24.5 -78t-24.5 -77.5t-61.5 -38.5h-68v-174h-69zM498 586 q0 -25 16 -76q23 -68 47 -80q27 20 47 84q19 54 17 72q-8 156 -64 155q-31 0 -49 -65q-14 -49 -14 -90zM528 1114h64q33 28 33 57t-33 58h-64v-115zM694 729v51h232v-47h-74v-350h-70v346h-88zM723 881v405h65v-405h-65zM840 991v185q0 49 39 80.5t88 31.5q63 0 86 -33 q6 -12 28 -102h-63q-8 27 -14 53q-12 33 -37 33q-70 0 -70 -156t70 -155q12 0 22 10l27 27v59h65v-63q0 -29 -43 -61t-71 -32q-41 0 -84 41t-43 82zM1094 1227v59h231v-55h-74v-350h-69v346h-88zM1143 383v397h192v-47h-133v-104h94l11 -62h-105v-184h-59zM1356 496v182 q0 47 38 75.5t85 28.5q45 0 82.5 -29.5t37.5 -72.5v-188q0 -37 -39.5 -78t-76.5 -41q-39 0 -83 43t-44 80zM1356 963v323h57v-297q0 -61 55 -61q18 0 37 18l8 8v332h66v-346q0 -25 -43 -48.5t-68 -23.5q-39 0 -75.5 28t-36.5 67zM1415 586q0 -23 15 -70q20 -66 49 -86 q27 18 47 84q16 56 16 72q-8 156 -63 155q-31 0 -49 -63q-14 -49 -15 -92zM1640 881v407h129q35 0 69 -37.5t34 -74.5q0 -27 -21.5 -62t-46.5 -47l68 -186h-66l-67 184h-39v-184h-60zM1649 465v315h57v-288q0 -23 16.5 -42.5t38.5 -19.5q18 0 37 19l8 8v323h66v-336 q0 -25 -42 -48t-69 -23q-39 0 -75.5 26.5t-36.5 65.5zM1698 1114h35q47 20 47 21q24 14 24 41q0 39 -43 53h-63v-115zM1923 383v397h84l88 -213v213h70v-397h-66l-106 272v-272h-70zM1923 881v405h193v-55h-136v-105h136v-61h-136v-125h136v-59h-193zM2216 383v397h119 q112 1 112 -194q0 -203 -131 -203h-100zM2273 440h56q41 43 47 66q4 14 4 80q0 145 -64 145h-43v-291z" />
<glyph unicode="&#xad;" horiz-adv-x="1361" d="M-186 805q0 197 184 272h1372q246 -190 246 -403q0 -201 -246 -299h-1372q2 -6 2 -13q0 -6 -4 -6q-8 0 -47 56q-135 201 -135 393z" />
<glyph unicode="&#xb0;" horiz-adv-x="1173" d="M-86 776q0 209 84 332q158 70 235 178q31 43 103 146q66 61 227 61q115 0 221 -78q37 -27 158 -147q78 -78 127 -78q27 0 64.5 11t46.5 11q117 -205 116 -467q1 -257 -116 -458l-797 -19q-25 16 -76 17q-33 0 -176 -23h-133q-16 66 -47 197q-37 166 -37 317zM377 1188 h375q-23 51 -90 112q-74 68 -123 68q-78 0 -162 -111v-69z" />
<glyph unicode="&#xb1;" horiz-adv-x="1327" d="M-90 786q0 219 82 396l1347 141l62 -41q102 -84 102 -264q0 -234 -164 -629l-1347 -110q-82 336 -82 507zM135 88q0 57 55 102h951l90 -63q0 -37 -44 -83t-83 -46h-944q-25 55 -25 90z" />
<glyph unicode="&#xb2;" horiz-adv-x="942" d="M-186 764q0 207 182 192l412 64q2 -41 49 -41h497q242 -33 353 -148q63 -70 63 -147q0 -55 -33 -115q-86 -155 -383 -290h-958q-2 -2 -6 -3q-29 0 -96 158q-80 188 -80 330zM307 1286v70l391 330q0 23 -55 77h-135q-29 0 -74 -43q-55 -51 -67 -59q-31 25 -60 25v71 q41 39 138.5 82t150.5 43q92 0 160 -47q76 -53 82 -141q6 -84 -62 -162q-57 -66 -143 -109q2 -14 -17 -32q6 -6 11 -13h10q27 4 49.5 8.5t54.5 24.5q51 29 70 29q23 -25 23 -78q0 -61 -43 -102h-429z" />
<glyph unicode="&#xb3;" horiz-adv-x="1026" d="M-217 731q0 162 219 219h1038q102 -25 172 -84q86 -70 86 -164q0 -165 -258 -372h-1038q-219 231 -219 401zM227 1307q16 6 39 6q25 0 72 -9.5t72 -9.5h147q49 39 49 76q0 53 -71 78q-94 33 -134 90q6 -4 23 -4q41 0 92 20q61 23 72 54q-27 63 -68 86h-252v90h289 q37 0 94.5 -42t61.5 -77q2 -18 -25 -135q-2 -12 23.5 -77.5t27.5 -90.5q6 -92 -88 -141q-74 -39 -176 -39q-168 0 -248 125z" />
<glyph unicode="&#xb6;" horiz-adv-x="1449" d="M-162 729q0 209 170 297h225v350q0 131 123 219q111 80 248 80h649q0 -31 50 -84l-216 -98v-418l66 -53l291 -14q281 -217 280 -465q1 -230 -280 -373h-309q10 -10 86 -76q43 -37 57 -92h-254q-51 82 -51 156v32q0 27 -33 33q-6 2 -53 2q-88 0 -117 -47q-18 -53 -39 -106 q-35 -70 -129 -109l-178 53q10 33 72.5 84.5t70.5 75.5h-559q-33 74 -94 221q-76 186 -76 332zM723 1012h143l78 53v442h-221v-495z" />
<glyph unicode="&#xba;" d="M158 383v397h84l88 -213v213h69v-397h-65l-107 272v-272h-69zM438 496v182q0 45 38 74.5t85 29.5q45 0 84 -28.5t39 -73.5v-188q0 -37 -41 -78t-78 -41q-39 0 -83 42t-44 81zM461 881v407h137q37 0 61.5 -39t24.5 -78t-24.5 -77.5t-61.5 -38.5h-68v-174h-69zM498 586 q0 -25 16 -76q23 -68 47 -80q27 20 47 84q19 54 17 72q-8 156 -64 155q-31 0 -49 -65q-14 -49 -14 -90zM528 1114h64q33 28 33 57t-33 58h-64v-115zM694 729v51h232v-47h-74v-350h-70v346h-88zM723 881v405h65v-405h-65zM840 991v185q0 49 39 80.5t88 31.5q63 0 86 -33 q6 -12 28 -102h-63q-8 27 -14 53q-12 33 -37 33q-70 0 -70 -156t70 -155q12 0 22 10l27 27v59h65v-63q0 -29 -43 -61t-71 -32q-41 0 -84 41t-43 82zM1094 1227v59h231v-55h-74v-350h-69v346h-88zM1143 383v397h192v-47h-133v-104h94l11 -62h-105v-184h-59zM1356 496v182 q0 47 38 75.5t85 28.5q45 0 82.5 -29.5t37.5 -72.5v-188q0 -37 -39.5 -78t-76.5 -41q-39 0 -83 43t-44 80zM1356 963v323h57v-297q0 -61 55 -61q18 0 37 18l8 8v332h66v-346q0 -25 -43 -48.5t-68 -23.5q-39 0 -75.5 28t-36.5 67zM1415 586q0 -23 15 -70q20 -66 49 -86 q27 18 47 84q16 56 16 72q-8 156 -63 155q-31 0 -49 -63q-14 -49 -15 -92zM1640 881v407h129q35 0 69 -37.5t34 -74.5q0 -27 -21.5 -62t-46.5 -47l68 -186h-66l-67 184h-39v-184h-60zM1649 465v315h57v-288q0 -23 16.5 -42.5t38.5 -19.5q18 0 37 19l8 8v323h66v-336 q0 -25 -42 -48t-69 -23q-39 0 -75.5 26.5t-36.5 65.5zM1698 1114h35q47 20 47 21q24 14 24 41q0 39 -43 53h-63v-115zM1923 383v397h84l88 -213v213h70v-397h-66l-106 272v-272h-70zM1923 881v405h193v-55h-136v-105h136v-61h-136v-125h136v-59h-193zM2216 383v397h119 q112 1 112 -194q0 -203 -131 -203h-100zM2273 440h56q41 43 47 66q4 14 4 80q0 145 -64 145h-43v-291z" />
<glyph unicode="&#xbc;" horiz-adv-x="1013" d="M-139 848q0 176 137 227q31 -27 70 -26q31 0 108 30l268 17v417l-65 43l-111 15q8 29 93 109.5t110 80.5q20 0 44 -11t34 -11v-643l495 18q172 -274 173 -428q-1 -163 -173 -229l-389 -56q27 -51 68 -63q66 -20 70 -25v-69q-39 -20 -140 -21q0 -6 -8 -30.5t-8 -40.5 q0 -23 54 -60t61 -61h-346q39 74 129 106v51l-48 33h-311q-49 47 -45 141q-16 16 -133 17q-25 57 -72 172q-66 166 -65 297zM326 362q66 -10 108 -10q68 0 86 27q-74 37 -98 37q-47 0 -96 -54z" />
<glyph unicode="&#xbd;" horiz-adv-x="1396" d="M-162 829q0 201 158 252l643 19v530l-164 43q20 39 97 106.5t114 67.5q39 0 68 -47v-700l643 20q139 -143 139 -344q0 -207 -139 -381l-408 -16l-334 -193q0 -12 33 -45l162 39q10 -12 39 -8q51 8 55 8l66 41q18 -27 18 -78q0 -61 -37 -102l-465 -21q-129 -6 -190 68 q0 59 139 131q160 84 203 166l-682 -16q-158 264 -158 460z" />
<glyph unicode="&#x2000;" horiz-adv-x="941" />
<glyph unicode="&#x2001;" horiz-adv-x="1882" />
<glyph unicode="&#x2002;" horiz-adv-x="941" />
<glyph unicode="&#x2003;" horiz-adv-x="1882" />
<glyph unicode="&#x2004;" horiz-adv-x="627" />
<glyph unicode="&#x2005;" horiz-adv-x="470" />
<glyph unicode="&#x2006;" horiz-adv-x="313" />
<glyph unicode="&#x2007;" horiz-adv-x="313" />
<glyph unicode="&#x2008;" horiz-adv-x="235" />
<glyph unicode="&#x2009;" horiz-adv-x="376" />
<glyph unicode="&#x200a;" horiz-adv-x="104" />
<glyph unicode="&#x2010;" horiz-adv-x="1361" d="M-186 805q0 197 184 272h1372q246 -190 246 -403q0 -201 -246 -299h-1372q2 -6 2 -13q0 -6 -4 -6q-8 0 -47 56q-135 201 -135 393z" />
<glyph unicode="&#x2011;" horiz-adv-x="1361" d="M-186 805q0 197 184 272h1372q246 -190 246 -403q0 -201 -246 -299h-1372q2 -6 2 -13q0 -6 -4 -6q-8 0 -47 56q-135 201 -135 393z" />
<glyph unicode="&#x2012;" horiz-adv-x="1361" d="M-186 805q0 197 184 272h1372q246 -190 246 -403q0 -201 -246 -299h-1372q2 -6 2 -13q0 -6 -4 -6q-8 0 -47 56q-135 201 -135 393z" />
<glyph unicode="&#x2013;" d="M158 383v397h84l88 -213v213h69v-397h-65l-107 272v-272h-69zM438 496v182q0 45 38 74.5t85 29.5q45 0 84 -28.5t39 -73.5v-188q0 -37 -41 -78t-78 -41q-39 0 -83 42t-44 81zM461 881v407h137q37 0 61.5 -39t24.5 -78t-24.5 -77.5t-61.5 -38.5h-68v-174h-69zM498 586 q0 -25 16 -76q23 -68 47 -80q27 20 47 84q19 54 17 72q-8 156 -64 155q-31 0 -49 -65q-14 -49 -14 -90zM528 1114h64q33 28 33 57t-33 58h-64v-115zM694 729v51h232v-47h-74v-350h-70v346h-88zM723 881v405h65v-405h-65zM840 991v185q0 49 39 80.5t88 31.5q63 0 86 -33 q6 -12 28 -102h-63q-8 27 -14 53q-12 33 -37 33q-70 0 -70 -156t70 -155q12 0 22 10l27 27v59h65v-63q0 -29 -43 -61t-71 -32q-41 0 -84 41t-43 82zM1094 1227v59h231v-55h-74v-350h-69v346h-88zM1143 383v397h192v-47h-133v-104h94l11 -62h-105v-184h-59zM1356 496v182 q0 47 38 75.5t85 28.5q45 0 82.5 -29.5t37.5 -72.5v-188q0 -37 -39.5 -78t-76.5 -41q-39 0 -83 43t-44 80zM1356 963v323h57v-297q0 -61 55 -61q18 0 37 18l8 8v332h66v-346q0 -25 -43 -48.5t-68 -23.5q-39 0 -75.5 28t-36.5 67zM1415 586q0 -23 15 -70q20 -66 49 -86 q27 18 47 84q16 56 16 72q-8 156 -63 155q-31 0 -49 -63q-14 -49 -15 -92zM1640 881v407h129q35 0 69 -37.5t34 -74.5q0 -27 -21.5 -62t-46.5 -47l68 -186h-66l-67 184h-39v-184h-60zM1649 465v315h57v-288q0 -23 16.5 -42.5t38.5 -19.5q18 0 37 19l8 8v323h66v-336 q0 -25 -42 -48t-69 -23q-39 0 -75.5 26.5t-36.5 65.5zM1698 1114h35q47 20 47 21q24 14 24 41q0 39 -43 53h-63v-115zM1923 383v397h84l88 -213v213h70v-397h-66l-106 272v-272h-70zM1923 881v405h193v-55h-136v-105h136v-61h-136v-125h136v-59h-193zM2216 383v397h119 q112 1 112 -194q0 -203 -131 -203h-100zM2273 440h56q41 43 47 66q4 14 4 80q0 145 -64 145h-43v-291z" />
<glyph unicode="&#x2014;" horiz-adv-x="1607" d="M-186 805q0 197 209 272h1559q280 -190 280 -403q0 -201 -280 -299h-1559q2 -6 2 -13q0 -6 -4 -6q-9 0 -54 56q-153 201 -153 393z" />
<glyph unicode="&#x2018;" horiz-adv-x="954" d="M-117 877q0 170 119 253h326q35 39 34 140v225h211v-367h388q225 -174 225 -393q0 -209 -225 -338l-732 17l-227 22q-25 61 -70 187q-49 139 -49 254z" />
<glyph unicode="&#x2019;" horiz-adv-x="954" d="M-117 877q0 170 119 253h326q35 39 34 140v225h211v-367h388q225 -174 225 -393q0 -209 -225 -338l-732 17l-227 22q-25 61 -70 187q-49 139 -49 254z" />
<glyph unicode="&#x201c;" horiz-adv-x="942" d="M-135 868q0 170 139 281l64 -19q84 -6 84 76q0 29 -11.5 90.5t-11.5 92.5q0 100 107 100q27 0 50 -14.5t50 -28.5v-291h225v330h205v-330h190q135 -115 136 -305q-1 -186 -136 -352h-952q-139 193 -139 370z" />
<glyph unicode="&#x201d;" horiz-adv-x="942" d="M-135 868q0 170 139 281l64 -19q84 -6 84 76q0 29 -11.5 90.5t-11.5 92.5q0 100 107 100q27 0 50 -14.5t50 -28.5v-291h225v330h205v-330h190q135 -115 136 -305q-1 -186 -136 -352h-952q-139 193 -139 370z" />
<glyph unicode="&#x2022;" d="M158 383v397h84l88 -213v213h69v-397h-65l-107 272v-272h-69zM438 496v182q0 45 38 74.5t85 29.5q45 0 84 -28.5t39 -73.5v-188q0 -37 -41 -78t-78 -41q-39 0 -83 42t-44 81zM461 881v407h137q37 0 61.5 -39t24.5 -78t-24.5 -77.5t-61.5 -38.5h-68v-174h-69zM498 586 q0 -25 16 -76q23 -68 47 -80q27 20 47 84q19 54 17 72q-8 156 -64 155q-31 0 -49 -65q-14 -49 -14 -90zM528 1114h64q33 28 33 57t-33 58h-64v-115zM694 729v51h232v-47h-74v-350h-70v346h-88zM723 881v405h65v-405h-65zM840 991v185q0 49 39 80.5t88 31.5q63 0 86 -33 q6 -12 28 -102h-63q-8 27 -14 53q-12 33 -37 33q-70 0 -70 -156t70 -155q12 0 22 10l27 27v59h65v-63q0 -29 -43 -61t-71 -32q-41 0 -84 41t-43 82zM1094 1227v59h231v-55h-74v-350h-69v346h-88zM1143 383v397h192v-47h-133v-104h94l11 -62h-105v-184h-59zM1356 496v182 q0 47 38 75.5t85 28.5q45 0 82.5 -29.5t37.5 -72.5v-188q0 -37 -39.5 -78t-76.5 -41q-39 0 -83 43t-44 80zM1356 963v323h57v-297q0 -61 55 -61q18 0 37 18l8 8v332h66v-346q0 -25 -43 -48.5t-68 -23.5q-39 0 -75.5 28t-36.5 67zM1415 586q0 -23 15 -70q20 -66 49 -86 q27 18 47 84q16 56 16 72q-8 156 -63 155q-31 0 -49 -63q-14 -49 -15 -92zM1640 881v407h129q35 0 69 -37.5t34 -74.5q0 -27 -21.5 -62t-46.5 -47l68 -186h-66l-67 184h-39v-184h-60zM1649 465v315h57v-288q0 -23 16.5 -42.5t38.5 -19.5q18 0 37 19l8 8v323h66v-336 q0 -25 -42 -48t-69 -23q-39 0 -75.5 26.5t-36.5 65.5zM1698 1114h35q47 20 47 21q24 14 24 41q0 39 -43 53h-63v-115zM1923 383v397h84l88 -213v213h70v-397h-66l-106 272v-272h-70zM1923 881v405h193v-55h-136v-105h136v-61h-136v-125h136v-59h-193zM2216 383v397h119 q112 1 112 -194q0 -203 -131 -203h-100zM2273 440h56q41 43 47 66q4 14 4 80q0 145 -64 145h-43v-291z" />
<glyph unicode="&#x202f;" horiz-adv-x="376" />
<glyph unicode="&#x205f;" horiz-adv-x="470" />
<glyph unicode="&#x2122;" d="M158 383v397h84l88 -213v213h69v-397h-65l-107 272v-272h-69zM438 496v182q0 45 38 74.5t85 29.5q45 0 84 -28.5t39 -73.5v-188q0 -37 -41 -78t-78 -41q-39 0 -83 42t-44 81zM461 881v407h137q37 0 61.5 -39t24.5 -78t-24.5 -77.5t-61.5 -38.5h-68v-174h-69zM498 586 q0 -25 16 -76q23 -68 47 -80q27 20 47 84q19 54 17 72q-8 156 -64 155q-31 0 -49 -65q-14 -49 -14 -90zM528 1114h64q33 28 33 57t-33 58h-64v-115zM694 729v51h232v-47h-74v-350h-70v346h-88zM723 881v405h65v-405h-65zM840 991v185q0 49 39 80.5t88 31.5q63 0 86 -33 q6 -12 28 -102h-63q-8 27 -14 53q-12 33 -37 33q-70 0 -70 -156t70 -155q12 0 22 10l27 27v59h65v-63q0 -29 -43 -61t-71 -32q-41 0 -84 41t-43 82zM1094 1227v59h231v-55h-74v-350h-69v346h-88zM1143 383v397h192v-47h-133v-104h94l11 -62h-105v-184h-59zM1356 496v182 q0 47 38 75.5t85 28.5q45 0 82.5 -29.5t37.5 -72.5v-188q0 -37 -39.5 -78t-76.5 -41q-39 0 -83 43t-44 80zM1356 963v323h57v-297q0 -61 55 -61q18 0 37 18l8 8v332h66v-346q0 -25 -43 -48.5t-68 -23.5q-39 0 -75.5 28t-36.5 67zM1415 586q0 -23 15 -70q20 -66 49 -86 q27 18 47 84q16 56 16 72q-8 156 -63 155q-31 0 -49 -63q-14 -49 -15 -92zM1640 881v407h129q35 0 69 -37.5t34 -74.5q0 -27 -21.5 -62t-46.5 -47l68 -186h-66l-67 184h-39v-184h-60zM1649 465v315h57v-288q0 -23 16.5 -42.5t38.5 -19.5q18 0 37 19l8 8v323h66v-336 q0 -25 -42 -48t-69 -23q-39 0 -75.5 26.5t-36.5 65.5zM1698 1114h35q47 20 47 21q24 14 24 41q0 39 -43 53h-63v-115zM1923 383v397h84l88 -213v213h70v-397h-66l-106 272v-272h-70zM1923 881v405h193v-55h-136v-105h136v-61h-136v-125h136v-59h-193zM2216 383v397h119 q112 1 112 -194q0 -203 -131 -203h-100zM2273 440h56q41 43 47 66q4 14 4 80q0 145 -64 145h-43v-291z" />
<glyph unicode="&#x25fc;" horiz-adv-x="1392" d="M0 0v1393h1393v-1393h-1393z" />
</font>
</defs>
</svg>
