<?xml version="1.0" standalone="no"?>
<!DOCTYPE svg PUBLIC "-//W3C//DTD SVG 1.1//EN" "http://www.w3.org/Graphics/SVG/1.1/DTD/svg11.dtd" >
<svg>
<metadata>
Created by FontForge 20110222 at Sat Sep 13 18:01:40 2014
 By Orthosie Webhosting
 2001 Nerfect Type Laboratories &#38; Britton Walters
</metadata>
<defs>
<font id="Conspiracy-Bold" horiz-adv-x="806" >
  <font-face 
    font-family="Conspiracy 2"
    font-weight="700"
    font-stretch="normal"
    units-per-em="1000"
    panose-1="0 0 0 0 0 0 0 0 0 0"
    ascent="750"
    descent="-250"
    x-height="512"
    cap-height="822"
    bbox="1 -327 1689 897"
    underline-thickness="20"
    underline-position="-113"
    unicode-range="U+000D-221E"
  />
<missing-glyph horiz-adv-x="1000" 
 />
    <glyph glyph-name=".notdef" horiz-adv-x="1000" 
 />
    <glyph glyph-name=".null" horiz-adv-x="0" 
 />
    <glyph glyph-name=".null" horiz-adv-x="0" 
 />
    <glyph glyph-name="nonmarkingreturn" unicode="&#xd;" horiz-adv-x="250" 
 />
    <glyph glyph-name="space" unicode=" " horiz-adv-x="379" 
 />
    <glyph glyph-name="exclam" unicode="!" horiz-adv-x="302" 
d="M277 308q0 -22 -11 -45t-28 -40h-99v352q0 10 7 23.5t17.5 25.5t22.5 20.5t21 8.5q19 0 40 -11.5t30 -28.5v-305zM335 65q0 -21 -14 -37t-33.5 -27.5t-40.5 -17t-34 -5.5q-23 0 -45 8.5t-39 21.5t-27.5 28.5t-10.5 28.5q0 19 11 33.5t27 24t33 14t29 4.5h67q16 0 30 -7.5
t24.5 -18.5t16.5 -24.5t6 -25.5z" />
    <glyph glyph-name="quotedbl" unicode="&#x22;" horiz-adv-x="434" 
d="M448 518h-126v287q5 16 22.5 26.5t36.5 10.5h66q8 -8 17.5 -18t17.5 -18v-57zM198 518h-94l-34 288q14 16 35 26t41 10q16 0 32 -5.5t29 -14.5t20.5 -21t5.5 -25z" />
    <glyph glyph-name="numbersign" unicode="#" horiz-adv-x="561" 
d="M623 522q-17 -21 -35 -33t-32.5 -22t-23.5 -22.5t-9 -35.5q0 -5 3.5 -16.5t13 -21t26 -13.5t42.5 6q0 -4 2 -12t5 -16.5t5 -16.5t2 -13l-35 -28q-23 0 -44 1t-59 1q0 -7 -4 -33.5t-11.5 -61.5t-19 -73.5t-26 -71t-32 -54t-37.5 -21.5q-10 0 -20 5t-18 12.5t-13 16.5
t-5 16l50 255q-9 9 -14 8.5t-14 -0.5l-178 -325q-9 9 -22.5 11.5t-33.5 2.5v93l49 180q-4 12 -13 20.5t-18 16t-17.5 15.5t-13.5 17q9 15 23 26t28.5 24t28 30t20.5 43q-27 20 -55 33t-45 31q12 20 33.5 30t43 16t38 12.5t18.5 18.5q9 27 17.5 61.5t18.5 72t21 75t25 70.5
h81q9 -8 13.5 -28.5t2.5 -34.5l-51 -226q9 0 15.5 -5t29.5 -5q25 0 38.5 23t22 58t14.5 75t15.5 75t26 58t46.5 23q2 0 11.5 -4t22 -12.5t25.5 -21t22 -30.5l-63 -207q2 -18 23 -33.5t40 -34.5zM384 449q-9 9 -21.5 12.5t-22.5 3.5q-19 -10 -30.5 -27.5t-11.5 -41.5
q0 -12 2.5 -18t5.5 -9t7 -3q29 0 45 6.5t26 6.5v70z" />
    <glyph glyph-name="dollar" unicode="$" horiz-adv-x="545" 
d="M606 208q0 -36 -20.5 -60.5t-50.5 -41.5t-63 -29t-58 -24v-101q-5 -10 -16 -20t-35 -10q-27 0 -37.5 11.5t-14 28.5t-4.5 36.5t-8.5 36.5t-26 28.5t-57.5 11.5q-12 0 -16 -2t-6 -4t-6 -4t-16 -2q-20 0 -42 11t-41 31v133q10 10 21.5 20t35.5 10q12 0 24.5 -11t25.5 -26.5
t27 -33.5t28 -33h41v210q-27 21 -62 32.5t-66.5 25.5t-53 36t-21.5 64v91l221 221h83q5 -10 12 -23.5t16 -25t20.5 -19.5t24.5 -8q12 0 16.5 2t6.5 4.5t6 4.5t16 2q24 0 48 -18t48 -37v-97q-25 -11 -42 -19.5t-41 -8.5q-26 0 -41 15.5t-33 49.5q-9 0 -19.5 -6t-15.5 -16
v-115q0 -37 9.5 -56.5t25.5 -30t36.5 -16t42 -14t42 -25t36.5 -47.5v-132zM290 650q-9 0 -20 -4t-21 -8.5t-18.5 -8.5t-13.5 -4v-96l28 -29h45v150zM498 261q0 12 -8 25t-19.5 25.5t-24 24t-22.5 21.5v-165q11 3 23.5 12t24 19.5t19 21t7.5 16.5z" />
    <glyph glyph-name="percent" unicode="%" horiz-adv-x="671" 
d="M746 80q-27 -42 -56.5 -66.5t-60 -37t-60.5 -16t-58 -3.5q-97 0 -148 24t-71.5 60t-19.5 78t6.5 78t7 60t-17.5 24l-158 -14q-18 30 1 51t56 39.5t82 36.5t78 40q-12 5 -36.5 10.5t-53.5 14t-59.5 21.5t-54.5 32.5t-37.5 47.5t-8.5 67q7 61 28.5 99.5t53.5 60.5t73 30
t87 8q34 0 78.5 -11t84.5 -32.5t67.5 -55t27.5 -78.5q0 -11 -5 -27.5t-13.5 -35t-19.5 -37.5t-22 -35h227v-53l-241 -100q11 -9 33.5 -16t49.5 -14.5t55 -17t51.5 -26t38.5 -40t15 -59.5v-107zM414 675q-22 21 -37 34t-43 13q-15 0 -31.5 -10t-31 -24.5t-23.5 -31t-9 -30.5
q0 -7 4 -21t14 -27t27 -23t43 -10q30 0 49 13.5t38 33.5v83zM591 203q-22 22 -44.5 35t-50.5 13q-14 0 -28.5 -11t-26 -26.5t-19 -33.5t-7.5 -32q0 -11 5.5 -26t15.5 -29t25.5 -23.5t34.5 -9.5q28 0 56.5 14.5t38.5 35.5v93z" />
    <glyph glyph-name="ampersand" unicode="&#x26;" horiz-adv-x="637" 
d="M708 10q-19 -8 -48.5 -12.5t-58.5 -5.5t-53.5 2.5t-34.5 11.5l-116 -42h-95l-17 -14q-28 0 -65.5 12.5t-71 38t-56.5 63.5t-22 89l153 276q-24 36 -36 56.5t-16.5 35.5t-4 29.5t0.5 38.5q0 54 14 89t41 55.5t65.5 28.5t87.5 8q23 0 49 -0.5t52.5 -13t50.5 -43t43 -90.5
l-153 -228l65 -98q11 5 18 11.5t13.5 15t13.5 19t19 23.5h118q5 -6 9 -12q3 -6 5.5 -12t2.5 -11l-69 -192q10 -16 24.5 -32t28.5 -32.5t26 -32.5t17 -32zM402 655q-10 5 -22.5 5.5t-24 -2.5t-21 -8t-14.5 -10q0 -42 3.5 -68.5t14.5 -37.5q5 0 14 5t18.5 12t18 15t13.5 13v76
zM417 117q0 9 -14.5 33.5t-35.5 52t-44 51t-40 29.5q-10 -14 -18.5 -33t-14.5 -38.5t-9.5 -37t-3.5 -29.5q0 -13 5 -30t16 -32t30 -25t46 -10q12 0 26 7t27 17t21.5 22.5t8.5 22.5z" />
    <glyph glyph-name="quotesingle" unicode="'" horiz-adv-x="216" 
d="M219 539q-8 -16 -28.5 -31t-40.5 -15q-10 0 -15.5 2t-10.5 4t-11.5 4t-18.5 2v312q15 9 28.5 11t33.5 2q35 0 59.5 -16.5t24.5 -51.5z" />
    <glyph glyph-name="parenleft" unicode="(" horiz-adv-x="294" 
d="M221 405l105 -427q-9 0 -19 -7t-33 -7t-47 22t-45.5 56.5t-40 76t-32 80.5t-21.5 70t-8 44v188l156 333h77l14 -41z" />
    <glyph glyph-name="parenright" unicode=")" horiz-adv-x="307" 
d="M341 370q0 -31 -8 -73t-22 -87t-33.5 -90.5t-42 -84.5t-47 -68t-49.5 -41h-41l-28 36l99 279v269l-99 260l14 68h68q37 -27 68 -73t53.5 -98t37 -103.5t18.5 -88.5z" />
    <glyph glyph-name="asterisk" unicode="*" horiz-adv-x="509" 
d="M393 581l97 -117v-38q-9 0 -18.5 -6t-29.5 -6q-17 0 -30.5 8t-27 21.5t-28.5 31t-36 37.5q-17 -1 -31 -15t-27.5 -31t-27.5 -32.5t-31 -19.5l-59 13v37l86 117l-174 86q3 8 11.5 16.5t18.5 16.5t20 13t16 5l123 -44q4 4 7.5 5.5t5.5 3t3.5 6t1.5 14.5v155h84
q9 -16 16.5 -41.5t7.5 -50.5l-11 -63q8 -8 13.5 -13t13.5 -5l130 44q10 2 25.5 -9t23.5 -28v-37z" />
    <glyph glyph-name="plus" unicode="+" horiz-adv-x="461" 
d="M512 381q-8 -8 -16.5 -11.5t-16.5 -11.5l-103 -6q-7 -4 -14 -12t-13 -16q-7 -10 -13 -21v-95q-6 -9 -17.5 -16.5t-30.5 -7.5q-20 0 -32 7.5t-24 15.5v147l-134 -7l-34 24v35q8 8 22.5 20t34.5 12h110v150q5 9 17.5 17t29.5 8t30.5 -8.5t30.5 -25.5v-106q0 -19 10 -22.5
t17 -11.5h112l34 -23v-35z" />
    <glyph glyph-name="comma" unicode="," horiz-adv-x="255" 
d="M283 123q0 -7 -12 -35t-29.5 -66.5t-37.5 -83t-36 -84.5q-3 -6 -18 -15t-34 -9q-9 0 -14.5 2t-9.5 4l-8 4t-12 2l19 216q8 36 16 58.5t20 35.5t30 17.5t45 4.5q32 0 56.5 -10t24.5 -41z" />
    <glyph glyph-name="hyphen" unicode="-" horiz-adv-x="459" 
d="M468 287h-355l-70 19q11 17 31.5 34t40.5 17h371l24 -39z" />
    <glyph glyph-name="period" unicode="." horiz-adv-x="295" 
d="M328 80q0 -30 -17.5 -49t-40 -30t-44.5 -15.5t-30 -4.5q-22 0 -42 7t-35 20t-23.5 30t-8.5 36q0 35 12.5 54t30 28t37.5 10.5t35 1.5q28 0 51 -4t39.5 -14t26 -27t9.5 -43z" />
    <glyph glyph-name="slash" unicode="/" horiz-adv-x="430" 
d="M153 -68h-61q-8 8 -11 15.5t-3 27.5q0 6 8 34t21.5 69.5t31 93t37 104.5t39.5 104t37 92q12 29 25.5 66.5t28.5 77.5t30.5 79.5t32.5 71t35 52t36 23.5q5 -3 11.5 -10t12.5 -15t10 -16.5t4 -14.5z" />
    <glyph glyph-name="zero" unicode="0" horiz-adv-x="625" 
d="M680 183q-20 -78 -55 -127.5t-78 -77.5t-89.5 -38t-89.5 -10q-58 0 -111.5 36t-94.5 89t-66 112.5t-25 105.5v257q0 54 24.5 112t66.5 106t97 79t116 31q76 0 133 -29t96.5 -79t61.5 -117.5t28 -144.5zM535 387q0 5 -2 34.5t-7.5 70.5t-15.5 87t-27 85.5t-41.5 65.5
t-58.5 26q-26 0 -47.5 -19.5t-38.5 -49t-29.5 -65t-20.5 -67t-12 -54.5t-4 -29v-185q0 -10 7 -31.5t19 -48.5t27.5 -55.5t33.5 -52t36.5 -38.5t35.5 -15q27 0 48 19t37 50t27.5 69t18.5 76t10.5 71.5t3.5 55.5z" />
    <glyph glyph-name="one" unicode="1" horiz-adv-x="396" 
d="M413 5q-11 -12 -27.5 -22.5t-43.5 -10.5t-45 10.5t-39 21.5v655l-124 -59q-10 6 -24 10.5t-27.5 10t-24.5 13t-16 18.5l292 205q23 -9 45.5 -25t33.5 -37v-790z" />
    <glyph glyph-name="two" unicode="2" horiz-adv-x="679" 
d="M334 105q7 -18 28 -27t46 -9h125q11 0 24.5 14t29.5 30.5t35.5 30.5t42.5 14q28 0 41.5 -11.5t24.5 -22.5v-109l-24 -24l-24 -24h-565q-6 6 -11.5 15t-10.5 19t-8 19t-3 15l456 581q0 44 -13.5 70.5t-33.5 43.5t-43.5 26.5t-42.5 18.5l-234 -117q-16 0 -29.5 8.5
t-23.5 19t-16 19.5t-6 11q0 31 19.5 55.5t49.5 42.5t66.5 30t71 19.5t62.5 11t40 3.5q24 0 58 -3.5t71 -14t73 -29t64 -49t44 -74t13 -104.5z" />
    <glyph glyph-name="three" unicode="3" horiz-adv-x="622" 
d="M691 186q0 -68 -23.5 -120t-66.5 -87.5t-103 -55.5t-132 -24l-291 92v68q11 0 31 2.5t31 13.5l210 -58q53 -6 88 11t56 45t29.5 60.5t8.5 59.5q0 43 -9.5 69.5t-26.5 42t-39.5 23.5t-48.5 15.5t-54.5 17.5t-56.5 29q9 20 27.5 33t41.5 23.5t47 21t44 25.5t33 36.5
t13 53.5q0 13 -9.5 34.5t-26.5 43t-42 39t-55 23.5l-230 -44l-34 35q11 28 38.5 49t64 36t77 25t76.5 16q39 7 91.5 -6.5t99 -43t79 -71.5t32.5 -92q0 -9 -9 -40t-23.5 -65.5t-33 -64.5t-37.5 -38q10 -21 23.5 -33t28.5 -22t29.5 -21t26 -30t18.5 -49t7 -78z" />
    <glyph glyph-name="four" unicode="4" horiz-adv-x="626" 
d="M696 211q-18 -11 -36 -17t-32 -15t-22.5 -24.5t-8.5 -46.5q0 -12 9 -23.5t22 -21t27.5 -17.5t25.5 -13q0 -5 -3 -14.5t-8 -18.5t-10.5 -17t-11.5 -10h-334q-1 8 -3 16q-2 7 -5.5 14t-8.5 12q11 11 26.5 20t33 17.5t36 17.5t34.5 19q5 15 -6 41t-34 50h-300q-6 5 -11.5 14
t-10.5 18t-8 16t-3 10l389 612h107q10 -15 18.5 -37t14.5 -45.5t9.5 -44.5t3.5 -35v-370l100 -57v-50zM396 296q22 18 24 42.5t-4 53.5t-14.5 62t-6.5 68l-126 -226h127z" />
    <glyph glyph-name="five" unicode="5" horiz-adv-x="628" 
d="M698 235q0 -37 -19.5 -88t-52 -96.5t-73.5 -77.5t-84 -32h-247q-12 0 -33.5 8t-46 21t-48.5 30t-42 34q3 10 11.5 19.5t20 17t23 12.5t19.5 5l199 -45q48 -11 87.5 9t67 54t42.5 72.5t15 63.5q0 29 -9.5 62t-31.5 60.5t-57 45.5t-85 16l-257 -43v405q4 6 16 17t28.5 21.5
t34 18t32.5 7.5h368l48 -33q3 -28 -10.5 -44.5t-35 -25.5t-47 -11.5t-46.5 -2.5l-110 14q-19 -5 -36 -8t-33 -6.5t-32 -9t-33 -16.5v-168q110 -5 195.5 -22t143.5 -52.5t88 -92t30 -139.5z" />
    <glyph glyph-name="six" unicode="6" horiz-adv-x="649" 
d="M721 239q0 -14 -6 -40.5t-17.5 -57.5t-28 -63t-36.5 -58.5t-43.5 -43t-49.5 -16.5h-239q-45 0 -79.5 27.5t-59 70t-41 92t-26 94t-13.5 77t-4 39.5q0 111 34.5 201t97.5 153t151 97.5t195 34.5q12 0 28.5 -1t34.5 -4.5t37 -10t35 -17.5q0 -5 -3 -14t-7.5 -19t-10.5 -19
t-11 -15h-129q-34 0 -77 -25t-80 -61t-61 -76t-21 -71l24 -25q19 11 50.5 13t55.5 2q56 0 109.5 -14.5t96 -46t68.5 -81.5t26 -122zM535 239q0 7 -3.5 33.5t-15.5 55.5t-34.5 52t-60.5 23q-24 0 -49.5 -11.5t-46.5 -32t-34 -49.5t-13 -64q0 -11 8 -43.5t24.5 -67.5t42 -62
t61.5 -27q34 0 57 23t37.5 54t20.5 64t6 52z" />
    <glyph glyph-name="seven" unicode="7" horiz-adv-x="672" 
d="M747 762q-33 -95 -69.5 -203t-76 -216t-81 -209.5t-85.5 -184.5h-112q0 11 -8.5 24.5t-8.5 18.5l252 750h-213q-28 0 -52.5 -11.5t-45 -26t-37.5 -26t-29 -11.5q-21 0 -38.5 9t-30 24t-19.5 33.5t-7 36.5q0 22 10 36t23.5 22.5t27.5 11.5t22 3h561z" />
    <glyph glyph-name="eight" unicode="8" horiz-adv-x="659" 
d="M732 218q0 -54 -19 -100t-52 -80.5t-78.5 -56.5t-99.5 -28l-137 -14q-53 3 -104 24t-91.5 55.5t-65 81.5t-24.5 103q0 37 18 76t39 72t39 55.5t18 25.5q0 5 -11 27.5t-24.5 49.5t-24.5 52t-11 35q0 65 24.5 111t65 75.5t93 43t109.5 13.5q52 0 102 -14t91 -43.5t68 -75.5
t32 -111l-86 -162q26 -19 49.5 -42t41.5 -50t28 -57.5t10 -65.5zM504 603q0 7 -3.5 29t-13.5 46t-28.5 42.5t-47.5 18.5q-14 0 -37 -8t-45 -24t-38 -40.5t-16 -56.5q0 -29 16 -64t45 -64h104q24 5 37 19t19 32t7 37t1 33zM546 210q0 25 -2.5 52t-16.5 51t-44 42.5t-85 26.5
q-35 5 -65.5 -19t-53 -55t-35 -59t-12.5 -31q0 -12 13.5 -41.5t36.5 -60t52.5 -54t61.5 -23.5q26 0 53 10.5t48.5 32t35 53.5t13.5 75z" />
    <glyph glyph-name="nine" unicode="9" horiz-adv-x="616" 
d="M684 446q0 -61 -16.5 -137.5t-56.5 -148.5t-107 -128.5t-169 -77.5l-250 18q7 11 18 22.5t24 21t26 16t23 7.5q83 12 138 32t91 51t57.5 74.5t37.5 101.5h-264q-27 0 -50.5 17t-44 42.5t-36.5 56.5t-27 58.5t-17 48t-6 25.5q0 48 19 99.5t56.5 94.5t92 71t125.5 28
q93 0 157.5 -34.5t104 -90.5t57 -126.5t17.5 -141.5zM498 620q0 13 -18.5 33.5t-43 39.5t-49.5 32.5t-39 13.5q-19 0 -40.5 -13t-39.5 -32t-29.5 -40.5t-11.5 -37.5v-125q0 -18 14 -35t33.5 -30.5t40 -21.5t33.5 -8q12 0 37 7t50 21.5t44 37.5t19 54v104z" />
    <glyph glyph-name="colon" unicode=":" horiz-adv-x="286" 
d="M318 408q0 -25 -18.5 -43.5t-41.5 -30t-43.5 -17t-25.5 -5.5q-17 0 -36 7.5t-34.5 19.5t-26 28.5t-10.5 34.5q0 15 10.5 31t26 29t34.5 21.5t36 8.5q5 0 25.5 -6t43.5 -17.5t41.5 -27t18.5 -33.5zM317 35q-12 -13 -28 -24t-32.5 -19t-31 -12.5t-25.5 -4.5q-18 0 -39 7.5
t-38.5 20.5t-29 29t-11.5 33q0 19 11 37t27.5 32.5t35 23t34.5 8.5h31q12 0 27 -5.5t28.5 -14t25 -19t15.5 -21.5v-71z" />
    <glyph glyph-name="semicolon" unicode=";" horiz-adv-x="277" 
d="M308 372q0 -30 -14 -48.5t-32.5 -28t-36.5 -13t-27 -3.5q-21 0 -42.5 6.5t-39 18.5t-28.5 28t-11 35q0 24 13 40.5t32 27t41 15t40 4.5q17 0 35 -4t34 -13.5t26 -25t10 -39.5zM162 -182h-83q-8 25 -7 53.5t5 61.5q2 15 9 52t22 75.5t39 68t58 29.5h44q11 -7 24 -20.5
t13 -30.5z" />
    <glyph glyph-name="less" unicode="&#x3c;" horiz-adv-x="417" 
d="M217 381l246 -244v-49q-6 -6 -15 -9.5t-18 -5.5t-16.5 -2.5t-10.5 -0.5l-345 303l309 319h78q11 -11 14.5 -25.5t3.5 -20.5z" />
    <glyph glyph-name="equal" unicode="=" horiz-adv-x="514" 
d="M571 401q0 -8 -8.5 -25.5t-16.5 -25.5l-332 -17l-100 6q-17 8 -23 26t-14 35q8 8 24.5 17t24.5 9l374 11q19 1 36.5 -9t34.5 -27zM558 261q3 -8 5.5 -17.5t2.5 -20t-4.5 -20.5t-15.5 -18l-359 -11h-29.5t-26 3.5t-25.5 11.5t-29 22q8 17 30 33.5t43 16.5h408z" />
    <glyph glyph-name="greater" unicode="&#x3e;" horiz-adv-x="443" 
d="M169 38h-83q-5 7 -9 14t-6.5 13.5t-2.5 12.5l257 285l-257 278q1 9 4 18q2 8 6 15.5t10 13.5h51l353 -325z" />
    <glyph glyph-name="question" unicode="?" horiz-adv-x="505" 
d="M561 492q0 -51 -26.5 -81.5t-65 -57.5t-81.5 -58t-76 -82q-8 9 -28.5 12t-46.5 1q0 18 -2 38t-11 38l210 181q-3 30 -18 52t-36 35.5t-45.5 20t-46.5 6.5q-33 0 -61.5 -16.5t-50.5 -36t-35.5 -36t-15.5 -16.5q-19 0 -32.5 10.5t-31.5 28.5v73q4 7 22 19.5t41.5 24.5
t49.5 21t46 9h136q31 0 67 -16t66.5 -42t51 -59.5t20.5 -68.5zM422 85q0 -14 -10 -31t-27 -31.5t-39.5 -23.5t-46.5 -7q-18 2 -41 7t-43.5 15t-34.5 24.5t-14 35.5q0 18 14.5 35t35 29.5t43.5 20.5t40 8q13 0 34 -7t40.5 -18.5t34 -26t14.5 -30.5z" />
    <glyph glyph-name="at" unicode="@" horiz-adv-x="537" 
d="M597 295q0 -12 0 -10.5t-0.5 6t-0.5 6t0 -10.5v-80h-266q-6 0 -20 8t-30.5 19.5t-31 24.5t-20.5 22q-5 -5 -6.5 -6t-1.5 -2.5t1 -6t1 -16.5q0 -36 15 -68t36 -57t44 -43t38 -26l153 23q0 -9 8.5 -14.5t18.5 -14.5q-7 -8 -31.5 -22t-52.5 -27.5t-52.5 -23t-32.5 -9.5
q-51 0 -94 20t-78 53t-61.5 75.5t-43.5 87t-24.5 87.5t-4.5 77l13 157q6 77 28 132.5t57.5 91t83 52.5t105.5 17q84 0 134 -37t75.5 -91t33 -115.5t7.5 -110.5v-168zM422 663q-4 9 -14 21t-22.5 22t-25.5 17t-25 7q-24 0 -46.5 -19.5t-40 -45t-28 -51.5t-10.5 -40
q0 -24 4.5 -29.5t13.5 -14.5q24 20 48 31.5t49 19t49 13t48 13.5v56zM434 476q-9 10 -28.5 19t-29.5 9l-20 -20t-21 -20v-114q0 -12 4 -18.5t9.5 -10.5t9.5 -6.5t4 -7.5q28 0 45 6t27 6v157z" />
    <glyph glyph-name="A" unicode="A" horiz-adv-x="850" 
d="M944 4q-37 -17 -82.5 -25t-92.5 -7t-92 10t-81 27q14 21 25 31.5t23.5 19t27.5 18.5t35 30q-10 36 -24.5 67t-50.5 67h-280q-22 -21 -32 -51.5t-10 -60.5q0 -15 4 -23.5t14.5 -16t28.5 -17t47 -26.5q0 -6 -3.5 -16t-9 -20.5t-12 -19t-12.5 -10.5h-310l302 785h-158
q0 5 -4 16.5t-4.5 25t5 28t23.5 24.5h270q40 0 75 -48.5t68.5 -125t67 -170.5t70.5 -184.5t79.5 -167t92.5 -118.5v-42zM594 409l-102 229l-101 -299h203v70z" />
    <glyph glyph-name="B" unicode="B" 
d="M896 210q0 -42 -19 -83t-49.5 -74t-68 -53t-73.5 -20h-603v57q23 9 54.5 22.5t66.5 38.5v548q0 32 -12 49t-31.5 28t-44.5 20t-50 25l18 56h525q47 0 88 -18t71.5 -47t48 -64t17.5 -70q0 -19 -12 -41t-26 -44.5t-26 -45.5t-12 -46q0 -18 21.5 -35t47.5 -42t47.5 -63
t21.5 -98zM681 610q0 37 -23.5 60.5t-57.5 37t-73 18.5t-71 5h-104v-274h181q22 0 48 14t48 36t37 49.5t15 53.5zM742 217q0 26 -14 52t-36 46.5t-48 33.5t-50 13h-227v-290h212q12 0 39 6t54.5 22t48.5 44t21 73z" />
    <glyph glyph-name="C" unicode="C" horiz-adv-x="726" 
d="M807 148q0 -22 -14.5 -41t-38.5 -34t-54.5 -26.5t-62.5 -19.5q-75 -21 -170 -32q-88 0 -160.5 30.5t-125 84.5t-81.5 127.5t-29 160.5q0 53 13.5 115.5t47.5 119.5t91.5 102.5t145.5 64.5l341 14q23 1 47.5 -12.5t35.5 -34.5v-212q-8 -13 -29 -29.5t-47 -16.5
q-22 0 -34.5 15.5t-21.5 38.5t-18 50t-23.5 50t-37.5 38.5t-61 15.5h-94q-42 0 -73 -19.5t-53.5 -50t-37.5 -67.5t-23.5 -72t-12 -63t-3.5 -40q0 -51 13.5 -105t43 -99t77 -75.5t115.5 -33.5l301 111q11 -11 22 -20t11 -35z" />
    <glyph glyph-name="D" unicode="D" horiz-adv-x="827" 
d="M880 374q0 -66 -24 -141t-69.5 -137.5t-111 -103.5t-148.5 -39l-437 8v49q5 32 16.5 38.5t17.5 4.5t0.5 -3.5t-34.5 16.5v549q0 18 7.5 21t12.5 10.5t2.5 30t-22.5 79.5v70h374q110 0 188.5 -39.5t129 -103.5t74.5 -145t24 -164zM708 429q3 29 -7 77.5t-36.5 95t-71.5 81
t-113 34.5h-176v-653q6 0 13.5 -3t19 -6t27.5 -6t40 -3q38 4 84.5 18.5t89 41t74.5 64t41 86.5z" />
    <glyph glyph-name="E" unicode="E" 
d="M850 10q-6 -6 -12.5 -14.5t-14.5 -16.5t-19 -13.5t-26 -5.5h-706q-8 30 5.5 48.5t35.5 30.5t46 21t36 20v603q-18 25 -35.5 34t-34.5 12t-34.5 4.5t-34.5 10.5v104h668q26 0 49 -8t40 -20t27 -26.5t10 -27.5v-193q-12 -11 -26.5 -23.5t-43.5 -12.5q-32 0 -46.5 15
t-20.5 38t-7 49t-6 49t-18.5 38t-43.5 15h-261l-34 -43v-155q0 -13 1 -21.5t5 -15.5t10.5 -14t17.5 -18h88q12 14 23.5 31t24.5 33t29 29t36 17q6 -5 12 -9t12 -6.5t12 -2.5v-276q-12 0 -34.5 -3.5t-34.5 -14.5l-66 110h-102l-35 -28v-258q17 -12 20.5 -22t14.5 -23h320v186
l134 34q13 -23 24 -53t11 -56z" />
    <glyph glyph-name="F" unicode="F" horiz-adv-x="776" 
d="M862 615q-11 -18 -19 -34t-17 -28t-21.5 -19t-31.5 -7q-14 0 -34 5.5t-38 15t-31 22.5t-13 27v105l10 25h-318v-236q5 -6 12.5 -8t19.5 -2.5t31 0t47 0.5q10 8 20.5 23.5t22 30.5t24.5 26t27 11t34.5 -10t39 -24.5t31.5 -31.5t13 -31v-190h-135q-10 4 -19.5 14.5
t-18.5 23.5t-18.5 27t-20.5 26h-85l-25 -27v-279h179q0 -6 2.5 -15.5t5 -21.5t5 -25t2.5 -25h-463q-11 11 -14.5 27.5t-3.5 27.5q23 11 55 21.5t66 10.5v627q-17 12 -34 18.5t-34.5 12.5t-34.5 12.5t-34 17.5q0 6 5.5 15.5t13.5 20.5t16 21.5t14 17.5h625l142 -37v-181z" />
    <glyph glyph-name="G" unicode="G" horiz-adv-x="778" 
d="M864 299q0 -14 -7 -19.5t-15.5 -9t-15.5 -9t-7 -19.5v-216l-200 -77h-88q-26 0 -58.5 -1t-63.5 1q-48 4 -99 29.5t-95.5 65t-78.5 90t-47 104.5l-16 144q0 93 32 172t92 137t144.5 90.5t189.5 32.5h255q7 -11 13.5 -27t11 -33.5t7 -35t2.5 -31.5q0 -22 -5.5 -57
t-28.5 -68h-97q-6 11 -18 35.5t-27.5 49.5t-34 44t-37.5 19h-131q-40 0 -70.5 -21.5t-53 -54t-38 -72t-24.5 -75t-13 -62.5t-4 -36q0 -25 3.5 -61.5t14.5 -76.5t29.5 -79.5t49.5 -70.5t74.5 -49t103.5 -14q48 3 78.5 12t48 26t24 42.5t6.5 61.5q0 33 -6.5 48.5t-19 21.5
t-30 5.5t-40.5 0t-51 5t-60 20.5q0 11 3.5 27.5t14.5 27.5h365q5 0 9 -4t6.5 -11.5t2.5 -21.5z" />
    <glyph glyph-name="H" unicode="H" horiz-adv-x="903" 
d="M959 820q-12 -24 -31.5 -47t-38 -43.5t-32 -39t-13.5 -33.5v-513q0 -15 11 -31t27.5 -32t36.5 -31.5t38 -29.5q2 -8 -2 -19.5t-11.5 -23t-18 -21.5t-22.5 -14h-249l-105 38q6 12 18 25t28 25.5t34 22.5t37 16v317h-270q-23 -22 -34.5 -37.5t-9.5 -46.5l15 -233
q25 -13 58 -28.5t58 -39.5q-4 -12 -14 -23t-23 -19t-27 -13t-26 -4l-317 19q0 12 8.5 25.5t22 28t31 28t35.5 25.5v632l-115 82q0 13 12 31t25 33h353q3 -26 -4.5 -44t-22 -31.5t-33 -26t-37.5 -27.5v-252h269l45 46v205l-115 65q-1 7 3 18t11.5 22t18 20.5t22.5 13.5h299z
" />
    <glyph glyph-name="I" unicode="I" horiz-adv-x="648" 
d="M81 -33l-10 65q12 10 25.5 15t24.5 15h194v629q-12 11 -21.5 13t-21.5 13h-146q-14 0 -24.5 6t-19 14t-14.5 16.5t-12 14.5q8 21 32 37.5t53 16.5h548l17 -71q-33 -11 -72 -12.5t-73.5 -3.5t-59 -10t-29.5 -32v-587q17 -11 20 -20.5t14 -23.5h214v-95h-639z" />
    <glyph glyph-name="J" unicode="J" horiz-adv-x="745" 
d="M828 762q-7 -26 -25.5 -34.5t-42 -11.5t-48 -7.5t-44.5 -23.5v-492q0 -18 -18 -55t-46.5 -74.5t-63.5 -65.5t-69 -28h-257q-81 0 -120.5 46.5t-33.5 120.5l15 177q11 11 39.5 14t72.5 3q10 -33 16 -80t22 -90t49 -73.5t97 -30.5q26 0 51 21.5t44.5 48.5t31.5 52t12 32
v472l-261 44q5 19 24 34.5t41 26.5t39.5 17t19.5 6h359q24 0 49 -13.5t47 -35.5z" />
    <glyph glyph-name="K" unicode="K" horiz-adv-x="852" 
d="M946 35q2 -8 -2 -18.5t-11.5 -21.5t-18.5 -21t-23 -16h-121l-319 410q-19 0 -38 -18t-45 -44v-222q27 -12 62.5 -26.5t72.5 -39.5q0 -6 -3.5 -16.5t-10.5 -20t-18.5 -17t-26.5 -7.5h-80l-213 -16q-31 -2 -54 16.5t-35 42.5l131 84v615l-130 82v71h406q0 -4 2.5 -14
t6 -20.5t6 -21t2.5 -16.5q-21 -5 -37.5 -7.5t-31 -7.5t-26.5 -15.5t-24 -32.5v-189q24 0 51.5 23.5t57.5 56.5t61.5 68.5t64.5 60.5l-65 83q21 11 50 21.5t60 18t60.5 12t51.5 3.5l137 -19v-75l-359 -308z" />
    <glyph glyph-name="L" unicode="L" horiz-adv-x="827" 
d="M903 32q-6 -6 -12.5 -14.5t-15 -16.5t-19 -14t-25.5 -6h-719l-52 37q3 12 16 25.5t34 25t50 17.5t64 2v646l-179 49q10 21 31 37.5t44 28t44 17.5t31 6h280l115 -35q0 -6 -3 -16t-8.5 -21t-11.5 -21t-12 -16h-95q-26 0 -49.5 -15t-22.5 -40l15 -575q6 -6 10 -13.5
t9.5 -14t14 -11t23.5 -4.5h230q23 23 32.5 49t9.5 55v125q4 11 14.5 23t25 22t30.5 16.5t31 6.5q28 0 45.5 -20t26.5 -46.5t12 -52t2 -37.5z" />
    <glyph glyph-name="M" unicode="M" horiz-adv-x="843" 
d="M913 132q0 -27 7.5 -40.5t12 -18.5t2.5 -5h-22v-70h-285q0 4 -2.5 12t-5.5 18t-5.5 19t-2.5 15l104 44l-43 349q-19 0 -34 -22t-27.5 -57t-24 -77t-24.5 -83h-128l-76 225l-49 28v-378q11 -5 24.5 -8t28 -6t28 -6t24.5 -9v-64h-340v49q42 26 56 66.5t15 86t-2.5 91
t4.5 81.5l15 275q1 13 -6 30.5t-18.5 35.5t-25 34.5t-25.5 26.5q17 14 37.5 24t41 16t39.5 9t32 3q53 0 83.5 -11.5t49 -32t28.5 -49.5t21.5 -63.5t29 -74t49.5 -82.5q42 59 64 106.5t34.5 84t21 62.5t22 42.5t37 24.5t67.5 8l145 -15q6 -6 10 -7t6.5 -3t4 -7.5t1.5 -19.5
l1 -119v-538z" />
    <glyph glyph-name="N" unicode="N" horiz-adv-x="824" 
d="M916 818q-3 -25 -19.5 -45t-34 -39t-30 -39.5t-6.5 -47.5l15 -396q-9 -23 -8 -50.5t4.5 -56.5t4 -57.5t-9 -51.5t-34.5 -39.5t-73 -22.5l-400 560v-373q0 -26 11 -46t31 -37h93l18 -54q-5 -6 -13.5 -15t-19.5 -17t-24.5 -13.5t-27.5 -5.5h-258l-51 36q6 17 16.5 34.5
t21.5 35.5t21.5 35.5t16.5 34.5l-15 556q-10 11 -24 20.5t-27.5 19.5t-24.5 20t-15 20q11 11 24.5 26t25.5 29h188l345 -488q6 -2 12 1q4 2 7.5 8.5t3.5 20.5v309q-9 16 -26 25t-38 17.5t-43.5 19t-43.5 28.5q0 11 11.5 28t22.5 31z" />
    <glyph glyph-name="O" unicode="O" horiz-adv-x="843" 
d="M897 267q0 -48 -19.5 -88.5t-52 -74t-74 -59t-86 -42.5t-87.5 -26t-78 -9q-95 0 -171.5 35.5t-130 94.5t-82 134.5t-28.5 154.5q0 23 3.5 40.5t11.5 49.5q26 99 60 165t80 105.5t107 56t142 16.5q35 0 78 -8.5t88 -25.5t88 -43t76.5 -61t54 -79t20.5 -97v-239zM720 460
q6 48 -15.5 96.5t-57 87.5t-77.5 63.5t-78 24.5q-42 0 -75 -17.5t-58.5 -46t-43.5 -64t-29 -71.5t-16.5 -69t-5.5 -55q0 -17 4.5 -50t15.5 -72t28.5 -80t43.5 -74.5t62 -55t82 -21.5q41 0 81 23t73 63.5t55 95.5t26 119z" />
    <glyph glyph-name="P" unicode="P" horiz-adv-x="785" 
d="M872 560q0 -78 -37.5 -133t-91.5 -89.5t-113 -50.5t-102 -16q-15 0 -17 2.5t-2 5.5t-2.5 5.5t-17.5 2.5q-6 0 -28 -3.5t-45 -12t-41.5 -21.5t-18.5 -33q0 -15 2.5 -24.5t5 -21.5t5 -29.5t2.5 -47.5q21 -22 35.5 -31.5t43.5 -9.5h20.5t7.5 1.5t3 4.5t7 9l102 -52
q-6 -12 -17 -25t-25.5 -23.5t-30 -17.5t-30.5 -7h-376l-36 38q7 14 21 27t31.5 25t36.5 23.5t37 23.5v572q0 24 -12.5 39t-32.5 26t-45 21t-51 24q34 43 58 57.5t29 14.5h387q56 0 116 -20.5t109.5 -57.5t81 -87t31.5 -109zM700 553q0 51 -19.5 84t-52 52t-75 26.5
t-89.5 7.5h-106v-341h176q15 0 43 14.5t55.5 38.5t47.5 55t20 63z" />
    <glyph glyph-name="Q" unicode="Q" horiz-adv-x="751" 
d="M797 448q0 -54 -16 -108.5t-50.5 -105t-88 -95t-128.5 -78.5q5 -5 8.5 -10.5t8 -10.5t12 -8.5t20.5 -3.5h206v-51l-154 -56l-209 54l-114 -41q-7 -2 -18 1.5t-22 10.5t-21 16.5t-15 19.5l82 93q-66 41 -110 83.5t-71 89t-38 99.5t-11 114q0 78 20.5 147t63.5 120
t109.5 81t157.5 30q100 0 171.5 -34.5t117.5 -90t67.5 -125.5t21.5 -141zM649 441q0 22 -4 54.5t-13.5 67.5t-25.5 70t-40 62.5t-56.5 45t-76.5 17.5q-62 0 -106 -30.5t-71.5 -75t-40 -93t-12.5 -84.5q0 -19 4.5 -50t14.5 -67.5t26.5 -73.5t41.5 -66.5t58.5 -48.5t77.5 -19
q54 0 96 29.5t70 73.5t42.5 95t14.5 93z" />
    <glyph glyph-name="R" unicode="R" horiz-adv-x="893" 
d="M949 -14q-21 -12 -56 -15.5t-62 -3.5q-45 0 -75.5 13t-54.5 36.5t-46 57.5l-49.5 76.5t-65.5 92.5t-93 106h-67v-290l123 -16v-74h-424v57q19 15 41 24t40.5 19t31 24.5t12.5 41.5v581l-158 65q3 8 9.5 21t18.5 25t30.5 20.5t45.5 8.5h425q40 0 91.5 -21.5t97 -55.5
t76.5 -76.5t31 -84.5q0 -46 -21.5 -81t-53 -65t-67.5 -57.5t-65 -58.5l285 -315v-55zM664 660q-12 12 -24.5 26.5t-25 27t-26.5 21t-29 8.5h-194v-281q35 -12 66.5 -15.5t58.5 -3.5q8 0 32.5 11.5t53 27t54 32.5t34.5 29v117z" />
    <glyph glyph-name="S" unicode="S" horiz-adv-x="728" 
d="M809 174q0 -47 -20 -86t-52 -68.5t-72.5 -51.5t-81 -35.5t-78 -19.5t-63.5 -5l-364 19q8 24 8 43t-2 33.5t-5.5 24t-3.5 15.5v157q12 12 45.5 15.5t92.5 3.5q6 -25 25 -59.5t47.5 -66t65 -53.5t76.5 -22q29 0 65 12.5t68.5 34t54.5 50t22 59.5q0 44 -23.5 71t-62 43
t-87.5 26t-100 20t-100 24t-87.5 39t-62 65t-23.5 102q0 58 17.5 100t46 71.5t65 48t75 29t75.5 14t66 3.5h231q36 0 58 -19.5t34 -46t15.5 -52.5t3.5 -38q0 -13 -6 -29.5t-14 -34t-17 -33.5t-15 -28q-50 15 -82.5 43t-62.5 55.5t-65 49t-90 24.5q-42 2 -72.5 -13t-51 -39.5
t-30.5 -54.5t-10 -57t18 -47.5t45.5 -35t61 -23.5t64 -14.5t54 -8.5t32.5 -4q77 -12 129 -33t84 -52t45.5 -72t13.5 -93z" />
    <glyph glyph-name="T" unicode="T" horiz-adv-x="904" 
d="M806 492v249q-28 25 -57.5 35t-58.5 10q-16 0 -25.5 -2t-16 -5t-13 -5t-15.5 -2v-717h195q-1 -7 1 -17t3.5 -22.5t0.5 -27t-7 -30.5h-579v61l47 38h105q5 -1 14.5 10t19.5 27.5t17 37t7 38.5v521q0 14 -2.5 23.5t-8 21t-14.5 29t-22 48.5h-93q-15 -33 -25.5 -49.5
t-17 -26.5t-9.5 -18t-3 -24v-192q-20 -15 -43 -27t-50 -12q-32 0 -52 16t-32 42v310l41 41l71 -45l729 59q13 -13 28 -27.5t27 -27.5v-340h-162z" />
    <glyph glyph-name="U" unicode="U" 
d="M896 791q0 -12 -10 -23t-23.5 -21.5t-26 -20.5t-18.5 -22v-485q0 -37 -22.5 -84.5t-59 -89.5t-82.5 -70.5t-94 -26.5q-18 1 -29 -1.5t-21 -5.5t-19.5 -6t-24.5 -3q-13 0 -39.5 4t-58.5 12.5t-65 21.5t-60 30q-7 5 -16.5 15.5t-19 23.5t-20 27t-20.5 26l-4 10
q-3 5 -6.5 10.5t-8.5 11.5v20q-1 6 -10 11t-19.5 11.5t-19 16t-8.5 24.5v356q0 12 7 27t14.5 31t12 33t0.5 34q-7 29 -13.5 42t-11 19t-6.5 9t-1 10v65h282l52 -33q-22 -21 -46.5 -34.5t-45.5 -26t-34.5 -27t-13.5 -36.5v-379q0 -31 11.5 -72t35.5 -78.5t60.5 -63.5
t87.5 -26q32 0 64 17t57.5 42t42 54t16.5 53v494l-109 64q3 12 15.5 25t26.5 23.5t26.5 17.5t16.5 7l240 -18q0 -6 3 -8t6 -5.5t6 -10t3 -21.5z" />
    <glyph glyph-name="V" unicode="V" horiz-adv-x="894" 
d="M952 771q-58 -51 -101 -126.5t-77 -160.5t-63 -172t-60 -162.5t-67.5 -131.5t-86.5 -78l-449 818v57l357 12q-16 -34 -29 -50t-25.5 -25t-25.5 -16.5t-28 -23.5l195 -491l196 462v42l-109 62q0 12 13 29t43 17h307z" />
    <glyph glyph-name="W" unicode="W" horiz-adv-x="842" 
d="M935 819q-6 -19 -21 -34t-29 -32.5t-23.5 -42t-3.5 -62.5l-77 -540q-6 -25 -11.5 -51t-15 -47t-24.5 -34t-41 -13q-24 0 -44 22t-37.5 56.5t-33.5 77t-32.5 83.5t-34.5 76t-39 55l-105 -368h-102l-126 619l-76 239l336 12q-7 -19 -15.5 -36.5t-21 -29.5t-29.5 -17.5
t-42 -1.5v-194l41 -178l151 292q45 -19 64 -53.5t31 -75.5t26 -84t49 -79l45 148v224l-111 16v70l300 15z" />
    <glyph glyph-name="X" unicode="X" horiz-adv-x="885" 
d="M951 34q0 -6 -3.5 -16.5t-8.5 -21.5t-12 -22.5t-13 -18.5h-336v82q4 4 12 6.5t19 7t23.5 11.5t24.5 19l-142 205q-25 -11 -50 -34t-46 -52t-36.5 -60t-21.5 -57l81 -65v-67h-357q0 7 -9 22.5t-9 27.5l327 415l-327 366q0 6 3.5 16.5t9 22t12 22t12.5 16.5h288
q0 -14 11.5 -30t23.5 -28q-8 -5 -16.5 -13t-16 -18t-12.5 -20.5t-5 -19.5l111 -167q6 1 24 13.5t38 32t38.5 44t26.5 48.5t1 45t-37 35v78h338v-77l-310 -357z" />
    <glyph glyph-name="Y" unicode="Y" horiz-adv-x="788" 
d="M875 757q-30 -16 -65.5 -52t-70.5 -83t-68 -101.5t-58 -108.5t-40 -103.5t-15 -85.5q0 -32 -4 -55t8 -42t51 -36t125 -36v-80h-477q-11 5 -25.5 11t-25.5 17q16 30 38 42.5t46.5 17.5t50 8t47.5 13v221l-333 439v52l35 34h278l35 -37q-6 -11 -16.5 -22t-20.5 -22
t-17.5 -20.5t-6.5 -17.5l129 -214l129 220q-9 14 -30.5 22t-44.5 19q0 6 3 15.5t8 20t11 20t12 15.5h312v-71z" />
    <glyph glyph-name="Z" unicode="Z" horiz-adv-x="719" 
d="M768 -14q-9 -11 -26 -20.5t-36.5 -16.5t-39.5 -11.5t-35 -4.5h-491q-11 4 -21 14.5t-17.5 23t-11.5 26t-4 25.5l429 704h-221v-215h-191v274q17 21 45.5 37t58.5 16h493q6 -6 12.5 -16.5t11.5 -21t8.5 -20.5t3.5 -16l-412 -682q0 -12 7.5 -19.5t19.5 -18.5h154
q31 0 47 15t23 38.5t9 53.5t5.5 60t12 57t29.5 45h101l36 -36v-291z" />
    <glyph glyph-name="bracketleft" unicode="[" horiz-adv-x="329" 
d="M337 -56l-158 -13q-29 -3 -46.5 16.5t-27 51t-12 70.5t-2.5 76.5t1 69t-1 47.5l-12 553q14 17 36.5 28.5t45.5 11.5h178q0 -10 6.5 -29t6.5 -62h-124v-712q4 -4 22.5 -8.5t41 -9t43.5 -9t30 -9.5v-44z" />
    <glyph glyph-name="backslash" unicode="\" horiz-adv-x="430" 
d="M78 786q0 6 4 14.5t10 16.5t12.5 15t11.5 10q18 -3 35.5 -23.5t34.5 -52t33 -71t31 -79.5t28.5 -78t25.5 -66q18 -41 37.5 -92t39 -104t37 -104.5t31 -93t21.5 -69.5t8 -34q0 -20 -3 -27.5t-12 -15.5h-61z" />
    <glyph glyph-name="bracketright" unicode="]" horiz-adv-x="304" 
d="M338 -17q-14 -17 -35.5 -27.5t-43 -16.5t-39.5 -8t-25 -2q-10 0 -25.5 3t-33 8.5t-34.5 13.5t-31 17q14 22 30 33t34 17t36.5 11.5t37.5 17.5v695q-10 10 -17.5 11t-17.5 10h-66q-12 0 -17 2.5t-7.5 5t-4.5 5t-7 2.5v68h266v-866z" />
    <glyph glyph-name="underscore" unicode="_" horiz-adv-x="736" 
d="M664 -9h-613v71h704q0 -6 5.5 -23t5.5 -25z" />
    <glyph glyph-name="a" unicode="a" horiz-adv-x="770" 
d="M855 40q-7 -13 -18.5 -26t-25 -22.5t-27.5 -15.5t-25 -6q-12 0 -40 4.5t-61 9.5t-66 8.5t-54 1.5q-25 -3 -50 -9t-48 -13t-43 -12t-34 -5q-44 0 -93.5 10t-91.5 33t-70 60t-28 91q0 40 23.5 79t59.5 70.5t79 51.5t83 23l222 14q6 6 8 7.5t2.5 3.5t0 7.5t-0.5 19.5
q0 15 -7 33.5t-20.5 34t-34.5 24.5t-48 5l-211 -60q-24 11 -47.5 27.5t-34.5 38.5q5 28 39 47t78.5 30.5t89 16.5t69.5 5q20 0 50.5 -2.5t64.5 -10t68 -20.5t61.5 -33.5t44.5 -49.5t17 -69v-343q17 -20 51 -34t68 -25zM572 264l-49 34h-61q-25 0 -60 -10t-66.5 -29
t-54 -46.5t-22.5 -63.5q0 -15 6 -31t16 -29t22 -21.5t25 -8.5h101q14 0 31.5 11t37 27t38.5 35.5t36 35.5v96z" />
    <glyph glyph-name="b" unicode="b" horiz-adv-x="759" 
d="M843 192q0 -58 -35 -105.5t-86.5 -80.5t-109.5 -50.5t-103 -15.5l-195 44l-101 -29h-119l-34 35q4 10 14.5 19.5t23.5 18.5t26.5 18.5t23.5 19.5v661l-86 58v66h134q39 0 59 -14t28.5 -33t8.5 -39v-33v-133l12 -24q20 1 48 6t57 11t54.5 10.5t38.5 4.5q47 0 106 -18.5
t111 -53t88 -84t36 -110.5v-149zM698 274q0 26 -10 65.5t-33 76.5t-62 63.5t-98 26.5q-39 0 -76 -21.5t-65 -54t-45 -71t-17 -71.5q0 -2 3.5 -21t11.5 -46t21 -58.5t32 -58.5t44 -44.5t57 -17.5h97q26 0 46 15.5t35.5 39t26.5 51.5t18 54t10.5 45.5t3.5 26.5z" />
    <glyph glyph-name="c" unicode="c" horiz-adv-x="705" 
d="M783 497q-9 -16 -13 -41t-9 -48.5t-16 -40.5t-35 -19l-237 144q-66 12 -112.5 -7t-76.5 -55t-44 -81t-14 -86q0 -38 20.5 -80t53 -73.5t71 -47t74.5 -0.5l244 100l71 -9l8 -59q-48 -40 -87.5 -65.5t-76.5 -40t-76.5 -20t-87.5 -5.5t-112 17t-121.5 53t-97.5 91t-40 131
q0 14 2 23t5 16.5t5 15t2 18.5q22 82 63.5 133t93 79.5t110 38.5t113.5 10h288z" />
    <glyph glyph-name="d" unicode="d" horiz-adv-x="721" 
d="M801 -13q-15 -14 -45.5 -21.5t-64.5 -8t-66.5 5.5t-52.5 20l-186 -52q-90 8 -151 37t-98.5 72t-54 97.5t-16.5 112.5q0 87 27.5 147.5t72.5 99t102.5 56t116.5 17.5q11 0 29.5 -2.5t40 -8t44.5 -13t44 -18.5q6 -1 12 1q4 2 7.5 8t3.5 19v129l-24 24h-106q-12 0 -21.5 5
t-18.5 12.5t-18 15.5t-20 13q8 20 30 35.5t48 15.5h53l97 14q62 0 97 -25t35 -92v-625q8 -20 34 -32t49 -21v-38zM580 250q0 7 -4.5 26t-13.5 43.5t-23.5 51.5t-34.5 50t-46.5 37.5t-58.5 14.5q-44 0 -78 -21.5t-56.5 -54.5t-34 -72.5t-11.5 -74.5q0 -25 9.5 -62.5t30 -73
t53.5 -61t80 -25.5q35 0 69 20.5t60.5 52.5t42.5 71.5t16 77.5z" />
    <glyph glyph-name="e" unicode="e" horiz-adv-x="693" 
d="M770 70q-2 -4 -16.5 -14t-35.5 -22.5t-46 -26.5t-48 -25.5t-40.5 -19t-24.5 -7.5h-253q-51 0 -94.5 34t-75.5 80.5t-50 94.5t-18 75q0 52 21.5 107t59 100.5t88.5 74.5t109 29h159q45 0 90 -28t81 -67.5t58.5 -84t22.5 -77.5q0 -13 -2.5 -21t-5.5 -14.5t-5.5 -13
t-2.5 -17.5h-436l-76 -26v-38q0 -23 15 -41t37 -32t48 -24.5t48.5 -17t38 -9.5t16.5 -3l279 81q5 -4 12.5 -8.5t16.5 -9.5t17 -12t13 -17zM593 319q-6 46 -28 73t-49 41t-55.5 18t-48.5 4q-6 0 -35.5 -4t-61.5 -15.5t-58 -31.5t-26 -52v-33h362z" />
    <glyph glyph-name="f" unicode="f" horiz-adv-x="632" 
d="M684 733h-234q-25 0 -43 -17t-30 -38t-17.5 -39.5t-5.5 -21.5q0 -24 18 -41t40 -17q14 0 31.5 2t36 3.5t37.5 0.5t35 -6l76 -17v-71h-261v-438h155l106 -27q0 -6 -3 -15.5t-7.5 -19.5t-10 -19.5t-11.5 -14.5h-529v95h157v330q0 27 -10 51t-43 49h-87l-34 31q8 15 25 25.5
t38 20.5t42 20.5t37 26.5q10 10 14 28.5t8 41t10 46t19 42.5q23 32 54 50.5t65.5 27.5t70 11t66.5 2q16 0 44.5 -1.5t59.5 -7.5t58.5 -19t40.5 -37z" />
    <glyph glyph-name="g" unicode="g" horiz-adv-x="725" 
d="M802 621q-1 -5 0.5 -13.5t2.5 -19.5t0.5 -23.5t-6.5 -26.5q-17 5 -39 -6t-44 -33v-536q0 -23 -21.5 -58t-54.5 -68t-73 -57t-77 -24h-250l-15 84h178q34 0 64.5 14t53.5 36.5t36.5 50t13.5 55.5v54q-15 24 -45 26t-64 -4.5t-67 -16.5t-56 -10q-60 0 -110.5 30t-87 75
t-57 97t-20.5 95q0 48 17.5 100.5t55 97t97 73t142.5 26.5l187 -44q15 11 33.5 17t38 10t38.5 7.5t35 9.5zM571 327q0 32 -12 69t-35.5 68.5t-58.5 52.5t-82 21q-36 0 -67.5 -17.5t-55.5 -44.5t-37.5 -59t-13.5 -61q0 -26 12 -62t34.5 -69t55 -56t72.5 -23q20 0 51.5 13.5
t62 37.5t52.5 57.5t22 72.5z" />
    <glyph glyph-name="h" unicode="h" horiz-adv-x="758" 
d="M555 -43q-13 8 -25.5 25.5t-23.5 39.5l88 46v318q0 10 -10 28.5t-26 37t-35.5 32.5t-39.5 14q-25 0 -56 -12.5t-58.5 -32.5t-46.5 -44.5t-19 -48.5v-292l99 -59q0 -6 -3 -14.5t-9.5 -17t-16.5 -14.5t-24 -6h-275l-8 69q23 8 46 20.5t41 34.5v584q0 8 -10 25.5t-25.5 37
t-33.5 38t-34 30.5q2 20 14.5 33.5t31.5 21.5t42 11.5t44 3.5q25 0 60 -10.5t61 -22.5v-224q16 -21 39 -22.5t49 5t54 15.5t53 9q28 0 71.5 -10.5t85 -33t71 -57t29.5 -81.5v-352l87 -59v-66h-287z" />
    <glyph glyph-name="i" unicode="i" horiz-adv-x="591" 
d="M422 711q0 -23 -14.5 -46t-33.5 -39h-92q-11 22 -21.5 40t-10.5 45q0 48 22 74t64 26q20 0 36 -11t27 -26.5t17 -33t6 -29.5zM647 23q3 -10 6.5 -22.5t3.5 -25.5t-5.5 -26t-20.5 -24h-562l-33 35q5 12 27 23.5t46 20.5t43.5 14.5t20.5 5.5h105v349l-39 71h-144v107h175
q15 0 40.5 -0.5t50 -7t42 -22t17.5 -44.5v-454h227z" />
    <glyph glyph-name="j" unicode="j" horiz-adv-x="436" 
d="M430 686q0 -18 -8 -29.5t-19 -18.5t-23.5 -10t-21.5 -3q-32 0 -58.5 18t-26.5 49q0 36 22 63t57 27q18 0 32.5 -11.5t24.5 -27.5t15.5 -32t5.5 -25zM478 17q0 -18 -15.5 -49.5t-39.5 -61.5t-53 -52.5t-56 -22.5h-243l-13 70h148q13 0 36.5 7t46.5 20t40 29.5t17 36.5v475
h-275l-14 44q1 1 10.5 9.5t23 18t29 17t28.5 7.5h290q11 -9 19.5 -27.5t14.5 -38.5q7 -22 12 -48z" />
    <glyph glyph-name="k" unicode="k" horiz-adv-x="765" 
d="M850 38q-11 -12 -32 -23.5t-42.5 -21t-38 -15.5t-17.5 -6l-186 16q-7 23 -7 38.5t2 28t3 24.5t-5 27q-23 21 -42 43t-38.5 42.5t-41.5 39t-51 32.5l-11 -197q2 -9 -4.5 -24t-16 -29t-21.5 -25.5t-22 -14.5h-195v84q23 -2 52 9.5t48 31.5v647q-18 19 -41 30t-42 22.5
t-29 27.5t-2 44l128 16q25 0 61 -12.5t69 -34.5v-322l26 -96q18 6 36 22t32 39t21 52t3 61h315v-70q-38 5 -80.5 -10.5t-83 -41t-76.5 -57t-62 -58.5z" />
    <glyph glyph-name="l" unicode="l" horiz-adv-x="626" 
d="M695 10q-5 -5 -8.5 -11t-8.5 -11t-12.5 -8t-21.5 -3h-558l-33 33q0 6 5.5 15t13 18.5t15.5 19t13 15.5h116q24 0 41.5 8t38.5 29v581q0 27 -15 41.5t-37 25.5h-101q-11 11 -22.5 20.5t-22.5 9.5v79h293q13 -7 22 -23.5t14.5 -36.5t8 -42t2.5 -41v-652h242q0 -6 2.5 -15.5
l5 -19t5 -18.5t2.5 -14z" />
    <glyph glyph-name="m" unicode="m" horiz-adv-x="836" 
d="M909 52v-51l-213 -13v516l-45 41q-12 -5 -26.5 -10.5t-26.5 -13.5t-20.5 -18t-8.5 -24v-363l76 -60q1 -7 -3 -17.5t-11 -21t-16.5 -19t-20.5 -11.5h-141l-34 33v484l-55 41q-11 -6 -25.5 -14t-27 -18.5t-21.5 -23t-9 -26.5v-361l90 -46v-68l-323 -9v73q0 13 8 16.5
t18.5 6t20.5 6.5t15 19q14 44 17.5 68t1 35.5t-10 14t-15 2.5t-13 0.5t-5.5 8.5v246q0 14 5 18t10 4.5t8.5 0.5t1.5 6q-3 6 -9.5 14.5t-11.5 18.5t-6.5 19t4.5 15v49h421l174 46q11 0 32 -10t46.5 -24.5t52.5 -32.5t48.5 -33.5t35.5 -27t14 -14.5z" />
    <glyph glyph-name="n" unicode="n" horiz-adv-x="759" 
d="M508 -21v69q6 7 28 14t44 30l15 275q-10 39 -19 66t-23 43.5t-36.5 24t-61.5 7.5q-22 0 -49.5 -16.5t-51 -39t-39.5 -46t-15 -38.5l15 -277q19 -20 41.5 -26t45.5 -16v-52q-11 -11 -24.5 -15t-24.5 -5l-208 -13l-94 34q6 11 18.5 23t27.5 26.5t30 32.5t26 40v276
q0 12 -10.5 32.5t-26 42t-33 41t-31.5 28.5q-3 14 11.5 37t36.5 34h136l86 -30q22 11 48.5 19.5t52 14t48 8t35.5 2.5q33 0 73 -6.5t75 -24t60 -47t28 -75.5l14 -237q-18 -55 -8 -90t30 -60.5t41 -46t24 -46.5z" />
    <glyph glyph-name="o" unicode="o" horiz-adv-x="837" 
d="M894 263q0 -57 -21.5 -103.5t-56 -82.5t-78 -62t-87.5 -43t-84.5 -25t-69.5 -8q-83 0 -155.5 25t-126 71t-84.5 111t-31 146q0 85 39 146t97 100.5t124.5 58.5t121.5 19q77 0 150.5 -23.5t132 -68.5t94 -110.5t35.5 -150.5zM732 277q0 48 -21.5 88.5t-56 70t-78 46
t-87.5 16.5q-6 0 -25 -4t-44.5 -12t-53.5 -20t-51.5 -27.5t-38.5 -35t-15 -43.5v-158q0 -32 27 -60.5t63 -49.5t73 -33.5t58 -12.5q33 0 76 16t82 46.5t65.5 74t26.5 98.5z" />
    <glyph glyph-name="p" unicode="p" horiz-adv-x="778" 
d="M864 304q3 -68 -28.5 -128t-84 -104t-119.5 -68.5t-134 -21.5l-157 30q-17 0 -25 -14.5t-19 -25.5v-100l26 -40h118l49 -33v-65h-367l-35 32q26 34 45 75t30 75l-30 479q10 15 9 38.5t-12.5 47.5t-32.5 44t-52 27q0 6 3 15.5t8 20.5t10.5 20.5t11.5 15.5h165
q14 0 23 -4.5t15 -10.5t9 -10.5t6 -4.5l231 60q47 7 104.5 -19.5t108 -76t86 -115.5t38.5 -139zM685 349q2 53 -18.5 88.5t-51 57.5t-65 31t-59.5 9q-36 0 -70.5 -12.5t-62 -36.5t-44.5 -58.5t-17 -79.5q0 -12 3.5 -36.5t12 -53.5t22.5 -59.5t35.5 -55t51.5 -40.5t69 -16
q30 0 63 11.5t63 35t52.5 60t30.5 87.5z" />
    <glyph glyph-name="q" unicode="q" horiz-adv-x="777" 
d="M863 590q-6 -24 -16.5 -36t-22.5 -18t-24 -9.5t-22 -11t-16 -21.5t-6 -42v-566l75 -159h-393q0 6 -2.5 15t-6 19.5t-6 20t-2.5 15.5q9 4 33 8t53.5 5.5t58.5 -0.5t47 -11v176q-30 26 -54.5 28t-48 -5.5t-48.5 -18.5t-57 -11q-72 0 -136 30t-112 79t-76 110.5t-28 124.5
q0 72 29 134t76.5 106.5t108 68t124.5 20.5l196 -46q36 21 74.5 25.5t64.5 4.5t64 -6t73 -29zM619 320q0 32 -14 69.5t-40.5 69.5t-63 53.5t-81.5 21.5q-53 0 -93 -27t-67 -65t-40.5 -78t-13.5 -67t19.5 -65.5t49.5 -73t66.5 -59t70.5 -24.5q33 0 69.5 24t67 60.5t50.5 79.5
t20 81z" />
    <glyph glyph-name="r" unicode="r" horiz-adv-x="702" 
d="M780 479q-11 -9 -33 -19.5t-38 -10.5l-130 28q-4 1 -21.5 -3.5t-41 -13t-49.5 -21.5t-48.5 -29.5t-37 -37t-14.5 -43.5v-201q3 -10 12 -20t20.5 -17.5t23.5 -11t22 -2.5l101 14l91 -31v-52l-120 -31h-402l-48 34q13 26 30.5 36.5t38 18t43 17t46.5 33.5v336
q-15 10 -33 16t-37 9.5t-37.5 7t-34.5 8.5l-16 51q14 9 38.5 17.5t50.5 15t49 10.5t33 4q44 0 69.5 -9t40.5 -19.5t23 -19.5t17 -9q2 0 17.5 5.5t38 13.5t49 17t50.5 17t42.5 13.5t24.5 5.5q18 0 39 -0.5t43.5 -5.5t44.5 -17.5t43 -36.5v-67z" />
    <glyph glyph-name="s" unicode="s" horiz-adv-x="666" 
d="M709 134q0 -19 -16 -45.5t-40 -50.5t-53.5 -41t-56.5 -17h-464v188q8 13 23.5 24t46.5 11q11 0 38.5 -21t64.5 -46t80.5 -46t85.5 -21q11 0 37.5 6.5t55 19t50 30.5t21.5 41q0 27 -16.5 47.5t-39.5 35t-47.5 22t-40.5 7.5h-190q-26 0 -56.5 20.5t-56.5 48.5t-43.5 57
t-17.5 45q0 41 16.5 72t43.5 53.5t61 37t68 23t65.5 12t53.5 3.5h324v-191q-28 0 -52.5 -8.5t-35.5 -8.5l-267 104q-3 -1 -21 -6.5t-38.5 -15.5t-37 -25t-16.5 -35q0 -24 12.5 -39.5t29 -25t33 -13.5t24.5 -4h146q35 0 74.5 -11.5t73.5 -30.5t56 -44.5t22 -53.5v-108z" />
    <glyph glyph-name="t" unicode="t" horiz-adv-x="724" 
d="M464 -110q-26 -6 -69 4.5t-84 35.5t-71 63t-30 86v352l-134 45v52q19 21 56.5 35t77.5 12v157q0 14 7.5 29t19 27t26 20t28.5 8q33 0 48.5 -17t21.5 -43t5.5 -56.5t0.5 -59t6.5 -50t23.5 -28.5l318 -10v-60q-11 -11 -24 -16.5t-24 -16.5h-310v-369q0 -31 17 -48t39.5 -26
t45.5 -12.5t34 -8.5l245 59q6 0 14.5 -2.5t18.5 -6t18.5 -6t14.5 -2.5v-70z" />
    <glyph glyph-name="u" unicode="u" horiz-adv-x="703" 
d="M548 -4l-186 -44q-36 2 -75 16t-72 38t-54 56t-21 70v310l-99 72q3 17 12 29.5t20 20.5t24 12t23 4h116l47 -47v-376q0 -19 12 -35.5t28.5 -29t33.5 -19.5t26 -7q20 0 49 12.5t56 31t46.5 40t19.5 40.5v253q-6 14 -19 22.5t-29 13t-32.5 5.5t-30.5 -2q0 6 -2.5 14.5
t-6 18.5t-6 18.5t-2.5 14.5q6 5 9.5 11t8.5 10.5t13 7.5t21 3h172l47 -47v-428q20 -23 41.5 -34t42.5 -22v-53h-233z" />
    <glyph glyph-name="v" unicode="v" horiz-adv-x="823" 
d="M473 -59l-401 588v81h190q26 0 64.5 -5t71.5 -28q-12 -21 -24.5 -32.5t-25 -18.5t-26 -12.5t-28.5 -14.5l172 -334l172 319l-105 60q5 11 11 22.5t14 21.5t19 16.5t25 6.5h255l34 -51z" />
    <glyph glyph-name="w" unicode="w" horiz-adv-x="829" 
d="M617 -9q-24 -7 -40 9.5t-31.5 47t-34.5 72t-49 84.5q-27 -42 -37 -80t-19 -66.5t-25.5 -46t-57.5 -20.5l-267 533v77h140q11 0 29 -1t38 -4t40.5 -9t36.5 -17q-13 -22 -28.5 -35t-28.5 -23.5t-21 -21t-7 -28.5l68 -202q25 4 36 19t16 35.5t8 44t10 43t22.5 32.5t46.5 13
q25 0 44 -24.5t35.5 -58.5t31.5 -71t31 -61l80 217q5 21 -4.5 32t-26 18.5t-36 15.5t-33.5 22q0 5 3 14t8 18.5t10.5 18.5t11.5 13h234l32 -47z" />
    <glyph glyph-name="x" unicode="x" horiz-adv-x="790" 
d="M838 38q0 -5 -3 -14.5t-8 -19t-11 -18t-12 -12.5h-287q3 25 8.5 41.5t10 28.5t6 22.5t-1.5 24.5q-17 23 -43 49.5t-48 49.5l-96 -99q0 -5 5 -12t11.5 -14t14 -14t12.5 -13v-64h-288l-34 33l294 271l-279 256q5 11 16.5 23.5t24 22.5t24 16.5t17.5 4.5l225 -18
q-6 -16 -12.5 -35.5t-4.5 -43t17 -51t54 -57.5q3 1 20 10.5t32.5 26.5t22.5 42.5t-9 58.5v63h274l34 -33l-280 -271z" />
    <glyph glyph-name="y" unicode="y" horiz-adv-x="716" 
d="M421 -222l97 -40q0 -5 -3 -14t-7.5 -19t-10 -18.5t-10.5 -13.5h-383q0 6 -2 15t-5 19t-5 19.5t-2 15.5h154l108 221l-290 478v59l259 9q5 -8 9 -15q3 -7 5.5 -14t2.5 -12l-55 -74l146 -250l145 256q-10 10 -22 18.5t-24 16.5t-22 17t-15 19q11 20 38.5 30.5t53.5 10.5
h213z" />
    <glyph glyph-name="z" unicode="z" horiz-adv-x="658" 
d="M731 104q0 -28 -13 -59.5t-35 -64.5l-504 -8l-94 25v51l382 427q2 10 -12 22t-42 12h-158q-19 -17 -30 -50t-11 -66h-128v202l521 16q6 -3 20 -5t30 -8.5t28.5 -19t15.5 -35.5l-397 -474h226q20 14 25 36t11 43t21.5 36.5t55.5 15.5q21 0 37 -9.5t27.5 -24t17.5 -31
t6 -31.5z" />
    <glyph glyph-name="nonbreakingspace" unicode="&#xa0;" horiz-adv-x="379" 
 />
    <glyph glyph-name="exclamdown" unicode="&#xa1;" horiz-adv-x="777" 
d="M129 174q0 52 13.5 93t45.5 72t84 52t129 33q9 1 32.5 4t54 8.5t64 14.5t61 23.5t45.5 35t18 47.5t-10 57t-30.5 54.5t-51 39.5t-72.5 13q-55 -3 -100.5 -14.5t-88 -27t-86 -33.5t-94.5 -33q-6 12 12 20t41.5 15.5t44.5 16t22 21.5q-131 40 -184 72q-38 19 -41 30
t17.5 20.5t71.5 15.5t145 6h230q29 0 66 -3.5t75.5 -14t75.5 -29t65.5 -48t46 -71.5t17.5 -100q0 -62 -23.5 -102t-62 -65t-87.5 -39t-100.5 -24t-100.5 -20t-87.5 -26t-62 -43t-23.5 -71q0 -31 22.5 -59.5t54.5 -50t69 -34t65 -12.5q60 0 111.5 20t95 48.5t79 60t65.5 53.5
v0q-6 -14 -14 -39.5t-23.5 -56.5t-40.5 -64t-64 -60.5t-94 -47.5t-131 -24q-26 -2 -63 4t-78 20t-81.5 35.5t-72.5 51.5t-52 69t-20 86z" />
    <glyph glyph-name="cent" unicode="&#xa2;" horiz-adv-x="596" 
d="M634 468h-76l-109 109q-9 0 -12.5 -5t-6.5 -15v-321q2 -3 6 -4q7 -5 14 -5l183 84q5 -4 10 -7q4 -3 8.5 -5t9.5 -2v-43l-231 -145v-71q-7 -10 -19 -19t-38 -9q-21 0 -33 7.5t-18 20.5t-8.5 31.5t-3.5 39.5q-22 13 -63 35t-82 55t-72 77.5t-33 102.5q9 18 4.5 28t-4.5 19
q14 57 35 94t45.5 62t50.5 43t51 36t47.5 39.5t38.5 55.5h79q5 -9 19.5 -27t33 -35.5t39.5 -31t37 -13.5q11 0 19.5 1.5t18.5 4t24.5 4t36.5 1.5q9 -9 13.5 -19.5t13.5 -19.5v-125zM299 563q-32 -12 -50.5 -35.5t-28.5 -48t-12.5 -46.5t-2.5 -31q0 -25 8 -50t21 -46
t30 -35.5t35 -18.5v311z" />
    <glyph glyph-name="sterling" unicode="&#xa3;" horiz-adv-x="1343" 
d="M1442 656q-7 -8 -16.5 -16.5t-20 -15t-19.5 -10.5t-15 -4l-550 131h-262l-383 -111h-64q-8 8 -15.5 17t-7.5 29q0 19 8 28t16 17l92 -10l373 91h294l461 -123q17 -8 35 -7.5t52 8.5q0 -8 7 -12t15 -12zM1432 483q-14 -14 -75 -14q-21 0 -60.5 -10t-78 -31.5t-65.5 -55
t-24 -80.5q2 -22 13.5 -45.5t28 -43t35 -31t34.5 -9.5l-269 -280l-13 76l121 381q-1 2 -3 4q-5 4 -11 4l-601 -354h-25q-22 0 -52.5 10t-58.5 30t-47.5 49t-19.5 67q0 22 9.5 42.5t24 38t31 32t29.5 23.5h74q9 -6 17 -15.5t14 -20t9.5 -20t3.5 -14.5q0 -19 -8 -30.5
t-16 -19.5l-119 21q0 -8 -4.5 -12.5t-4.5 -24.5q0 -18 11 -37t28.5 -33.5t40 -22t45.5 -3.5l441 280h-258l-496 155q-16 2 -25.5 1t-16 0t-11 6t-10.5 17v45l529 113l202 -11h82l41 -10l363 -121h112zM880 600q-5 -7 -16 -26.5t-25.5 -40.5t-29.5 -37.5t-28 -16.5
q-9 0 -14 1.5t-8 3.5t-7 3.5t-12 1.5q-30 0 -47 16.5t-29 37t-22.5 38t-27.5 19.5l-323 -86l307 -117h295l287 97z" />
    <glyph glyph-name="section" unicode="&#xa7;" horiz-adv-x="590" 
d="M588 141v-69q0 -16 -22 -38t-50 -42t-55 -34.5t-37 -14.5l-239 -11q-8 0 -19 2.5t-22 7.5t-20 12t-13 16v103q-1 8 10.5 18.5t34.5 10.5q27 0 35 -7t11 -19t7.5 -28.5t22.5 -36.5l134 11q27 2 43.5 10.5t26 19.5t13 23t3.5 21q0 39 -28.5 65t-72 49t-95 46t-97 54.5
t-78 75.5t-38.5 109l68 148v88q0 21 29 40.5t65 35t68 24.5t38 9h251q8 -8 17 -19.5t9 -19.5v-70q-15 -26 -28 -32t-17 -6q-21 0 -29 3.5t-12 12t-10.5 21.5t-24.5 31h-156q-14 0 -26 -11.5t-20.5 -26t-13 -27t-4.5 -14.5q0 -36 28.5 -61t71.5 -46.5t94.5 -44t96.5 -53.5
t78 -75t40 -108zM531 301q0 20 -18 45.5t-47 51t-65 50t-71.5 44t-66.5 31t-50 11.5q-16 0 -30.5 -14t-14.5 -43q0 -14 18.5 -36.5t47.5 -48t65 -51t71.5 -45.5t66 -33t49.5 -13q20 0 32.5 15.5t12.5 35.5z" />
    <glyph glyph-name="ordfeminine" unicode="&#xaa;" horiz-adv-x="561" 
d="M598 490l-24 -212q-9 -41 -34.5 -70t-53.5 -54.5t-49.5 -51.5t-21.5 -61v-136h-19v151l163 223v98l45 177q-4 0 -4 2t-9 2q-20 0 -35.5 -20.5t-27 -46t-18 -48t-8.5 -27.5q-7 -16 -17 -36.5t-21 -39.5q-5 0 -12 4.5t-7 12.5l-30 326q-2 6 -4.5 28.5t-7 48t-12 45.5
t-20.5 20q-10 0 -14 -6t-5.5 -14.5t-2 -18.5t-3.5 -18l-5 -178q0 -8 3 -17t10 -15l16 3q-8 -11 -22.5 -22t-24.5 -11h-24l-26 -4l-20 145v131l-46 -122l-15 -169q-4 0 -11.5 -2.5t-11.5 -2.5l-11 64l20 110q-4 4 -5.5 6.5t-5.5 2.5l-71 -162v-316l49 -178v-116
q-5 -4 -11.5 -7t-14.5 -3l14 135l-52 198v278l68 195h40q10 18 15.5 45.5t19.5 52.5q4 8 15.5 14.5t21.5 10.5q0 4 3 13t8.5 18.5t14 16.5t19.5 7t16.5 -8.5t8.5 -18.5t5 -18.5t5 -8.5q8 0 13 5t14 5q18 0 28.5 -15.5t16.5 -35t8.5 -38.5t3.5 -27l44 -320q8 3 18 30t24 57.5
t33 55.5t45 25q16 0 24 -14t10 -20zM320 463q-1 -15 -11.5 -27.5t-25.5 -23t-32 -20t-31 -17.5h-17zM304 198v-95h-16q-4 3 -7.5 11.5t-3.5 19.5t2.5 23.5t2.5 22.5v29l77 170zM192 384q0 -4 -3.5 -9.5t-7.5 -9.5h-22q0 4 3 9.5t7 9.5h23zM326 818q0 2 -1.5 8.5t-5 13.5
t-8.5 14t-13 10q-8 -11 -10.5 -26t-5.5 -25l-15 -104l10 -55v-78q0 -4 2.5 -13.5t-2.5 -23.5h49v279z" />
    <glyph glyph-name="degree" unicode="&#xb0;" horiz-adv-x="398" 
d="M442 657q0 -32 -15.5 -63.5t-41 -56.5t-58.5 -40.5t-67 -15.5q-35 0 -71.5 12.5t-66 36.5t-48.5 59t-19 80q0 22 13.5 48.5t35.5 50t50 39t56 15.5h88q26 0 51.5 -17t46 -42.5t33.5 -54t13 -51.5zM328 657q0 6 -4.5 20t-14 28.5t-25 26t-36.5 11.5q-10 0 -24 -7.5
t-26 -18t-20.5 -22.5t-8.5 -21q0 -1 3 -19t11 -39t24 -38t41 -17q10 0 23.5 8t26 21t21.5 30.5t9 36.5z" />
    <glyph glyph-name="plusminus" unicode="&#xb1;" horiz-adv-x="530" 
d="M589 227q-2 -7 -6 -13q-4 -5 -10.5 -9t-16.5 -4h-157v-142q-8 -9 -21 -17.5t-34 -8.5q-30 0 -48 17t-18 46v74l-29 30q-16 -9 -28.5 -10t-31.5 -1q-21 0 -48 11t-52 28q9 7 20.5 24t28.5 25h121l19 20v74q0 11 5.5 22t14.5 20t20 14.5t21 5.5q12 0 23 -5t19.5 -12.5
t13.5 -15.5t5 -15v-89q8 -8 15 -9.5t15 -9.5h111q8 -9 24 -21t24 -29zM576 -24v-63l-393 -13q-19 -1 -44 10t-50 28q13 15 37.5 30.5t45.5 20.5z" />
    <glyph glyph-name="twosuperior" unicode="&#xb2;" horiz-adv-x="340" 
d="M378 583q0 -19 -12.5 -30.5t-20.5 -18.5h-259q0 8 -5.5 17.5t-5.5 13.5l202 186q-5 14 -21.5 25t-27.5 10l-102 -51q-6 3 -12 5q-6 3 -13 4t-15 1v48q7 14 27.5 25.5t44.5 19.5t46.5 13t32.5 5q12 0 33.5 -4.5t43.5 -13t38 -20.5t16 -26v-95q-9 -7 -21.5 -20.5
t-29.5 -27.5q8 -7 18.5 -15t20 -16t16 -16.5t6.5 -18.5z" />
    <glyph glyph-name="threesuperior" unicode="&#xb3;" horiz-adv-x="312" 
d="M347 570q-4 -20 -24.5 -32.5t-45 -19t-47 -9t-31.5 -2.5q-15 0 -34.5 2t-39.5 8t-39.5 16t-34.5 26q-1 4 3 10.5t10.5 12.5t13.5 10t13 4l114 -30q14 -1 28.5 9t14.5 26q0 20 -11.5 29.5t-27.5 13.5t-32.5 6t-26.5 8v35q9 2 20.5 4t23.5 7t23.5 13.5t20.5 21.5
q-26 35 -49 35l-107 -19q-3 25 10.5 40.5t34 24t42.5 11.5t35 3q23 0 50.5 -6t48 -22.5t28 -45t-10.5 -72.5q-1 -3 3 -8t9.5 -11t10 -13t4.5 -14v-72z" />
    <glyph glyph-name="paragraph" unicode="&#xb6;" horiz-adv-x="574" 
d="M638 796q-12 -19 -28.5 -28.5t-32.5 -17t-27 -16t-11 -25.5v-663l98 -38q-4 -21 -17.5 -33t-28.5 -17.5t-29.5 -6.5t-22.5 -1q-14 0 -33 3.5t-36.5 12t-29.5 21.5t-12 32v700l-21 22h-54v-751q-9 -9 -19.5 -20t-20.5 -19h-155v58q17 9 32 19t27 20.5t19 20t7 16.5
l-11 287q-69 23 -105 53t-51 64t-16.5 68.5t-1.5 64.5q0 35 6.5 67.5t24 60t47 47.5t75.5 29l347 12q16 1 38.5 -11t41.5 -31z" />
    <glyph glyph-name="ordmasculine" unicode="&#xba;" horiz-adv-x="684" 
d="M598 738q-1 -3 -4.5 -9t-11.5 -6q-5 0 -13.5 3.5t-8.5 8.5l2 20q1 2 2 7.5t3 10.5t5.5 9t9.5 4q8 0 13 -7t5 -12zM684 564q0 -7 -7 -12.5t-12 -5.5q-4 0 -7 4t-5 9t-3 10t-2 7l14 57v45h11q3 -2 7 -7.5t4 -9.5v-97zM493 771q-5 -8 -8.5 -14.5t-13.5 -6.5q-8 0 -19 8.5
t-10 17.5l2 19q0 2 2.5 8t5.5 12.5t7.5 11.5t8.5 5q10 0 15 -13t5 -18zM598 673q0 -4 -3.5 -5.5t-4.5 -5.5q-2 -3 1 -8.5t3 -13.5q0 -11 -11 -19t-16 -8q-3 0 -6.5 5t-6.5 11t-5 11t-2 6q0 4 4 3t4 3v38v17l8 6t8 3q7 0 17 -7t10 -15v-21zM677 469q2 -6 -11 -17h-19
q-2 0 -9 6t-7 12l11 29v21q0 10 7 20h8q5 0 13 -4.5t12 -9.5zM582 547l1 -53q0 -10 -3 -17t-14 -7q-4 0 -6 1.5t-5 1.5q-8 -1 -13 7.5t-7 22.5l10 40v21l7 41h21q1 0 9.5 -3t10.5 -9zM717 376v6h3v-6h-3zM478 677v-42q-2 -3 -6 -6t-9 -6q5 -9 11.5 -13t5.5 -11l-6 -104
q1 -5 0.5 -13.5t-12.5 -8.5t-17 9t-13 22l8 58v23l-2 12l8 27l-10 31l10 37l-8 25l13 24h11q6 0 17 -5.5t7 -17.5zM367 619q-1 -8 0.5 -16.5t1.5 -16.5q-7 -6 -12 -7t-9 -1q-16 0 -19 11t-7 36l5 69l-9 53q-2 7 5.5 13.5t18.5 6.5q9 0 14.5 -5t7.5 -13l9 -46zM375 457
q-3 -8 -9 -14l-27 -2q-8 -1 -11 10.5t-6 22.5l5 31l-2 49q0 2 6 9.5t14 7.5q4 0 14.5 -6t11.5 -18l-2 -63zM716 538v-20v-11l-16 -55v-218v-88l-14 -47l-21 -60v-11l-17 -34q-16 -9 -29 -25q-1 -2 -3.5 -11t-6 -18.5t-10 -17.5t-17.5 -8q-4 0 -9 -1t-10 -1h-187
q-6 0 -17 7.5t-22.5 17t-20.5 18t-11 10.5q-29 32 -49 64.5t-29 61.5q-14 41 -23.5 74.5t-20.5 68.5q-2 7 -12.5 24t-15.5 28q-5 10 -7 25t-9 26q-19 32 -35.5 53.5t-28.5 37.5t-19 29t-7 28q0 4 1.5 7t1.5 11q5 23 20.5 35t29.5 12q24 0 47.5 -13.5t43.5 -34t35.5 -44
t23.5 -43.5q2 -5 6 -10.5t4 -9.5q0 -7 -6 -11q-5 3 -8 7t-7 10t-9 15t-15 23q-16 23 -27.5 35.5t-20.5 19.5t-17.5 12t-17.5 13h-5q0 -2 -1 -2.5t-1 -1.5l65 -82q-2 -5 -10.5 -13t-11.5 -8h-19l-55 91q2 5 8 7.5t11 5.5v6q-2 2 -4 1.5t-6 -0.5q-11 0 -16 -5t-8 -21l8 -25
q2 -11 12.5 -25t18.5 -26t18.5 -31t22.5 -42.5t24.5 -48t22.5 -46.5q6 -12 12.5 -35.5t13.5 -46.5q11 -35 25.5 -72.5t33.5 -70t43.5 -55.5t54.5 -28q5 -2 10.5 -7.5t10.5 -9.5h7v24q0 25 11 40t27 23.5t34 11t32 2.5q20 0 34 -15t13 -30l8 -37l9 44q-1 8 11.5 20.5
t19.5 23.5q12 18 22.5 41t15.5 45l13 101l27 443q-3 8 -5.5 20t-16.5 12q-22 0 -32 -37l-19 -157q-3 -5 -3 -12t-8 -12h-12v47l6 91l8 157q-2 16 -10.5 21t-21.5 5h-8.5t-7.5 -2t-7.5 -10.5t-12.5 -13.5l-14 -4v-192q0 -3 -4.5 -8t-4.5 -10q-2 -12 3.5 -11t5.5 -2v-19
q-9 -4 -13.5 -6.5t-9.5 -2.5q-8 0 -10 11l-6 51l8 227q2 7 -5 20t-15 12l-17 -2q-10 -1 -16 -7.5t-9 -14.5t-3.5 -16t0.5 -12h-2q-2 1 -3 2l-10 -266q-1 -3 -2.5 -10t-4.5 -13.5t-7 -12t-9 -5.5q-4 0 -8.5 4t-4.5 8v94v164q0 3 -5.5 11t-10.5 13q-3 2 -10 3t-11 1
q-16 0 -24 -7.5t-11 -18t-3 -21v-16.5v-165l-6 -185q-2 -12 -7 -15.5t-10 -3.5q-6 0 -14.5 5.5t-6.5 14.5q17 5 19 20t2 20l-9 142l5 181q3 10 7.5 23.5t12 25.5t18.5 20t26 8q16 0 25.5 -8.5t24.5 -31.5q2 2 1.5 4t-0.5 5q4 35 20.5 62t48.5 27q20 0 37.5 -14t17.5 -35v-77
q3 2 3.5 3t2.5 3v16q0 2 1.5 8t4 13.5t6 15.5t6.5 14t15 10t20 4q4 0 13 -2t18 -6t16 -11t7 -16v-85l31 21q3 0 8 -1.5t7 -3.5q8 -9 21.5 -24.5t13.5 -38.5v-123zM656 396v-13l-46 -181l-19 -130q-4 -4 -6 -10.5t-5 -12t-8 -9t-15 -2.5l-43 4q-6 0 -18.5 -3t-25 -7t-22.5 -8
t-13 -6q-7 -5 -14 -15.5t-21 -10.5q-13 0 -20.5 10t-11.5 23.5t-6 26t-4 16.5q-10 18 -18 28t-17 26q-22 38 -44 75t-31 60q-2 5 -13 10.5t-11 14.5q0 7 6.5 13t15 10t16.5 5.5t10 0.5q3 -5 17 -34.5t32 -63t37.5 -60.5t32.5 -27q3 0 3.5 2t3.5 4v10l-8 29l-15 61l-32 103
v12l-27 65q4 8 11 12.5t15 6.5l26 2q7 1 8 -4.5t1 -7.5v-52l44 -162q3 -8 2.5 -16t11.5 -13q5 3 8 12t3 17l-6 50v74l-6 65l-9 35l-2 10q2 4 4 9t5 9h50l6 -8l-6 -38l2 -189v-9.5t0.5 -13t3 -11.5t7.5 -5q4 0 12 4.5t8 9.5v56q0 4 0.5 10t-1.5 11l3 3v104q-1 4 2 4.5t4 2.5
q-1 9 2 23q2 6 1 9t-3.5 4t-4.5 1.5t-2 2.5v25q8 5 13.5 7t9.5 4l33 -10q5 -2 9.5 -3t9.5 -4q-1 -8 -6 -22.5t-20 -20.5v-141l-18 -27v-73q2 -2 4.5 -1.5t8.5 0.5q6 9 7 13t0.5 5.5t-2.5 1.5t-2 2v15l20 19v33v13l25 115q0 5 5 13t7 15t3.5 18t6.5 16l2 2h5q2 0 13.5 -6
t14.5 -16zM255 332q0 -4 -4.5 -9t-10.5 -9t-11 -6.5l-5 -2.5q-8 0 -19 11t-20.5 25t-16.5 26t-7 14v11l36 24q5 -2 10 -3.5t9 -4.5q2 -3 1 -9.5t1 -10.5q10 -19 23.5 -32t13.5 -24z" />
    <glyph glyph-name="onequarter" unicode="&#xbc;" horiz-adv-x="509" 
d="M369 529q-5 -10 -15 -21.5t-29 -11.5q-26 0 -40 15.5t-14 39.5v213h-68l-11 35l122 83q16 -7 31.5 -18t23.5 -26v-309zM53 408q12 24 31 36t24 11h458v-47h-513zM488 125q-15 -22 -35.5 -34.5t-43.5 -26.5q8 -15 22 -28t37 -28q0 -8 -7.5 -18.5t-14.5 -18.5h-173l-22 24
q5 14 26 26t43 26q0 8 -4.5 17.5t-12.5 21.5h-180q0 11 -1.5 20.5t-9.5 17.5l231 233h43q8 -8 11.5 -16.5t11.5 -16.5v-158q13 -14 36 -20.5t43 -20.5zM308 151q8 14 7 34t-9 33q-7 -4 -15 -12t-15.5 -17.5t-14 -19.5t-10.5 -18h57z" />
    <glyph glyph-name="onehalf" unicode="&#xbd;" horiz-adv-x="510" 
d="M292 487q2 15 0.5 36t-1.5 38v175q-10 7 -25 11t-29.5 7.5t-24.5 9t-10 14.5q0 13 15.5 27.5t36 27t39 20.5t24.5 8h41q7 -8 10.5 -16t10.5 -16v-332zM64 398q10 17 28.5 32t36.5 15h438v-47h-503zM509 228q0 -41 -17.5 -63.5t-44.5 -40.5t-60.5 -39.5t-66.5 -61.5l94 19
h30l51 18q8 -8 10.5 -27.5t2.5 -48.5q-13 -14 -26.5 -24t-32.5 -9l-294 10q-8 8 -10 22.5t-2 18.5l267 227q-15 26 -33.5 40t-41.5 28l-129 -79q-3 3 -10 5.5t-14.5 6t-13.5 9t-6 14.5q0 24 21 42t49.5 29.5t58 17t45.5 5.5q27 0 57.5 -6t56 -20t42.5 -37t17 -56z" />
    <glyph glyph-name="quoteleft" unicode="&#x2018;" horiz-adv-x="216" 
d="M219 539q-8 -16 -28.5 -31t-40.5 -15q-10 0 -15.5 2t-10.5 4t-11.5 4t-18.5 2v312q15 9 28.5 11t33.5 2q35 0 59.5 -16.5t24.5 -51.5z" />
    <glyph glyph-name="quoteright" unicode="&#x2019;" horiz-adv-x="216" 
d="M219 539q-8 -16 -28.5 -31t-40.5 -15q-10 0 -15.5 2t-10.5 4t-11.5 4t-18.5 2v312q15 9 28.5 11t33.5 2q35 0 59.5 -16.5t24.5 -51.5z" />
    <glyph glyph-name="quotedblleft" unicode="&#x201c;" horiz-adv-x="434" 
d="M448 518h-126v287q5 16 22.5 26.5t36.5 10.5h66q8 -8 17.5 -18t17.5 -18v-57zM198 518h-94l-34 288q14 16 35 26t41 10q16 0 32 -5.5t29 -14.5t20.5 -21t5.5 -25z" />
    <glyph glyph-name="quotedblright" unicode="&#x201d;" horiz-adv-x="434" 
d="M448 518h-126v287q5 16 22.5 26.5t36.5 10.5h66q8 -8 17.5 -18t17.5 -18v-57zM198 518h-94l-34 288q14 16 35 26t41 10q16 0 32 -5.5t29 -14.5t20.5 -21t5.5 -25z" />
    <glyph glyph-name="bullet" unicode="&#x2022;" horiz-adv-x="990" 
d="M1027 579l-35 -422l14 -46l-36 -61l-377 -8h-63l-284 -21l-148 -27l-22 260l6 215l-20 150q9 9 23 17t29 16.5t28.5 19.5t20.5 27q6 13 6 27.5t7 34.5q30 7 67 16t79 15l139 21h91q8 -5 12.5 -18.5t9.5 -26t11.5 -21t16.5 -4.5l283 56q11 -4 21.5 -14t21.5 -21h90
q5 -5 2.5 -12t-7.5 -12q11 -11 24 -18.5t18 -23.5zM943 715l-380 -4l-7 -23q-8 -1 -13 6.5t-8.5 18.5t-5.5 21.5t-5 14.5q-2 2 -3 -3.5t-3 -13t-5.5 -14t-9.5 -6.5l-139 31l-149 -36v-56q-16 -11 -22 -23.5t-17 -14.5q-16 -3 -34 -7t-25 -11l7 -363q9 -17 11.5 -45.5
t8.5 -56.5t20.5 -48t46.5 -19l146 20l586 43v589zM448 667q-5 0 -12.5 5t-12.5 10l4 29l36 4q0 -5 4 -16t4 -16zM402 677q-5 -5 -11.5 -12t-11.5 -12h-49q-8 0 -17 -4t-18.5 -6.5t-19 -1t-18.5 12.5v19l130 35q0 -5 5 -15.5t10 -15.5z" />
    <glyph glyph-name="trademark" unicode="&#x2122;" horiz-adv-x="855" 
d="M867 538l35 -113v-61l-91 -300v-153q-4 -4 -9.5 -7t-15.5 -3q-16 0 -19 15.5t-4 36.5t-4.5 42.5t-20.5 31.5l-99 -26l-31 5q-11 0 -33.5 9t-45.5 26t-40.5 43t-17.5 59l9 117q1 6 -4.5 14t-11.5 19h-74l-124 47q-4 0 -10.5 -1.5t-13 -4t-11.5 -6t-5 -7.5v-31q0 -1 7 -3
t13 -18q7 -17 20.5 -34.5t20.5 -39.5q6 -19 21 -43.5t35.5 -45.5t44.5 -34t48 -10l-1 -111v-51h-42v33q0 3 -7 21t-17.5 38.5t-21 38.5t-18.5 21q-16 7 -35 28.5t-35.5 47.5t-27 51t-10.5 38v34l-32 69l-18 104q-24 43 -43 65.5t-32.5 38t-21 31t-7.5 44.5q0 18 5 36.5
t13 34t18.5 26.5t21.5 15q9 3 20.5 12t19.5 9h25l126 84h58l29 -10q14 20 32.5 35.5t39 26t40.5 16.5t35 9l76 -44l104 31l31 -5q22 -4 54.5 -16t54.5 -25q8 -4 13.5 -18t10 -31t7.5 -34t5 -28zM823 791q0 27 -17.5 42.5t-50.5 15.5h-51q-11 0 -22 -10.5t-11 -18.5v-148
q30 -20 62 -31.5t59 -30.5q0 3 3 7q1 2 2 3v31q9 15 17.5 33.5t8.5 27.5v79zM645 425q-3 20 -12 39t-41 30q-6 2 -11 12t-9.5 24t-8 31.5t-7.5 34.5q-2 3 -6.5 3.5t-4.5 8.5t2 9t2 8q0 12 7.5 22.5t16.5 19t17.5 13t10.5 4.5v15q-5 15 -5.5 20t1 6t3.5 1.5t2 6.5v62
q0 8 -4.5 8.5t-4.5 4.5q0 9 2 19t1 16q-2 3 -4 7q0 2 -1 3q-8 6 -21 7.5t-21 1.5q-7 0 -24.5 -3.5t-35 -12t-31 -21.5t-13.5 -31v-60q0 -8 8.5 -22t17.5 -23l22 -103q0 -2 4 -18t11.5 -38.5t18 -49t24.5 -48.5t31 -37t37 -15q4 0 8.5 5.5t9 13t7 15t1.5 11.5zM858 401
q-4 27 -23 67t-48 77.5t-65 64t-75 26.5h-40q3 -13 1 -21.5t-2 -21.5q0 -8 1 -24t9 -24q6 -6 15.5 -10.5t19 -8.5t18 -7t12.5 -6q21 -17 36 -34t24 -32q-7 -5 -16 2l-28 -63q1 -11 9 -22t20 -11q8 0 12 2.5t7 -0.5q1 -10 -3.5 -22.5t-12 -24t-17.5 -19.5t-21 -9l-75 -5
q-10 -4 -23 -20t-24.5 -35.5t-19.5 -38t-8 -26.5v-35q15 -16 25.5 -26.5t20 -18t19.5 -12.5t23 -9l49 -5q4 0 14 3.5t21.5 9t23 12.5t19.5 15q11 11 15.5 26.5t6.5 26.5q3 17 13 43.5t21 51.5t19.5 44t8.5 22v32q-12 0 -21 5l-29 -17q-2 0 -4 2q-1 0 -2 1zM441 548l-52 204
q-6 23 -21 27.5t-36 4.5q-13 0 -28.5 -5t-28.5 -14.5t-21.5 -25t-8.5 -36.5q0 -3 1.5 -11.5t4 -18.5t6 -20t7.5 -16q23 -36 41.5 -70t37 -65t39 -57.5t45.5 -47.5q9 -8 18 -19.5t16 -10.5h31l13 13t10 15zM183 701q-27 2 -44.5 -13.5t-28.5 -26.5v-79q0 -9 13.5 -29
t35.5 -44.5t48.5 -50.5t52.5 -47.5t49 -35t36 -13.5q8 0 18 4t17 11z" />
    <glyph glyph-name="infinity" unicode="&#x221e;" horiz-adv-x="1520" 
d="M1672 196q-3 -20 -8 -39t-15 -33t-25.5 -23t-38.5 -9l-158 -17l-405 -79l-9 6l-264 -63h-96l-212 -39q-15 2 -30.5 11t-35.5 19q-72 112 -148.5 226t-145.5 210q-2 8 -1.5 20.5t5.5 24.5l-12 181q-1 11 4.5 29t14.5 35l457 80l8 -6l479 85l176 17q35 0 84 -37t102 -93
t105 -121.5t93 -122.5t67 -96t26 -41zM1304 719q-4 15 -13.5 26.5t-20 19.5t-20.5 12t-16 4l-104 -19l107 -43h67zM1604 359q-12 13 -33 42.5t-47.5 65.5t-56.5 74.5t-60.5 70t-60 52t-53.5 20.5h-78v-25q4 -6 10.5 -14.5t13 -15.5t13 -12t11.5 -5t6 1t1 1.5t1 1.5t6 1
q11 0 19.5 -2t15.5 -5q3 -1 18.5 -13.5t36.5 -31t45 -40.5t44 -43.5t33.5 -39.5t13.5 -28q0 -13 -8 -17.5t-18.5 -7t-20.5 -5.5t-15 -13q8 -13 18.5 -25t18.5 -11zM1644 276q0 8 -1.5 17t-6.5 13l-114 -22q-19 2 -27.5 -4t-12.5 -14.5t-4.5 -17t-2.5 -11.5l-12 -86
q0 -4 5 -12.5t9 -12.5q5 4 10 4.5t13 0.5q42 -1 70 14.5t44.5 38.5t23.5 48.5t6 43.5zM1252 538l-317 -45l-40 6q-12 -4 -26 -15t-22 -22l70 -99l416 81zM1119 722q0 8 -7.5 14t-16.5 11t-17 8t-10 4l-625 -91h-27q-11 0 -24.5 -7t-18.5 -12q1 -9 8.5 -20.5t16.5 -16.5
q8 4 15.5 8t12.5 3l68 -34l571 85q6 -1 15 3t17.5 10.5t15 15.5t6.5 19zM1394 369l-307 -51l-185 -51l-173 235q5 14 16 20.5t14 4.5l444 80q-3 20 -11 27.5t-19.5 10.5t-26 5.5t-30.5 11.5l-204 -39l-424 -62q-14 -4 -26.5 -11t-15.5 -15l245 -347l646 124q26 5 49.5 9.5
t31.5 16.5zM1435 168q2 21 5 37t4.5 28t-0.5 21.5t-11 18.5l-289 -57l-176 -17l-163 -39q-9 4 -20.5 3t-30.5 -3q-19 -3 -38 -9t-27 -28l12 -114l13 -13l549 102l96 17h52q9 13 16 27t8 26zM362 586q-4 29 -17 45t-23 20l-128 -22q-11 -4 -21.5 -4.5t-20 -2t-18 -5
t-15.5 -14.5q5 -7 12.5 -21t16.5 -28t17.5 -24t15.5 -9l174 35zM644 203q-34 43 -69.5 84t-65.5 86q-12 18 -24 40t-23.5 43t-21 38t-17.5 24q-9 9 -24 9t-26 6l-181 -36l205 -343l247 29v20zM661 101l-12 36h-36l-191 -58v-133l239 34v121zM1142 456q0 3 3.5 8.5t-1.5 5.5
h-30q0 4 -7 -2q5 -5 14 -4.5t14 0.5v-21l-179 -34v21l112 42l-169 -23v15l137 18l77 22q6 0 13 -2.5t12 -2.5l58 17q4 -5 5.5 -11t1.5 -11l-39 -21l112 5v-22h-134zM1095 467h-26v-10h26v10z" />
    <glyph glyph-name="apple" horiz-adv-x="894" 
d="M890 325q0 -1 0.5 0t0.5 2q-2 -6 -2 -13l-2 -11q-2 -11 -13 -12l-12 -2q-3 -1 -6 -1q-1 -3 -1 -8q-1 -4 -2 -9t-3 -11v-1l-9 -51l-20 -104l-8 -14q-2 -4 -3.5 -4t-6.5 -1l-34 -2h-1q-5 0 -10.5 0.5t-11.5 3.5q-8 5 -8 14v3v-2l3 16q2 10 3 15.5t2 7.5q0 3 1 3l18 101
q2 8 3 15t2 13t2 11h-3h-5v-6q-1 -1 -1 -2l-4 -14q-2 -7 -12 -9q-23 -4 -28 -4.5t-6 -0.5q-8 0 -16 5q-1 -4 -1.5 -10t-2.5 -12q2 1 6 1h3l17 1q1 1 2 1h1l19 -2q9 0 12 -8q4 -5 0 -15q-3 -5 -5 -14l-2 -9q-1 -17 -9 -28.5t-19 -19t-24 -10.5t-24 -3q-20 0 -38 9h-1l-7 7
l-1 1q-3 2 -9 8l-1 -8q-1 -5 -9 -11l3 2l-1 -1q-4 -4 -11 -4h-53q1 -8 2 -16.5t1 -17.5q5 -2 12 -0.5t12 -0.5q1 2 2 1t3 -1q14 3 27 -2.5t26 -9.5q7 -3 6.5 -10t8.5 -8q5 -10 5 -21.5t-2 -22.5q-1 -3 -1.5 -6.5t-4.5 -4.5q-10 -4 -18.5 -2.5t-17 4.5t-17 7t-17.5 4
q-32 5 -59 2l-1 1q-13 -2 -26 -1.5t-25 -3.5q-7 -2 -8.5 3t-3.5 9q0 7 -3 13.5t1 12.5q11 3 22.5 7t23.5 6q5 5 2 11t0 13q-1 12 -1.5 24t-0.5 23q1 5 -1 15q-6 2 -12 0l-1 -1l-7 -37l-1 -11q-2 -7 -7 -10q-2 -2 -6.5 -4t-9.5 -3q-8 -2 -21 -2.5t-16 -0.5h2h-4q-10 0 -13 7
q-1 0 -2 -0.5t-3 -0.5h-44q1 -4 1 -7.5t1 -7.5q12 -7 27 -7.5t26 -10.5q4 -7 7 -14.5t-1 -16.5q-4 -5 -11.5 -4t-12.5 -1q-6 2 -13 2.5t-12 0.5h-3l-1 1q-20 -2 -41.5 -2.5t-40.5 -8.5q-14 -4 -26.5 -8t-23.5 -11q-8 0 -12 10q0 6 -5.5 8.5t-8.5 6.5q-5 6 -7.5 13.5
t1.5 14.5q8 3 11.5 11t9.5 14q6 8 15 8.5t17 3.5q13 0 24.5 2t25.5 0q3 6 1 11.5t0 12.5q0 9 1 13h-9h3h-11q-7 0 -11 4q-3 -3 -9 -3h-81h-3q-1 -9 -2 -17q-1 -4 -1 -7v-1v1l-8 -14q-2 -4 -4 -4.5t-7 -0.5h-29q-2 0 -10 0.5t-14 2.5q-9 3 -12 12l-2 13q-2 8 -3 14.5t-1 11.5
q-1 5 -1 10q-1 -3 -1.5 -6.5t-1.5 -5.5q-5 -10 -15 -10l-28 -2l-14 -1h2h-3q-7 0 -12 6q-4 3 -4 10v3q14 68 21.5 106t11.5 56q4 22 5 27q-2 4 -2 6q0 7 4 11l3 3q5 5 11 5h55q4 0 10 -2q-2 6 -3.5 11.5t-7.5 9.5q-11 12 -23.5 26.5t-6.5 33.5q2 4 4 6q-7 1 -9 8
q1 9 -3 16.5t-4 15.5q2 7 8 6.5t11 3.5q-10 37 -11 77t6 81q5 7 7.5 14.5t8.5 14.5q4 7 8 13.5t9 13.5l10.5 10.5l10.5 10.5q5 4 9.5 3t9.5 -2q1 -13 1 -26t1 -27q-1 -3 -1 -8t-1 -9q1 -32 4 -65t2 -66q2 -9 4 -21q7 -2 13.5 -1.5t10.5 -8.5q2 -8 2.5 -15.5t-1.5 -16.5
q-9 -3 -17.5 -4.5t-17.5 -3.5q-2 -2 -4.5 -2t-1.5 -4l2 -1q13 2 26 2t25 4q2 11 4.5 22t4.5 22l-1 1q8 36 10.5 71t10.5 71q-2 15 4.5 28l12.5 25q9 19 23 36t32 29q12 8 25 13t27 8q31 11 62 13q5 4 10.5 2.5t11.5 1.5q14 -5 30.5 -5.5t30.5 -6.5q35 -17 70.5 -31t63.5 -45
q6 -6 9.5 -13t6.5 -15q11 -19 12 -40.5t3 -43.5q-1 -5 -0.5 -8t0.5 -7l-1 -1q1 -9 1.5 -17.5t1.5 -17.5q6 -3 11 0.5t11 4.5l7 6q-6 5 -12 9t-14 4q0 1 -0.5 1.5t0.5 2.5q6 -1 13 -1t14 2q3 15 -1.5 29.5t-2.5 28.5q2 2 3.5 0.5t3.5 -2.5q11 -23 23 -46q2 5 4 10.5t3 11.5
q4 12 17 17q11 5 21.5 0.5t18.5 -9.5q9 -9 13 -19t10 -20q2 -2 4.5 0t2.5 -2q-1 -9 0.5 -17t0.5 -17q17 -6 30 -20.5t18 -31.5q5 -20 -2.5 -38t-21.5 -30l-19 -9.5t-20 -5.5q-5 -6 -10 -11.5t-10 -11.5q-14 -11 -28.5 -18t-31.5 -12q17 -5 25 -11q2 4 4 5q6 6 12.5 6.5
t9.5 0.5v0h1l5 1l9 1h50l15 2l19 2q11 0 16.5 -6.5t5.5 -14.5zM794 574q0 4 -1 5l-5 -5l1 -1q3 0 5 1zM791 585q-2 3 -6 -1q0 -3 1 -4q2 2 3.5 2.5t1.5 2.5zM782 597q-2 -4 0 -8q3 2 3 8q-1 0 -2 1zM776 604q-2 5 -3 2t-1 -5q3 0 3 -2q0 2 0.5 3t0.5 2zM770 539
q-5 -2 -11 -1.5t-11 -1.5l2.5 -5t4.5 -5q4 3 9 5.5t6 7.5zM768 545l1 1q0 5 -2 10t1 10q-3 0 -6 -1.5t-5 -3.5q-2 -5 3 -9t8 -7zM762 611l-1 -4q3 -3 5 -1q-2 2 -1 4.5t-3 0.5zM757 593q-5 -2 -6.5 -7t-1.5 -10q5 -1 9.5 1t9.5 1q-4 11 -11 15zM753 611l-4 -3v-1q5 -2 5 2z
M742 602q-5 -3 -1 -5q1 -1 1.5 0t1.5 1zM736 587q-1 0 -1 -1.5t1 -1.5h2q0 1 -2 3zM708 563q2 -11 -6.5 -11t-13.5 -8q5 -3 10 -1.5t10 3.5q2 0 4 -6q-5 -7 -9 -14t-9 -15q5 5 8 9t8 9q2 2 3.5 0t3.5 -4l-3 -21q8 15 10 29q3 4 5 3.5t3.5 -2.5t3.5 -3.5t5 0.5q-2 3 -4.5 5
t-2.5 6q2 5 6.5 5.5t8.5 1.5l-7 5q-1 5 4 8t7 6h-6q-2 -2 -5.5 -2t-5.5 -4q0 -2 1 -2.5t1 -2.5q-1 -2 -1.5 -4.5t-3.5 -4.5q-4 -1 -5 2.5t-4 2.5l-1 -4q-2 -6 -7 -3q-3 3 -3 5q2 5 7 3l-1 7q5 4 2 10t-2 11q-6 4 -9 12t-8 15l4 -25q1 -2 3 -4.5t1 -5.5q-1 -4 -5 -4.5
t-7 -0.5q2 -4 5.5 -2.5t4.5 -3.5zM695 533q-4 0 -10 1.5t-11 2t-7 -2.5t2 -12q6 -14 3 -30t0 -30q2 -5 0.5 -10t0.5 -10q16 2 32 3t30 5q-6 17 -2.5 35.5t14.5 32.5q-5 1 -9 2.5t-8 0.5q-4 -10 -7.5 -19t-8.5 -18q-2 -2 -1.5 -5.5t-2.5 -5.5q-2 -2 -4 -0.5t-4 1.5q5 19 3 36
l-23 -28q-5 -2 -6 2q2 13 8.5 24.5t10.5 24.5zM669 422q-2 -7 -2 -13t-1 -14q5 -8 2.5 -17.5t-2.5 -20.5q17 2 32.5 5.5t31.5 8.5q14 7 29.5 14.5t23.5 22.5q-13 3 -26 11l-13 14q-19 -3 -37.5 -5.5t-37.5 -5.5zM334 761q-38 -12 -58.5 -45t-30.5 -69q37 26 82 29
q11 -2 20.5 -5.5t18.5 -7.5q15 -12 29.5 -25.5t25.5 -28.5q16 -10 35.5 -10.5t36.5 4.5q18 0 32 10.5t24 24.5q21 8 44.5 12.5t46.5 -0.5q2 2 0.5 4t0.5 4q-4 23 -17 39.5t-30.5 28.5t-37.5 20.5t-38 16.5q-5 2 -10.5 2t-9.5 4q-9 2 -16.5 5.5t-17.5 3.5q-2 2 -3.5 1.5
t-2.5 0.5q-8 2 -15.5 1.5t-14.5 -0.5q-25 2 -48 -5t-46 -15zM642 546q4 11 0 21.5t-11 19.5q-12 8 -29 8.5t-28 -10.5q-5 -6 -6 -13.5t-1 -15.5q2 -14 13 -20.5t22 -10.5q13 -2 24 4t16 17zM429 474q3 5 -1 7.5t-2 7.5q16 5 32 9.5t32 9.5q3 2 7 3t5 6q2 4 -1.5 6.5
t-5.5 4.5q-11 3 -25 1q-17 -5 -34 -7.5t-29 -16.5q-3 -13 0.5 -24t8.5 -22q17 -14 40 -9.5t41 8.5q3 2 8 4t3 7q-8 9 -20 10.5t-23 3.5q-9 0 -16 -5t-15 -8zM356 571q5 16 -1 28q-5 14 -17 18t-24 6q-7 -2 -12.5 0t-10.5 -2q-14 -8 -19.5 -22t-3.5 -29q5 -14 17.5 -20
t26.5 -8q30 3 44 29zM227 523q0 -10 -3.5 -18.5t-1.5 -18.5q-5 -32 -7.5 -65.5t-2.5 -66.5h2l6 1h60l13 1q9 2 13 -4q5 2 12.5 3t14.5 2q8 1 17 1q2 0 17 -0.5t26 -2.5q6 -1 17.5 -6t18.5 -16l3 12q3 12 14 12l91 8q6 2 12 -4q4 -4 4 -7l6 1h59l14 1q13 2 16 -9l3 -9v0v0
q-1 4 -0.5 9.5t1.5 9.5q5 32 3.5 64t0.5 64l-2 2q-2 -1 -3.5 -3t-3.5 -1q-6 -5 -13 -7t-14 -6q-3 -1 -7 -0.5t-7 0.5q-19 4 -34.5 14.5t-31.5 21.5q-7 9 -15.5 15.5t-16.5 12.5q1 -9 8 -19q-1 -7 -5 -10t-9.5 -4l-11 -2t-9.5 -4l1 -2q9 -5 20.5 -6t14.5 -15q1 -4 2 -9t-5 -7
q-10 -4 -19.5 -11t-20.5 -9q-8 -2 -14.5 0.5t-14.5 2.5q-3 3 -6.5 2.5t-7.5 1.5q-8 -2 -15 2t-15 6q-6 11 -5.5 23t-5.5 23q4 5 5 12t9 10q5 8 12.5 10.5t15.5 6.5q14 0 26.5 1.5t27.5 -0.5q2 2 4.5 1.5t5.5 -0.5q2 -1 4 1q-11 6 -23 7l-24 2q-17 2 -33 -2t-27 -18
q-14 -5 -24.5 -14.5t-24.5 -14.5q-24 -10 -53 -10.5t-50 17.5q-4 5 -7 10t-7 7zM165 357q2 4 1 7.5t-1 6.5l-2 6q-9 2 -16.5 0t-15.5 -4q-3 -5 -1 -9.5t4 -9.5q2 -1 4 -1t4 -1q4 4 9 4zM180 358l15 -2q1 2 -1 3.5t-4 2.5q-2 0 -5.5 1t-5.5 -2q0 -1 0.5 -1.5t0.5 -1.5z
M203 437q-14 1 -26 0.5t-24 -2.5l4 -20q2 -5 2 -10.5t5 -9.5q2 -12 14.5 -15.5t23.5 -5.5q0 14 -0.5 27t2.5 28zM154 388q-4 6 -10 2t-11 -4q5 -2 10.5 -0.5t10.5 2.5zM96 635q-2 -36 -3.5 -71.5t7.5 -68.5q0 -5 2.5 -3.5t4.5 1.5q-2 16 -3 31.5t-6 29.5q5 8 3 17t-1 18
q-2 4 -1 7.5t-1 7.5q2 1 2 3t2 3q2 0 5 -3q2 -11 0 -23.5t1 -23.5q5 -3 2 -6.5t-1 -6.5q8 -10 5.5 -22t1.5 -23q2 -3 3.5 -6t6.5 -1q2 4 4.5 4.5t5.5 -0.5t5.5 -1t4.5 3q0 18 -0.5 36.5t-2.5 35.5l1 1q-2 29 -3.5 58t0.5 59l-2 2q-6 -8 -11 -16.5t-10 -17.5q-2 -2 -3 -0.5
t-3 2.5q1 11 8 20.5t12 20.5l-2 2q-8 -8 -11 -16q-11 -11 -14.5 -25t-8.5 -28zM84 476q2 -10 5 -14q7 1 13.5 1.5t11.5 3.5q14 -2 28 1t28 5q8 2 9 6q1 14 -9 12t-17 -4q-13 2 -25 -0.5t-24 -3.5q-5 -6 -10.5 -5t-9.5 -2zM94 424q3 -9 7.5 -18t14.5 -13q5 -1 7 3.5t7 5.5
q6 7 10 15t1 17q-3 6 -10.5 8.5t-12.5 -1.5q-5 0 -9 1t-8 -2q-1 -5 -5 -7.5t-2 -8.5zM154 107q5 27 9.5 58t9.5 62.5t10.5 61.5t11.5 53q-3 1 -8 1.5t-7 0.5t-11.5 -1t-16.5 -2q-3 -16 -6 -31.5t-5 -31.5q-2 -14 -3.5 -29t-5.5 -30q0 -3 -1 -3q-5 24 -7 49.5t-4 58.5
q-1 7 -0.5 12.5t-8.5 5.5h-55q0 -3 -3 -3q1 -1 2 -3q1 0 1 -1l-38 -194h3q2 0 16.5 1.5t23.5 1.5q3 9 6 22t5.5 27.5t5 28t5.5 22.5q4 -33 8 -64.5t8 -62.5l3 -12q5 -1 11.5 -1.5t7.5 -0.5h30q1 1 1.5 2t1.5 2zM271 200q1 3 1.5 6.5t1.5 6.5h-1h-23q-1 -3 -1 -5.5t-1 -4.5h9
h1zM274 230q5 5 5 12t1 12q0 3 1 6t1 5q-7 1 -15.5 0.5t-10.5 -0.5h-7t-6 2q2 9 2.5 17.5t5.5 17.5h33q6 0 7.5 11t2.5 14q0 2 1.5 5.5t1.5 4.5q0 2 -0.5 2.5t-0.5 2.5q-5 -1 -9.5 -1.5t-6.5 -0.5h-59q-2 0 -4 -0.5t-4 -0.5l-2 -2q-1 -5 -3 -11t-3 -11q-2 -5 -2 -12t-1 -12
q-2 -12 -4 -23.5t-4 -21.5q-2 -12 -5.5 -28.5t-6.5 -31.5t-5.5 -25.5t-2.5 -11.5q0 -2 1 -2.5t1 -1.5h81l2 2q3 13 5 21t4 19q-4 1 -10 1l-17 -1h-4t-5 2q0 20 6 41h36zM287 285q-1 0 -1.5 -0.5t-1.5 -0.5h-23q0 -2 -1 -4h23h3q0 3 1 5zM386 49q-9 2 -20 3.5t-22 3.5
q-6 -1 -15 4q0 11 -0.5 21.5t-0.5 21.5l-4 9l3 15v6q-6 -5 -15 -5q-1 -12 -0.5 -23t-0.5 -22q2 -2 2.5 -3.5t1.5 -3.5q-4 -4 -6 -4q-19 3 -37.5 0.5t-37.5 -0.5q-5 -2 -10 -5t-7 -9q8 2 15.5 3.5t15.5 5.5q6 -1 11.5 2t11.5 1q1 0 3 -5q0 -3 -7 -5q-9 -6 -22 -4
q-11 -3 -21 -5t-19 -9q-1 -3 0 -5t1 -4q3 -3 4 -0.5t3 3.5q17 6 32.5 11.5t32.5 10.5q3 1 4 3.5t6 0.5q4 -2 2 -7q-2 -3 -6 -5.5t-9 -1.5q-7 -5 -14.5 -6t-13.5 -6q-8 4 -15.5 -0.5t-13.5 -9.5q2 -2 2 -5t1 -5q12 2 22.5 8t21.5 10q31 5 62.5 7t63.5 0q-2 6 -5 8zM342 125v0
h1v0h-1zM389 111l20 97q-1 2 -1 4t-1 3q-2 5 -6 9t-8 7q21 15 24 34t3 36q0 2 0.5 9.5t-0.5 9.5q-2 9 -12.5 14t-16.5 6q-10 2 -24.5 3t-15.5 1l-5.5 -0.5t-12 -1.5t-12.5 -2t-9 -2q-5 -37 -11.5 -74t-14.5 -73q0 -4 -1 -5q-2 -6 -2.5 -12t-1.5 -12q-1 -2 -1 -4t-1 -4
q0 -1 -1 -2.5t-1 -2.5v-5h11h5t6 1q5 1 11 0.5t10 2.5q3 16 6.5 32t6.5 32h7q4 0 6 -1l5 -2.5t4 -3.5q2 -3 2 -9v-8q0 -10 -1 -13.5t-3 -13.5q-1 -5 -2.5 -12t-3.5 -12q-2 -8 -5 -17q1 -3 1 -9h46zM461 160q2 8 4.5 17t4.5 17q2 5 2 10t1 10q0 5 3 9l18 2t17 1l7 34
q0 2 -3 5q-24 0 -28.5 -0.5t-5.5 0.5q2 10 3 19.5t6 19.5q8 1 16.5 2.5t9.5 1.5q2 0 4 -0.5t4 -0.5q1 0 5 2l2 14t3 15q1 2 3 4t2 4v5l-90 -8q-8 -34 -15 -70.5t-12 -63.5q-2 -11 -5 -28t-5.5 -33t-4.5 -27.5l-2 -11.5q0 -1 1 -3l1 -1h4q2 0 13 0.5t19 1.5q3 1 5.5 2t4.5 2
q2 12 4 24.5t4 24.5zM524 290h-1h-6h-1q-4 0 -7 -1q-7 0 -8 -1q-1 -2 -1 -4.5t-1 -4.5h15q5 0 7 -1l1 -1q1 5 1 8t1 5zM481 173q4 1 7 1t7 1q2 0 3 -0.5t3 -0.5v1q2 6 3 12.5t2 10.5q1 6 2 11l-16 -2h-5v-4q-1 -8 -2 -12v-2v0zM528 75q1 14 0 26.5t-2 26.5h-12h-5
q-2 -32 0 -62q2 -2 4 -4.5t-2 -5.5q-7 -2 -13.5 -1.5t-13.5 0.5q-6 -2 -14 -3.5t-10 -10.5q2 -4 5 -2t6 0q22 3 46 1t46 0q14 -3 27 -7.5t27 -8.5q3 -2 7.5 -2t6.5 2t0.5 4.5t-3.5 4.5q-9 5 -19.5 6t-20.5 3q-2 -1 -3 -0.5t-1 -1.5q-5 0 -6 2q-3 5 -6.5 6t-8 0.5t-8.5 -0.5
t-7 3l2 6t5 4q20 -3 38 -7.5t35 -9.5q0 1 1 1.5t1 1.5q-1 1 -1.5 1t-1.5 1q-2 5 -5.5 5.5t-8 0.5t-8 0.5t-5.5 5.5q-22 4 -46 1q-5 4 -4 8q7 4 15.5 2t16.5 -2t16.5 -2.5t16.5 -1.5q-10 5 -21 6.5t-22 3.5q-2 0 -3 -1t-3 0q-6 3 -13 1.5t-15 -2.5q-2 -2 -5 -3t-5 4zM609 201
l1 12h-21q-2 -8 -2 -10h9h1zM618 254q2 8 3 11q-7 1 -16 0.5t-11 -0.5h-6t-6 2q2 9 2.5 17.5t5.5 17.5h33q5 0 7 11t2 14q1 2 2.5 5.5t1.5 4.5t-2 5q-5 -1 -9 -1.5t-6 -0.5h-59q-2 0 -4 -0.5t-4 -0.5t-2 -2q-1 -5 -3 -11t-3 -11q-2 -5 -2 -12t-1 -12q-2 -12 -4 -23.5
t-4 -21.5q-2 -12 -5.5 -28.5t-6.5 -31.5t-5.5 -25.5t-2.5 -11.5q0 -2 2 -4h81l2 2q2 13 4 21t5 19q-4 1 -10 1l-17 -1h-5t-5 2q1 22 7 41h36q5 5 5 12v12zM621 284h-21q-1 -1 -1 -4h21q0 3 1 4zM748 280q2 6 2.5 12.5t0.5 8.5q0 22 -14 30.5t-33 8.5h-6t-7 -1
q-7 -1 -15.5 -4.5t-14.5 -8.5q-3 -2 -7.5 -6.5t-5.5 -6.5q-13 -27 -16 -59.5t-6 -54.5q-2 -7 -3.5 -16.5t-1.5 -11.5t0.5 -2.5t0.5 -1.5q2 -3 6 -6.5t7 -6.5l5 -5q8 -4 15.5 -5t15.5 -1t18 2.5t19 7.5t15.5 14t7.5 22q0 5 2 11q1 5 2.5 9.5t3.5 8.5q-1 0 -3 1h-13
q-5 -1 -11 -1t-12 -1l-3 -3v-5.5t-2 -5.5q-1 -2 -1.5 -4.5t-1.5 -4.5q-2 -5 -5 -5h-6q-8 0 -8.5 3.5t-0.5 9.5q0 8 1 9.5t3 11.5q4 17 6 33.5t6 33.5q2 10 11 10q5 0 7 -3.5t2 -7.5q0 -2 -1.5 -9t-1.5 -8q0 -7 9 -7q2 0 13 1.5t19 3.5q2 6 2 10zM877 335q1 1 1 6q0 4 -5 4
q-1 0 -6 -0.5t-10.5 -1t-10.5 -1t-6 -0.5h-51q-2 0 -6 -1l-8 -2q-2 0 -5.5 0.5t-6.5 -2.5q-2 -8 -4 -17t-3 -16q4 -2 8 -2.5t6 -0.5t9.5 0.5t12.5 -0.5q-8 -40 -14 -79.5t-14 -78.5q-3 -14 -6.5 -25t-2.5 -13v-2q4 -2 7 -2.5t8 -0.5q2 0 13.5 1t19.5 2q1 1 1.5 2.5t1.5 2.5
q8 39 15 79.5t14 75.5q4 20 9 40q8 1 14.5 2t13.5 3q2 5 2 12.5t3 14.5zM319 604q12 0 14 -8q1 -1 1 -7q-5 -6 -14 -8q-9 0 -12 8q0 1 -0.5 1t-0.5 1q2 2 0.5 3t-0.5 3q4 2 5.5 5t6.5 2zM613 568q10 -4 10 -13l-4 -6t-5 -3q-6 -3 -10 3q-6 4 -4 13q3 4 13 6zM359 304
q2 0 5.5 -1.5t6.5 -2.5q1 -3 1 -8v-7q0 -7 -2.5 -17t-10.5 -17q-2 -2 -6 -2t-8 -2h-3l9 57h8z" />
  </font>
</defs>
</svg>
